<svg xmlns="http://www.w3.org/2000/svg" width="1024pt" height="1024" viewBox="0 0 1024 768"><clipPath id="a"><path transform="matrix(1 0 0 -1 0 768)" d="M275.028 276.909h482.187v482.187H275.028z"/></clipPath><g clip-path="url(#a)"><path stroke-width="22.6" stroke-miterlimit="10" fill="none" stroke="#e02020" d="M516.122 20.204c126.915 0 229.793 102.879 229.793 229.794S643.037 479.791 516.122 479.791 286.328 376.913 286.328 249.998 389.207 20.204 516.122 20.204z"/></g><clipPath id="b"><path transform="matrix(1 0 0 -1 0 768)" d="M800.198-56.66h49.358v99.132h-49.358z"/></clipPath><g clip-path="url(#b)"><path stroke-width="22.6" stroke-linecap="round" stroke-linejoin="round" fill="none" stroke="#e02020" d="M825.956 749.127v3.995c0 .859-.012 2.065-.035 3.619-.023 1.553-.092 3.349-.207 5.386a137.252 137.252 0 0 1-.484 6.118 773.24 773.24 0 0 0-.586 6.014c-.185 1.968-.346 3.869-.484 5.703a118.59 118.59 0 0 0-.285 5.322 111.343 111.343 0 0 0-.043 4.965c.023 1.597.141 3.01.354 4.24.213 1.23.365 2.251.458 3.062.092.812.138 1.507.138 2.085 0 .578-.115.96-.346 1.146"/></g><clipPath id="c"><path transform="matrix(1 0 0 -1 0 768)" d="M176.121-56.77h669.123v303.8H176.121z"/></clipPath><g clip-path="url(#c)"><path stroke-width="22" stroke-linecap="round" stroke-linejoin="round" fill="none" stroke="#e02020" d="M822.244 753.242a31.447 31.447 0 0 0-.276-2.926c-.138-.976-.219-2.482-.242-4.519a590.267 590.267 0 0 1-.034-6.636c0-2.386.011-4.751.034-7.095a82.948 82.948 0 0 0-.276-7.406c-.207-2.594-.705-5.304-1.493-8.13a58.847 58.847 0 0 0-2.918-8.138 123.127 123.127 0 0 0-3.927-7.996c-1.462-2.732-2.898-5.802-4.308-9.212-1.41-3.41-2.727-6.48-3.953-9.212-1.226-2.732-2.44-5.188-3.643-7.367-1.202-2.18-2.428-4.66-3.677-7.439a844.849 844.849 0 0 1-4.022-9.108 90.883 90.883 0 0 0-4.618-9.212 246.47 246.47 0 0 0-5.524-9.07 200.945 200.945 0 0 0-6.491-9.562c-2.29-3.176-4.604-5.807-6.94-7.891a221.51 221.51 0 0 0-7.423-6.325 557.035 557.035 0 0 1-8.779-7.335 3234.92 3234.92 0 0 0-9.512-8.066c-3.102-2.62-6.18-4.88-9.236-6.779a294.345 294.345 0 0 0-10.168-6.014 147.98 147.98 0 0 1-10.893-6.817 149.762 149.762 0 0 0-11.006-6.881 64.24 64.24 0 0 0-11.938-5.25 259.962 259.962 0 0 0-12.282-3.652 385.49 385.49 0 0 0-13.052-3.262 1267.32 1267.32 0 0 1-13.707-3.27 378.375 378.375 0 0 0-14.579-3.237 771.893 771.893 0 0 1-15.166-3.23 303.86 303.86 0 0 0-15.476-3.023 405.342 405.342 0 0 0-16.314-2.434 313.33 313.33 0 0 0-16.521-1.67c-5.6-.42-11.348-.708-17.246-.868-5.899-.16-11.648-.24-17.247-.24s-11.603.059-18.014.175a367 367 0 0 0-19.024.835 594.7 594.7 0 0 0-18.29 1.56c-5.922.6-12.1 1.237-18.533 1.91a500.685 500.685 0 0 0-18.67 2.298 525.715 525.715 0 0 0-17.454 2.784 756.58 756.58 0 0 0-17.393 3.302A462.741 462.741 0 0 0 395 560.582a927.233 927.233 0 0 0-16.21 4.066 196.666 196.666 0 0 0-16.03 4.907 109.693 109.693 0 0 0-15.476 6.881c-5.07 2.732-9.964 5.5-14.683 8.306a744.26 744.26 0 0 1-14.087 8.17c-4.672 2.641-9.241 5.794-13.707 9.458a324.867 324.867 0 0 0-13.154 11.4 469.474 469.474 0 0 0-12.534 11.887c-4.05 3.987-8.134 8.623-12.248 13.905a684.004 684.004 0 0 0-11.213 14.773c-3.36 4.567-6.914 9.759-10.66 15.576a405.145 405.145 0 0 0-10.444 17.104 376.377 376.377 0 0 0-8.917 16.372c-2.727 5.33-5.435 11.193-8.122 17.59a2159.066 2159.066 0 0 0-7.294 17.556 107.507 107.507 0 0 0-5.24 16.476c-1.317 5.676-2.416 10.865-3.297 15.57a140.263 140.263 0 0 0-1.907 14.009c-.392 4.635-.599 8.658-.622 12.067"/></g><clipPath id="d"><path transform="matrix(1 0 0 -1 0 768)" d="M798.899-45.855h50.644v81.813h-50.644z"/></clipPath><g clip-path="url(#d)"><path stroke-width="22" stroke-linecap="round" stroke-linejoin="round" fill="none" stroke="#e02020" d="M821.899 756.233v-1.191l.034.556c.023.372.15 1.021.38 1.949.23.928.506 2.227.829 3.897.322 1.67.659 3.86 1.01 6.571.35 2.71.641 5.7.871 8.966.23 3.267.46 6.036.691 8.306.23 2.27.426 3.766.587 4.486"/></g><clipPath id="e"><path transform="matrix(1 0 0 -1 0 768)" d="M540.88 65.805h288.326v173.158H540.88z"/></clipPath><g clip-path="url(#e)"><path stroke-width="22" stroke-linecap="round" stroke-linejoin="round" fill="none" stroke="#e02020" d="M564.38 552.865a3.835 3.835 0 0 0-.285-.589c-.098-.16-.158-.229-.18-.207-.024.022.175.31.595.868.42.556 1.082 1.206 1.985 1.948.903.743 1.968 1.53 3.194 2.363 1.225.833 2.716 1.737 4.47 2.713 1.756.975 3.756 2.03 6 3.165a264.327 264.327 0 0 1 7.19 3.787 90.957 90.957 0 0 1 7.467 4.552 70.624 70.624 0 0 1 7.043 5.457 180.092 180.092 0 0 0 7.32 6.085c2.612 2.063 5.262 3.859 7.95 5.386a430.432 430.432 0 0 0 7.432 4.137c2.267 1.23 4.522 2.53 6.767 3.897 2.244 1.369 4.684 2.851 7.32 4.448a94.89 94.89 0 0 1 7.837 5.315 381.296 381.296 0 0 1 7.492 5.775 68.306 68.306 0 0 0 7.26 5.043 86.826 86.826 0 0 0 7.811 4.136 203.86 203.86 0 0 1 8.01 3.962 150.805 150.805 0 0 1 7.57 4.24 182.098 182.098 0 0 1 7.57 4.798c2.567 1.713 5.32 3.45 8.261 5.211 2.94 1.761 5.683 3.278 8.226 4.551a107.858 107.858 0 0 0 7.113 3.27c2.198.906 4.569 1.868 7.112 2.887a495.308 495.308 0 0 0 8.02 3.127 123.058 123.058 0 0 1 7.742 3.23 240.411 240.411 0 0 1 7.078 3.405 144.56 144.56 0 0 0 7.665 3.548 872.718 872.718 0 0 0 7.777 3.301 336.003 336.003 0 0 0 7.121 2.888 173.41 173.41 0 0 0 6.698 2.473 69.052 69.052 0 0 0 6.802 1.948 185.74 185.74 0 0 0 6.767 1.457c2.13.414 4.06.783 5.792 1.107 1.732.324 3.33.65 4.79.978 1.462.328 2.688.606 3.678.835l2.253.518c.512.116.826.198.94.246"/></g><clipPath id="f"><path transform="matrix(1 0 0 -1 0 768)" d="M424.973-45.22H839.34v277.93H424.973z"/></clipPath><g clip-path="url(#f)"><path stroke-width="22" stroke-linecap="round" stroke-linejoin="round" fill="none" stroke="#e02020" d="M447.973 558.29h0v.279c0 .185.184.464.552.835.369.371.912.87 1.632 1.495.72.626 1.657 1.425 2.814 2.396 1.156.97 2.6 2.233 4.333 3.787a185.114 185.114 0 0 1 5.93 5.6 514.336 514.336 0 0 1 7.112 7.127 177.65 177.65 0 0 0 7.536 7.264c2.503 2.27 4.969 4.298 7.397 6.085a961.986 961.986 0 0 1 7.803 5.807c2.774 2.085 6.002 4.784 9.685 8.099 3.683 3.314 7.156 6.234 10.419 8.759 3.262 2.525 6.419 4.599 9.468 6.221a208.718 208.718 0 0 1 9.435 5.354c3.24 1.947 6.387 4.31 9.443 7.089a175.755 175.755 0 0 0 9.72 8.202 117.682 117.682 0 0 0 10.375 7.303 94.755 94.755 0 0 1 9.719 6.92 293.621 293.621 0 0 1 9.409 8.028 118.353 118.353 0 0 0 9.96 7.956 281.498 281.498 0 0 0 9.858 6.713 287.019 287.019 0 0 1 10.375 7.095c3.7 2.642 7.415 5.62 11.144 8.934 3.729 3.315 7.547 6.21 11.454 8.688a426.613 426.613 0 0 0 12.318 7.51 99.436 99.436 0 0 1 12.248 8.487c3.861 3.129 8.085 5.99 12.671 8.584a175.125 175.125 0 0 0 13.682 6.985 533.843 533.843 0 0 1 14.639 6.953 164.195 164.195 0 0 1 15.304 8.584 95.211 95.211 0 0 0 15.9 8.067 410.322 410.322 0 0 0 16.866 6.26 463.27 463.27 0 0 1 16.797 6.182 649.39 649.39 0 0 1 15.96 6.461c5.064 2.132 9.656 3.93 13.776 5.393 4.12 1.463 7.916 2.658 11.386 3.586 3.47.928 6.212 1.634 8.226 2.117"/></g><clipPath id="g"><path transform="matrix(1 0 0 -1 0 768)" d="M316.679-81.033h433.53v283.018h-433.53z"/></clipPath><g clip-path="url(#g)"><path stroke-width="22" stroke-linecap="round" stroke-linejoin="round" fill="none" stroke="#e02020" d="M339.68 589.015c0 .233.045.466.138.7.092.232.302.51.63.834.328.324.883.788 1.666 1.392.782.604 1.996 1.554 3.642 2.849 1.646 1.294 3.902 3.264 6.767 5.91 2.866 2.646 6.186 6.008 9.961 10.086a185.458 185.458 0 0 0 11.696 11.575 873.626 873.626 0 0 1 13.362 12.372c4.886 4.61 9.78 8.908 14.683 12.896a4189.39 4189.39 0 0 1 15.856 12.967 464.811 464.811 0 0 0 17.074 13.38 2040.45 2040.45 0 0 0 17.29 12.76c5.811 4.243 11.758 8.542 17.84 12.897a484.864 484.864 0 0 0 18.291 12.481c6.112 3.966 12.45 8.358 19.016 13.174 6.566 4.817 13.276 9.102 20.13 12.857 6.853 3.755 13.773 8.09 20.759 13.006 6.986 4.916 13.914 9.076 20.785 12.481 6.87 3.406 14.078 7.264 21.622 11.576a189.716 189.716 0 0 0 23.116 11.232 834.993 834.993 0 0 0 23.46 9.07c7.775 2.87 15.017 5.858 21.727 8.965 6.71 3.108 12.922 5.717 18.636 7.827 5.714 2.11 11.232 3.895 16.555 5.354s10.114 2.78 14.372 3.962c4.259 1.183 8.065 2.156 11.42 2.92 3.355.764 5.366 1.204 6.034 1.32"/></g><clipPath id="h"><path transform="matrix(1 0 0 -1 0 768)" d="M121.913-89.786h289.432v233.507H121.913z"/></clipPath><g clip-path="url(#h)"><path stroke-width="22" stroke-linecap="round" stroke-linejoin="round" fill="none" stroke="#e02020" d="M387.154 647.28H388.173c.114 0 .172.023.172.07 0 .048-.012.13-.035.246-.023.117-.21.302-.56.557-.352.255-.85.602-1.494 1.042-.644.44-1.533 1.066-2.667 1.878-1.134.811-2.685 1.994-4.653 3.547-1.968 1.554-4.56 3.803-7.777 6.746-3.216 2.943-7.184 6.176-11.903 9.698-4.719 3.521-9.843 7.16-15.373 10.915-5.53 3.754-11.57 8.18-18.118 13.277a178.035 178.035 0 0 1-20.578 13.835c-7.17 4.126-14.412 9.04-21.726 14.74a549.636 549.636 0 0 1-22.218 16.444c-7.498 5.261-15.376 11.111-23.634 17.55-8.257 6.44-16.575 13.321-24.954 20.645a1468.188 1468.188 0 0 1-24.16 20.684 1967.43 1967.43 0 0 1-21.519 17.764c-6.618 5.378-11.95 9.7-15.994 12.967"/></g><clipPath id="i"><path transform="matrix(1 0 0 -1 0 768)" d="M242.274-106.126h219.187v212.234H242.274z"/></clipPath><g clip-path="url(#i)"><path stroke-width="22" stroke-linecap="round" stroke-linejoin="round" fill="none" stroke="#e02020" d="M438.46 684.892v1.528c0 .37-.08 1.068-.24 2.09-.162 1.023-.545 2.53-1.149 4.52-.604 1.989-1.416 4.225-2.434 6.706-1.019 2.482-2.302 5.02-3.85 7.613-1.548 2.594-3.501 5.572-5.86 8.934-2.36 3.362-5.275 6.931-8.745 10.708-3.47 3.776-7.449 7.462-11.937 11.057-4.489 3.595-9.498 7.894-15.028 12.896-5.53 5.002-11.489 9.833-17.876 14.495-6.388 4.66-13.33 10.224-20.829 16.689a773.373 773.373 0 0 1-22.84 18.942 1360.704 1360.704 0 0 1-22.7 17.725c-7.407 5.654-14.29 11.53-20.648 17.629-6.358 6.098-11.123 10.073-14.294 11.924"/></g><clipPath id="j"><path transform="matrix(1 0 0 -1 0 768)" d="M386.51-104.326h149.978V53.968H386.51z"/></clipPath><g clip-path="url(#j)"><path stroke-width="22" stroke-linecap="round" stroke-linejoin="round" fill="none" stroke="#e02020" d="M513.488 737.032c-.046.699-.196 1.303-.45 1.812-.252.51-.681 1.228-1.285 2.156-.605.928-1.67 2.527-3.194 4.797-1.525 2.27-4.022 5.237-7.492 8.901-3.47 3.665-7.496 7.489-12.076 11.472-4.58 3.984-9.51 8.86-14.786 14.63a624.164 624.164 0 0 1-16.176 17.033c-5.507 5.585-11.175 11.32-17.005 17.208-5.829 5.886-11.206 11.924-16.132 18.113-4.926 6.19-8.721 10.432-11.386 12.728"/></g><clipPath id="k"><path transform="matrix(1 0 0 -1 0 768)" d="M410.277 567.984h65.931v121.454h-65.931z"/></clipPath><g clip-path="url(#k)"><path stroke-width="22.6" stroke-linecap="round" stroke-linejoin="round" fill="none" stroke="#e02020" d="M445.944 110.021h-1.83c-.483 0-.992.138-1.527.415-.536.276-1.08.854-1.632 1.734-.552.88-1.142 2.156-1.77 3.826-.627 1.67-1.216 3.64-1.769 5.911-.552 2.27-1.027 4.795-1.424 7.574-.397 2.78-.688 6.129-.872 10.048a275.801 275.801 0 0 0-.31 11.09c-.024 3.473.045 6.404.207 8.79.16 2.387.509 4.752 1.044 7.096.535 2.343 1.102 4.327 1.7 5.95.599 1.622 1.2 2.688 1.804 3.197.605.51 1.24.73 1.908.66.668-.068 1.361-.59 2.08-1.566.72-.975 1.439-2.333 2.158-4.072.72-1.74 1.401-3.731 2.046-5.975a211.219 211.219 0 0 0 1.873-6.986 92.94 92.94 0 0 0 1.562-7.651c.438-2.69.76-5.99.967-9.905.207-3.915.334-7.622.38-11.122.046-3.5.046-6.41 0-8.727-.046-2.318-.253-4.463-.622-6.435-.368-1.972-.854-3.664-1.458-5.075-.605-1.412-1.24-2.489-1.908-3.23a19.57 19.57 0 0 0-1.908-1.878c-.604-.51-1.148-.88-1.63-1.114-.484-.233-.864-.36-1.14-.382-.277-.021-.556.14-.838.486-.282.345-.618 1.087-1.01 2.227a99.47 99.47 0 0 0-1.346 4.311l-1.631 5.594a231.246 231.246 0 0 0-1.7 6.156c-.553 2.11-1.051 4.325-1.494 6.642-.443 2.318-.826 4.936-1.148 7.853-.322 2.918-.541 5.697-.656 8.338-.115 2.642-.173 4.625-.173 5.95 0 1.325.127 2.287.38 2.887.253.6.414.91.483.932"/></g><clipPath id="l"><path transform="matrix(1 0 0 -1 0 768)" d="M541.255 567.473h65.102v118.606h-65.102z"/></clipPath><g clip-path="url(#l)"><path stroke-width="22.6" stroke-linecap="round" stroke-linejoin="round" fill="none" stroke="#e02020" d="M574.298 110.467H573.953c-.139 0-.3.046-.484.136-.184.09-.417.333-.699.725-.282.393-.573 1.17-.872 2.33-.299 1.162-.644 3.156-1.036 5.983-.39 2.826-.82 6.268-1.286 10.325a400.123 400.123 0 0 0-1.217 12.268c-.345 4.122-.552 7.713-.621 10.772-.07 3.06-.035 5.436.103 7.128.138 1.692.369 3.153.69 4.383.323 1.23.671 2.54 1.045 3.93.374 1.39.745 2.699 1.114 3.929.368 1.23.736 2.214 1.105 2.952.368.738.728 1.19 1.079 1.353.35.164.71.073 1.079-.272.368-.345.77-1.05 1.208-2.117a72.732 72.732 0 0 0 1.424-3.826 514.222 514.222 0 0 1 1.597-4.557 134.162 134.162 0 0 0 1.562-4.661c.49-1.554.953-3.326 1.39-5.315.438-1.99.794-4.318 1.07-6.986.277-2.667.438-5.31.484-7.93.046-2.62.069-4.914.069-6.882s-.173-3.636-.518-5.004a27.142 27.142 0 0 0-1.208-3.722 93.233 93.233 0 0 1-1.425-3.684 48.164 48.164 0 0 1-1.355-4.415 55.066 55.066 0 0 1-1.001-4.661 146.816 146.816 0 0 0-.665-3.716c-.19-.971-.365-1.69-.526-2.156-.161-.466-.311-.768-.45-.906a1.112 1.112 0 0 0-.413-.279 1.373 1.373 0 0 0-.45-.07c-.16 0-.368.07-.62.213-.254.142-.568.444-.942.906s-.79 1.099-1.251 1.91c-.46.811-.947 1.888-1.459 3.23-.512 1.343-1.056 3.069-1.631 5.18-.576 2.11-1.154 4.613-1.735 7.509a110.816 110.816 0 0 0-1.39 8.688 110.557 110.557 0 0 0-.69 8.934c-.116 3.06-.173 5.91-.173 8.552 0 2.64.057 4.89.172 6.745.115 1.856.418 3.41.907 4.661.489 1.252 1.01 2.41 1.562 3.477a838.734 838.734 0 0 0 1.666 3.198 142.345 142.345 0 0 1 1.424 2.784c.391.79.668 1.38.829 1.773.161.393.265.624.31.693l.07.104.103-.628"/></g></svg>