<svg xmlns="http://www.w3.org/2000/svg" width="1024pt" height="1024" viewBox="0 0 1024 768"><clipPath id="a"><path transform="matrix(1 0 0 -1 0 768)" d="M275.028 276.909h482.187v482.187H275.028z"/></clipPath><g clip-path="url(#a)"><path stroke-width="22.6" stroke-miterlimit="10" fill="none" stroke="#00b449" d="M516.122 20.204c126.915 0 229.793 102.879 229.793 229.794S643.037 479.791 516.122 479.791 286.328 376.913 286.328 249.998 389.207 20.204 516.122 20.204z"/></g><clipPath id="b"><path transform="matrix(1 0 0 -1 0 768)" d="M346.739 406.118h52.742V484.6h-52.742z"/></clipPath><g clip-path="url(#b)"><path stroke-width="22.6" stroke-linecap="round" stroke-linejoin="round" fill="none" stroke="#00b449" d="M374.5 316.167c0-.086-.046-.28-.138-.582a43.151 43.151 0 0 0-.277-.874 8.784 8.784 0 0 1-.241-.907 9.428 9.428 0 0 0-.25-.938 4.938 4.938 0 0 0-.354-.836c-.139-.254-.311-.438-.518-.55a1.042 1.042 0 0 0-.69-.103c-.254.043-.507.446-.76 1.21-.254.764-.46 1.9-.622 3.405-.161 1.507-.253 3.362-.276 5.568-.023 2.205-.035 4.56-.035 7.063s.173 4.6.518 6.292c.345 1.692.76 2.676 1.243 2.952.483.276.958-.06 1.424-1.01.466-.95.884-2.445 1.252-4.486s.633-4.37.794-6.985c.161-2.616.253-5.06.276-7.335.023-2.274.023-4.258 0-5.95-.023-1.691-.08-2.908-.172-3.65-.092-.743-.138-1.17-.138-1.282"/></g><clipPath id="c"><path transform="matrix(1 0 0 -1 0 768)" d="M451.131 377.686h56.229v79.879h-56.229z"/></clipPath><g clip-path="url(#c)"><path stroke-width="22.6" stroke-linecap="round" stroke-linejoin="round" fill="none" stroke="#00b449" d="m476.527 334.527-.173.071c-.115.048-.242.175-.38.382-.138.207-.265.555-.38 1.042-.115.488-.23 1.207-.345 2.156-.115.95-.219 2.12-.31 3.509-.093 1.39-.15 2.93-.173 4.622a422.887 422.887 0 0 0-.035 5.703c0 2.111.196 4.267.587 6.468.391 2.2.912 3.973 1.563 5.315.65 1.342 1.343 2.164 2.08 2.466.736.302 1.453.223 2.15-.24.695-.461 1.262-1.376 1.7-2.744.437-1.368.704-3.187.802-5.457.098-2.27.098-4.67 0-7.2-.098-2.528-.32-4.812-.664-6.849a133.435 133.435 0 0 0-.967-5.179c-.3-1.415-.553-2.457-.76-3.126-.207-.67-.44-1.075-.699-1.218-.259-.142-.446-.19-.561-.142"/></g><clipPath id="d"><path transform="matrix(1 0 0 -1 0 768)" d="M342.562 372.27h64.981v123.603h-64.981z"/></clipPath><g clip-path="url(#d)"><path stroke-width="22.6" stroke-linecap="round" stroke-linejoin="round" fill="none" stroke="#00b449" d="M371.79 296.698c-.047-.372-.139-.626-.277-.764a.662.662 0 0 0-.483-.207c-.184 0-.394.209-.63.627-.236.42-.48 1.08-.734 1.981-.253.903-.53 2.107-.829 3.613-.299 1.506-.633 3.51-1 6.014-.37 2.503-.706 5.818-1.01 9.944a217.175 217.175 0 0 0-.562 12.378c-.069 4.126-.034 7.915.104 11.368.138 3.452.509 6.998 1.113 10.636.604 3.638 1.232 6.744 1.882 9.316.65 2.572 1.228 4.495 1.735 5.768.506 1.273.967 2.257 1.38 2.952.415.695.832 1.17 1.252 1.424.42.255.85.348 1.287.279.437-.07.946-.51 1.527-1.321.582-.811 1.195-1.888 1.839-3.23a61.68 61.68 0 0 0 1.908-4.448c.627-1.623 1.217-3.455 1.77-5.496.552-2.042 1.003-4.36 1.354-6.953.351-2.594.527-5.373.527-8.338 0-2.965-.199-5.85-.596-8.656a279.31 279.31 0 0 1-1.044-8.24c-.3-2.69-.541-5.448-.725-8.274-.184-2.827-.415-5.296-.69-7.406-.277-2.11-.59-3.803-.942-5.076-.35-1.273-.722-2.34-1.113-3.198a164.122 164.122 0 0 1-1.554-3.509c-.138-.323-.219-.52-.242-.589l-.034-.103"/></g><clipPath id="e"><path transform="matrix(1 0 0 -1 0 768)" d="M441.826 347.721h62.824v129.521h-62.824z"/></clipPath><g clip-path="url(#e)"><path stroke-width="22.6" stroke-linecap="round" stroke-linejoin="round" fill="none" stroke="#00b449" d="M474.731 321.868c-.368.414-.75.865-1.148 1.353-.397.487-1.059 1.728-1.985 3.722-.927 1.994-1.482 3.246-1.666 3.755-.184.51-.599 1.877-1.243 4.104-.644 2.227-1.177 4.834-1.597 7.82-.42 2.987-.722 6.207-.906 9.66a858.662 858.662 0 0 0-.449 9.25 298.457 298.457 0 0 0-.276 15.783c.023 2.759.253 5.18.69 7.264.438 2.085.947 3.846 1.528 5.283.581 1.437 1.209 2.643 1.882 3.619.673.975 1.343 1.683 2.011 2.123.668.44 1.257.73 1.77.868.512.138.929.207 1.251.207.322 0 .564-.059.725-.175.161-.117.345-.406.553-.868.207-.461.437-1.132.69-2.013.253-.88.532-1.98.837-3.302.305-1.32.63-3.025.976-5.114.345-2.089.667-4.812.967-8.17.299-3.357.543-7.006.733-10.947.19-3.94.343-7.777.458-11.51.115-3.733.218-7.175.31-10.326.093-3.15.15-5.723.173-7.717.023-1.994-.011-3.627-.103-4.9a17.287 17.287 0 0 0-.665-3.684 85.047 85.047 0 0 1-1.01-3.722 50.732 50.732 0 0 1-.76-3.548 131.942 131.942 0 0 1-.448-2.745 90.627 90.627 0 0 0-.311-1.942c-.092-.53-.161-.913-.207-1.146a2.55 2.55 0 0 0-.104-.42c-.023-.048-.08-.003-.173.135-.092.138-.21.462-.353.971-.144.51-.32 1.114-.527 1.813-.207.7-.437 1.407-.69 2.123-.254.717-.484 1.388-.691 2.014-.207.626-.357 1.1-.449 1.424"/></g><clipPath id="f"><path transform="matrix(1 0 0 -1 0 768)" d="M177.864-49.069h669.521V249.72H177.864z"/></clipPath><g clip-path="url(#f)"><path stroke-width="22" stroke-linecap="round" stroke-linejoin="round" fill="none" stroke="#00b449" d="M823.832 756.534c.184.51.311.857.38 1.042.07.186.115.3.138.343l.035.065v-5.069c0-1.299-.023-2.784-.07-4.454-.045-1.67-.103-3.524-.172-5.56a109.85 109.85 0 0 0-.449-6.675 64.902 64.902 0 0 0-1.07-7.096 68.144 68.144 0 0 0-1.7-6.57 72.67 72.67 0 0 0-2.09-5.801 74.44 74.44 0 0 1-2.114-5.872c-.668-2.11-1.35-4.534-2.046-7.27-.696-2.736-1.473-5.263-2.33-7.58-.858-2.318-1.793-4.345-2.806-6.08a183.275 183.275 0 0 0-3.254-5.353c-1.157-1.835-2.374-4.118-3.651-6.85a412.398 412.398 0 0 0-3.859-8.027c-1.294-2.62-2.612-4.903-3.953-6.85a151.361 151.361 0 0 0-4.126-5.703c-1.41-1.856-2.846-4.035-4.307-6.538a132.643 132.643 0 0 0-4.86-7.678c-1.778-2.616-3.536-4.99-5.274-7.121a446.064 446.064 0 0 0-5.136-6.19c-1.686-1.993-3.467-4.31-5.343-6.952a108.935 108.935 0 0 0-5.766-7.439 32.22 32.22 0 0 0-6.629-5.942 175.693 175.693 0 0 0-7.078-4.52 132.685 132.685 0 0 1-6.595-4.246c-2.129-1.463-4.419-3.179-6.87-5.147a182.853 182.853 0 0 0-7.95-6.014c-2.849-2.041-5.521-3.802-8.019-5.282a79.879 79.879 0 0 0-7.561-3.962 179.134 179.134 0 0 0-7.985-3.406c-2.78-1.109-5.59-2.21-8.433-3.301a131.843 131.843 0 0 1-8.226-3.477 2539.138 2539.138 0 0 1-8.122-3.787c-2.774-1.299-5.712-2.54-8.813-3.722-3.102-1.183-6.135-2.33-9.098-3.444a158.005 158.005 0 0 0-8.813-3.024 102.18 102.18 0 0 0-9.365-2.395 626.868 626.868 0 0 0-9.893-1.98 313.345 313.345 0 0 0-9.684-1.703 281.21 281.21 0 0 0-10.203-1.425c-3.608-.44-7.147-.859-10.617-1.256-3.47-.397-7.012-.768-10.626-1.113-3.613-.345-7.35-.68-11.212-1.004-3.861-.323-7.608-.66-11.239-1.01a299.07 299.07 0 0 0-11.558-.873c-4.074-.233-7.903-.464-11.488-.693a243.165 243.165 0 0 0-11.006-.447 2063.13 2063.13 0 0 1-11.558-.246 643.44 643.44 0 0 1-10.962-.35 264.299 264.299 0 0 0-10.833-.206c-3.867 0-7.535.01-11.005.032-3.47.021-6.779.16-9.927.414-3.147.255-6.571.533-10.271.835-3.7.302-7.194.57-10.48.803a919.472 919.472 0 0 0-19.61 1.6c-3.54.323-6.871.67-9.996 1.041-3.125.372-6.272.754-9.443 1.146-3.17.393-6.526.833-10.065 1.32-3.539.489-6.94 1.01-10.202 1.568a285.398 285.398 0 0 0-10.065 1.91 173.431 173.431 0 0 0-10.617 2.57 79.433 79.433 0 0 0-10.444 3.65 360.75 360.75 0 0 0-10.548 4.765c-3.7 1.74-7.24 3.479-10.617 5.218a274.377 274.377 0 0 1-9.927 4.868c-3.24 1.507-6.64 2.92-10.202 4.24-3.563 1.321-6.86 2.711-9.892 4.17-3.033 1.459-6.043 3.23-9.03 5.315a407.63 407.63 0 0 0-9.27 6.674 330.843 330.843 0 0 0-8.778 6.714 347.2 347.2 0 0 1-7.838 6.046 181.704 181.704 0 0 0-7.915 6.293c-2.71 2.274-5.326 4.987-7.846 8.137a426.359 426.359 0 0 0-7.044 9.038c-2.175 2.874-4.304 5.69-6.387 8.448-2.083 2.758-4.235 6.2-6.457 10.326-2.22 4.126-4.43 7.937-6.629 11.432a98.351 98.351 0 0 0-5.973 11.019 249.408 249.408 0 0 0-5.274 12.274c-1.732 4.333-3.444 8.202-5.136 11.608-1.692 3.405-3.358 7.46-4.998 12.164-1.64 4.704-3.26 8.854-4.86 12.449-1.599 3.595-2.989 7.594-4.168 11.996a330.655 330.655 0 0 0-3.013 12.06 214.849 214.849 0 0 0-2.08 10.184c-.558 3.15-1.01 6.741-1.355 10.772a679.106 679.106 0 0 0-.829 10.5c-.207 2.97-.345 5.764-.414 8.384-.07 2.62-.092 5.076-.07 7.367"/></g><clipPath id="g"><path transform="matrix(1 0 0 -1 0 768)" d="M206.176 57.788h356.828V240.41H206.176z"/></clipPath><g clip-path="url(#g)"><path stroke-width="22" stroke-linecap="round" stroke-linejoin="round" fill="none" stroke="#00b449" d="M229.176 687.213h.276c.139 0 .323-.011.553-.033.23-.021.601-.114 1.113-.278.513-.164 1.37-.456 2.573-.874 1.202-.419 2.995-1 5.377-1.742 2.382-.742 5.251-1.622 8.606-2.64 3.355-1.02 7.035-2.316 11.04-3.892a533.935 533.935 0 0 0 13.362-5.49 276.731 276.731 0 0 1 14.294-5.632c4.627-1.67 9.601-3.165 14.924-4.486 5.323-1.32 10.75-2.965 16.28-4.933a501.01 501.01 0 0 0 17.211-6.5 413.752 413.752 0 0 0 17.67-7.51 249.292 249.292 0 0 1 17.22-7.056 1962.396 1962.396 0 0 0 17.246-6.396c5.852-2.2 10.12-3.975 12.8-5.321a184.867 184.867 0 0 0 8.02-4.28c2.664-1.506 6.773-3.696 12.326-6.57 5.553-2.875 10.896-5.261 16.029-7.16a920.871 920.871 0 0 0 14.924-5.665c4.816-1.877 9.33-3.893 13.543-6.046a203.771 203.771 0 0 0 12.11-6.707c3.862-2.318 7.274-4.288 10.238-5.91a110.736 110.736 0 0 1 8.813-4.345 219.27 219.27 0 0 0 8.295-3.826c2.618-1.277 4.908-2.542 6.87-3.793a82.121 82.121 0 0 0 5.205-3.58 263.334 263.334 0 0 0 4.515-3.477 65.443 65.443 0 0 1 4.756-3.405 132.57 132.57 0 0 1 4.549-2.848c1.364-.812 2.474-1.438 3.332-1.878a42.6 42.6 0 0 1 1.838-.906c.368-.164.564-.246.587-.246h.035v-.033c0-.021.057-.101.172-.24.115-.137.253-.265.415-.381.16-.117.31-.244.448-.382.139-.138.254-.255.346-.35.092-.095.198-.222.32-.381.12-.16.25-.322.387-.486a1.86 1.86 0 0 1 .518-.42c.208-.117.38-.21.518-.28a1.47 1.47 0 0 1 .38-.135 8.59 8.59 0 0 1 .483-.071"/></g><clipPath id="h"><path transform="matrix(1 0 0 -1 0 768)" d="M211.666-42.673h475.031v261.797H211.666z"/></clipPath><g clip-path="url(#h)"><path stroke-width="22" stroke-linecap="round" stroke-linejoin="round" fill="none" stroke="#00b449" d="M663.628 572.497c0-.138.011-.276.034-.414.023-.138 0-.207-.069-.207s-.544.276-1.424.828l-4.264 2.674c-1.962 1.23-4.785 2.876-8.468 4.94-3.683 2.062-8.102 4.635-13.258 7.716a860.833 860.833 0 0 1-15.857 9.245c-5.415 3.081-11.534 6.048-18.36 8.901-6.824 2.853-14.506 6.597-23.046 11.232-8.54 4.635-17.761 9.223-27.665 13.763-9.903 4.54-20.442 9.87-31.618 15.99-11.175 6.12-23.113 11.973-35.813 17.558-12.7 5.584-26.039 11.911-40.016 18.98-13.978 7.07-28.53 14.694-43.66 22.873a16444.282 16444.282 0 0 1-46.61 25.098 4008.706 4008.706 0 0 1-48.494 25.585c-16.383 8.502-32.207 15.697-47.474 21.584"/></g><clipPath id="i"><path transform="matrix(1 0 0 -1 0 768)" d="M424.49-41.495h331.554V190.55H424.49z"/></clipPath><g clip-path="url(#i)"><path stroke-width="22" stroke-linecap="round" stroke-linejoin="round" fill="none" stroke="#00b449" d="M733.044 600.723v-.24c0-.021-.07-.032-.207-.032-.138 0-.438.23-.898.693-.46.461-1.165 1.202-2.115 2.22-.95 1.019-2.281 2.49-3.996 4.415-1.715 1.925-3.718 4.497-6.008 7.717-2.29 3.22-4.894 6.638-7.812 10.254-2.917 3.617-5.311 6.202-7.181 7.756a108.23 108.23 0 0 1-6.31 4.83c-2.336 1.665-6.005 4.678-11.005 9.037-5.001 4.359-10.612 8.543-16.832 12.553-6.22 4.009-12.977 8.538-20.267 13.588-7.292 5.05-15.077 9.998-23.358 14.844-8.28 4.847-17.096 10.317-26.447 16.411-9.351 6.094-19.266 11.923-29.745 17.486a1315.634 1315.634 0 0 0-32.792 18.043c-11.383 6.465-23.09 13.14-35.123 20.023-12.032 6.884-24.284 12.967-36.754 18.25"/></g><clipPath id="j"><path transform="matrix(1 0 0 -1 0 768)" d="M679.16-40.523h84.722v197.849H679.16z"/></clipPath><g clip-path="url(#j)"><path stroke-width="22" stroke-linecap="round" stroke-linejoin="round" fill="none" stroke="#00b449" d="M703.057 638.75c0-.829-.069-1.58-.207-2.253-.138-.673-.253-1.22-.345-1.638a7.512 7.512 0 0 0-.242-.906l-.103-.279v.072c0 .047.011.35.034.906.023.557.15 1.564.38 3.023s.518 3.87.863 7.231c.345 3.362.786 7.581 1.32 12.657a1227.46 1227.46 0 0 0 2.09 18.25c.857 7.09 2.002 14.632 3.435 22.625 1.433 7.993 3.225 16.243 5.378 24.75a206.724 206.724 0 0 0 8.157 25.24c3.285 8.322 6.64 16.086 10.064 23.293 3.424 7.208 5.447 11.31 6.068 12.307"/></g><clipPath id="k"><path transform="matrix(1 0 0 -1 0 768)" d="M591.634-44.2h56.272V92.664h-56.272z"/></clipPath><g clip-path="url(#k)"><path stroke-width="22" stroke-linecap="round" stroke-linejoin="round" fill="none" stroke="#00b449" d="M615.6 699.798c0-.372-.057-.64-.172-.803a9.45 9.45 0 0 0-.31-.421c-.093-.116-.185-.186-.277-.207-.092-.022-.15-.022-.172 0-.023.021-.035.555-.035 1.599v6.364c0 3.198.07 7.971.207 14.32.138 6.348.518 13.649 1.14 21.9a246.805 246.805 0 0 0 2.986 24.096c1.37 7.812 2.702 13.524 3.997 17.136"/></g></svg>