<svg xmlns="http://www.w3.org/2000/svg" width="1024pt" height="1024" viewBox="0 0 1024 768"><clipPath id="a"><path transform="matrix(1 0 0 -1 0 768)" d="M275.028 276.909h482.187v482.187H275.028z"/></clipPath><g clip-path="url(#a)"><path stroke-width="22.6" stroke-miterlimit="10" fill="none" stroke="#000" d="M516.122 20.204c126.915 0 229.793 102.879 229.793 229.794S643.037 479.791 516.122 479.791 286.328 376.913 286.328 249.998 389.207 20.204 516.122 20.204z"/></g><clipPath id="b"><path transform="matrix(1 0 0 -1 0 768)" d="M170.359-33.445h52.396v76.267h-52.396z"/></clipPath><g clip-path="url(#b)"><path stroke-width="22.6" stroke-linecap="round" stroke-linejoin="round" fill="none" stroke="#000" d="M198.257 748.778c.23 0 .415.01.553.032.138.022.23.08.276.175.046.095.07.339.07.732 0 .392-.093 1.145-.277 2.259-.184 1.113-.46 2.77-.829 4.972a716.452 716.452 0 0 1-1.251 7.231c-.466 2.62-.93 5.02-1.39 7.199-.46 2.18-.817 3.802-1.07 4.868"/></g><clipPath id="c"><path transform="matrix(1 0 0 -1 0 768)" d="M193.952 43.122h420.499v204.98H193.952z"/></clipPath><g clip-path="url(#c)"><path stroke-width="22.6" stroke-linecap="round" stroke-linejoin="round" fill="none" stroke="#000" d="m217.552 701.278 373.3-157.78"/></g><clipPath id="d"><path transform="matrix(1 0 0 -1 0 768)" d="M800.198-56.66h49.358v99.132h-49.358z"/></clipPath><g clip-path="url(#d)"><path stroke-width="22.6" stroke-linecap="round" stroke-linejoin="round" fill="none" stroke="#000" d="M825.956 749.127v3.995c0 .859-.012 2.065-.035 3.619-.023 1.553-.092 3.349-.207 5.386a137.252 137.252 0 0 1-.484 6.118 773.24 773.24 0 0 0-.586 6.014c-.185 1.968-.346 3.869-.484 5.703a118.59 118.59 0 0 0-.285 5.322 111.343 111.343 0 0 0-.043 4.965c.023 1.597.141 3.01.354 4.24.213 1.23.365 2.251.458 3.062.092.812.138 1.507.138 2.085 0 .578-.115.96-.346 1.146"/></g><clipPath id="e"><path transform="matrix(1 0 0 -1 0 768)" d="M426.968 482.663h66.276v123.658h-66.276z"/></clipPath><g clip-path="url(#e)"><path stroke-width="22.6" stroke-linecap="round" stroke-linejoin="round" fill="none" stroke="#000" d="M457.353 196.04h-1c-.273 0-.61.223-1.011.668-.402.445-.875 1.476-1.418 3.094-.544 1.617-1.079 4.169-1.604 7.654-.525 3.485-.936 7.27-1.233 11.353-.296 4.083-.457 7.804-.482 11.164-.025 3.36.074 6.545.297 9.553.222 3.007.559 5.744 1.01 8.21.451 2.466.912 4.495 1.381 6.09.47 1.594.943 2.924 1.418 3.99.476 1.066 1.023 1.95 1.641 2.649.618.7 1.24 1.087 1.863 1.161.624.074 1.233-.2 1.826-.82.594-.621 1.24-1.555 1.938-2.802a81.367 81.367 0 0 0 2.122-4.074 80.175 80.175 0 0 0 1.975-4.366 42.159 42.159 0 0 0 1.64-4.81c.495-1.766.878-3.845 1.15-6.236.272-2.392.457-4.918.556-7.578.099-2.66.16-5.26.185-7.8.025-2.54.037-5.043.037-7.508 0-2.466-.123-5.004-.37-7.613a80.156 80.156 0 0 0-1.076-7.578c-.47-2.442-.942-4.472-1.418-6.09-.476-1.617-.911-2.947-1.307-3.99a27.69 27.69 0 0 0-1.223-2.795c-.42-.82-.832-1.406-1.233-1.758-.402-.353-.776-.492-1.122-.418-.346.075-.754.624-1.223 1.648-.47 1.024-1.017 2.468-1.641 4.331-.624 1.863-1.245 4.053-1.863 6.57-.618 2.516-1.19 5.515-1.715 8.996-.525 3.48-.96 7.137-1.307 10.97-.346 3.833-.68 7.455-1.001 10.866-.321 3.41-.544 6.87-.667 10.38-.124 3.508-.112 6.543.037 9.106.148 2.563.568 4.406 1.26 5.527.692 1.122 1.375 2.044 2.049 2.767.673.723 1.331 1.307 1.974 1.752.643.445 1.276.704 1.9.779.624.074 1.261 0 1.91-.223.649-.222 1.294-.855 1.937-1.898s1.24-2.313 1.79-3.81a37.786 37.786 0 0 0 1.38-4.706c.371-1.64.643-3.332.816-5.075.173-1.743.272-3.448.297-5.117"/></g><clipPath id="f"><path transform="matrix(1 0 0 -1 0 768)" d="M175.637-39.818h675.718v290.515H175.637z"/></clipPath><g clip-path="url(#f)"><path stroke-width="22" stroke-linecap="round" stroke-linejoin="round" fill="none" stroke="#000" d="M199.466 755.207c0 .32-.035.572-.104.757-.069.186-.15.313-.241.382a.459.459 0 0 1-.277.104c-.092 0-.15-.114-.172-.343-.023-.229-.035-.727-.035-1.496 0-.768.115-1.812.345-3.133.23-1.32.507-2.827.83-4.519.321-1.691.67-3.452 1.044-5.282s.768-3.626 1.182-5.386a67.779 67.779 0 0 1 2.745-8.973 51.064 51.064 0 0 1 1.554-3.612 333.232 333.232 0 0 1 1.77-3.645 120.716 120.716 0 0 0 1.846-3.93c.605-1.346 1.229-2.749 1.873-4.208a97.458 97.458 0 0 1 2.012-4.272c.696-1.39 1.366-2.69 2.01-3.898a53.81 53.81 0 0 1 1.977-3.411 85.386 85.386 0 0 1 2.124-3.198 58.247 58.247 0 0 0 2.287-3.58 168.38 168.38 0 0 0 2.426-4.24 97.092 97.092 0 0 0 2.4-4.623 127.178 127.178 0 0 1 2.149-4.24c.667-1.252 1.326-2.48 1.976-3.684a80.381 80.381 0 0 1 2.055-3.58 95.271 95.271 0 0 1 2.218-3.476 343.4 343.4 0 0 0 2.495-3.788c.903-1.39 1.887-2.896 2.952-4.518a478.35 478.35 0 0 0 3.02-4.661 443.03 443.03 0 0 1 4.999-7.646 53.019 53.019 0 0 1 2.149-2.99c.72-.929 1.485-1.902 2.296-2.92a328.405 328.405 0 0 1 2.641-3.27 68.713 68.713 0 0 0 2.805-3.683 92.907 92.907 0 0 0 2.771-4.137 314.415 314.415 0 0 0 2.745-4.415 45.094 45.094 0 0 1 2.78-4.066 19.767 19.767 0 0 1 3.124-3.237 66.247 66.247 0 0 1 3.401-2.609 85.44 85.44 0 0 0 3.194-2.395 119.89 119.89 0 0 0 3.021-2.466 148.009 148.009 0 0 0 3.16-2.745 76.873 76.873 0 0 0 3.262-3.095 65.521 65.521 0 0 0 3.297-3.58 88.102 88.102 0 0 0 3.229-3.994 39.177 39.177 0 0 1 3.124-3.651 23.397 23.397 0 0 1 3.298-2.816 29.614 29.614 0 0 1 3.504-2.124c1.18-.604 2.348-1.23 3.505-1.877 1.156-.648 2.29-1.308 3.4-1.981a194.242 194.242 0 0 1 6.353-3.69 629.506 629.506 0 0 0 3.047-1.703c.99-.557 1.983-1.135 2.978-1.735.996-.6 2.13-1.247 3.401-1.942 1.272-.695 2.639-1.46 4.1-2.298a124.865 124.865 0 0 0 4.238-2.538 87.147 87.147 0 0 1 4.057-2.395 33.477 33.477 0 0 1 3.954-1.878c1.294-.509 2.543-.984 3.746-1.424 1.203-.44 2.466-.87 3.79-1.288a82.094 82.094 0 0 1 4.272-1.217c1.525-.393 3.096-.775 4.713-1.146 1.617-.371 3.248-.742 4.894-1.113a363.944 363.944 0 0 0 9.305-2.227c1.462-.372 2.943-.743 4.445-1.114a100.6 100.6 0 0 1 4.722-1.042c1.646-.324 3.323-.613 5.032-.868a243.65 243.65 0 0 0 5.032-.802c1.646-.281 3.231-.536 4.756-.764 1.525-.23 3.004-.46 4.437-.693 1.433-.233 2.95-.477 4.55-.732 1.599-.254 3.31-.533 5.135-.835a692.6 692.6 0 0 1 5.62-.906c1.921-.302 3.797-.602 5.627-.9a286.99 286.99 0 0 1 5.412-.829c1.778-.254 3.502-.522 5.17-.802 1.67-.28 3.439-.548 5.31-.803l5.825-.796c2.014-.277 3.89-.531 5.628-.764 1.738-.233 3.427-.443 5.067-.628 1.64-.186 3.283-.382 4.929-.59a90.23 90.23 0 0 1 4.963-.485c1.663-.116 3.444-.233 5.343-.35 1.9-.116 3.74-.232 5.524-.35 1.784-.116 3.404-.232 4.86-.349 1.456-.116 2.9-.22 4.333-.31 1.433-.091 2.854-.16 4.264-.207 1.41-.048 2.846-.083 4.307-.104 1.462-.022 3.013-.032 4.653-.032 1.64 0 3.306-.037 4.998-.11a99.491 99.491 0 0 0 4.79-.318c1.502-.138 2.981-.3 4.437-.485a135.13 135.13 0 0 1 4.376-.486 71.425 71.425 0 0 1 4.273-.278c1.387-.048 2.9-.093 4.54-.136 1.64-.043 3.34-.112 5.102-.207a234.502 234.502 0 0 0 9.512-.7c1.484-.138 2.955-.265 4.41-.381a792.57 792.57 0 0 0 4.23-.35 61.918 61.918 0 0 1 4.41-.207c1.578-.022 3.21-.067 4.895-.136 1.686-.07 3.26-.127 4.722-.175a251.848 251.848 0 0 1 8.467-.136H592.486c1.484 0 2.896.011 4.237.033 1.341.021 2.693.08 4.057.174 1.364.095 2.74.188 4.126.279 1.387.09 2.8.205 4.238.343 1.439.138 2.99.265 4.653.382 1.663.116 3.271.222 4.825.317 1.554.095 3.012.188 4.376.278 1.364.09 2.74.205 4.126.343 1.387.139 2.762.324 4.126.557 1.364.233 2.716.5 4.057.803 1.34.302 2.8.626 4.376.971 1.577.345 3.15.682 4.722 1.01 1.57.328 3.015.64 4.333.939 1.318.297 2.615.61 3.893.938 1.277.328 2.506.63 3.686.907a85.71 85.71 0 0 1 3.4.867c1.088.302 2.21.615 3.367.939 1.157.324 2.348.636 3.573.939 1.226.302 2.44.59 3.643.867 1.203.276 2.382.576 3.539.9 1.157.324 2.279.671 3.366 1.042 1.088.371 2.141.732 3.16 1.081 1.018.35 2.048.687 3.09 1.01 1.041.324 2.048.648 3.02.971l2.91.971a47.35 47.35 0 0 1 3.047 1.146c1.064.44 2.212.894 3.444 1.36a235.216 235.216 0 0 1 7.259 2.887c1.157.483 2.256.98 3.297 1.489a39.96 39.96 0 0 1 2.91 1.567 39.665 39.665 0 0 1 2.666 1.741c.88.626 1.773 1.334 2.676 2.123.904.79 1.807 1.625 2.71 2.506.904.88 1.842 1.782 2.814 2.706a55.396 55.396 0 0 0 3.125 2.745 45.868 45.868 0 0 0 3.367 2.505c1.133.764 2.267 1.552 3.4 2.363a60.22 60.22 0 0 1 3.263 2.505c1.042.86 2.049 1.694 3.021 2.506a544.31 544.31 0 0 0 2.978 2.466c1.013.833 2.04 1.666 3.082 2.5a36.137 36.137 0 0 1 3.02 2.712 74.914 74.914 0 0 1 3.056 3.269 592.852 592.852 0 0 1 3.436 3.923 172.057 172.057 0 0 0 3.642 4.066 223.88 223.88 0 0 1 3.436 3.793 830.242 830.242 0 0 0 3.09 3.477c.973 1.087 1.9 2.13 2.78 3.126l2.64 2.991c.881.997 1.75 2.074 2.608 3.23a40.527 40.527 0 0 1 2.529 3.891 96.02 96.02 0 0 1 2.46 4.558 96.21 96.21 0 0 0 5.075 8.837 189.08 189.08 0 0 0 2.667 3.994c.921 1.342 1.822 2.698 2.702 4.066a39.766 39.766 0 0 1 2.434 4.382 59.807 59.807 0 0 1 2.158 5.18 91.154 91.154 0 0 1 1.908 5.8c.575 1.968 1.13 3.567 1.666 4.797a37.4 37.4 0 0 0 1.77 3.548 59.435 59.435 0 0 1 1.838 3.508 43.392 43.392 0 0 1 1.562 3.652c.46 1.23.898 2.587 1.312 4.072.414 1.484.82 3.036 1.217 4.654.397 1.619.814 3.229 1.252 4.83.437 1.601.889 3.12 1.355 4.557a160.978 160.978 0 0 0 2.84 8.034c.506 1.32.992 2.687 1.459 4.098.466 1.411.94 2.918 1.424 4.519.483 1.601.992 3.19 1.528 4.765.535 1.575 1.033 3.034 1.493 4.376.46 1.342.912 2.617 1.355 3.826.443 1.208.895 2.425 1.355 3.651.46 1.226.933 2.581 1.416 4.066a38.371 38.371 0 0 1 1.182 4.59c.305 1.575.642 3.174 1.01 4.797.369 1.622.714 3.21 1.036 4.764.322 1.554.625 2.92.906 4.098.282 1.178.55 2.29.803 3.334.253 1.045.53 2.1.829 3.166.3 1.066.61 2.236.932 3.509.322 1.273.636 2.745.94 4.415.306 1.67.596 3.42.873 5.25.276 1.83.54 3.44.794 4.83.253 1.39.518 2.479.794 3.269s.532 1.405.768 1.845c.236.44.389.777.458 1.01.069.233.103.36.103.382"/></g><clipPath id="g"><path transform="matrix(1 0 0 -1 0 768)" d="M181.61-74.79h539.527v297.96H181.61z"/></clipPath><g clip-path="url(#g)"><path stroke-width="22" stroke-linecap="round" stroke-linejoin="round" fill="none" stroke="#000" d="M697.93 567.83c0 .138.023.254.07.35.045.094.08.176.103.245a.572.572 0 0 1 .034.175v.175c0 .069-.069.138-.207.207-.138.07-.394.22-.768.453s-.907.591-1.597 1.075c-.69.483-1.64 1.165-2.849 2.046-1.208.88-2.724 1.993-4.548 3.34a250.768 250.768 0 0 1-6.414 4.558 127.287 127.287 0 0 1-7.88 5.004 235.484 235.484 0 0 1-9.064 5.036c-3.24 1.714-6.583 3.764-10.03 6.15a959.463 959.463 0 0 0-11.592 8.17c-4.282 3.06-8.966 5.924-14.053 8.591-5.087 2.667-10.732 5.483-16.935 8.448-6.204 2.965-12.764 6.627-19.68 10.986-6.917 4.36-14.286 8.324-22.106 11.893-7.82 3.569-16.127 7.913-24.92 13.032a359.37 359.37 0 0 1-27.242 14.32c-9.368 4.428-18.9 9.469-28.597 15.122a306.111 306.111 0 0 1-29.779 15.259c-10.157 4.519-20.454 9.676-30.893 15.472a379.24 379.24 0 0 1-31.825 15.783c-10.778 4.726-21.697 9.998-32.757 15.816a871.181 871.181 0 0 1-33.983 16.929 2510.905 2510.905 0 0 1-33.56 15.537c-10.779 4.89-20.935 9.49-30.47 13.802a1145.307 1145.307 0 0 1-27.182 11.892c-8.585 3.617-16.498 6.537-23.737 8.76"/></g><clipPath id="h"><path transform="matrix(1 0 0 -1 0 768)" d="M471.688-79.45h295.249v272.375H471.688z"/></clipPath><g clip-path="url(#h)"><path stroke-width="22" stroke-linecap="round" stroke-linejoin="round" fill="none" stroke="#000" d="M743.937 598.075v.207c0 .095-.058.236-.173.421-.115.186-.322.51-.621.971-.3.462-.751 1.204-1.355 2.227s-1.424 2.415-2.46 4.176c-1.036 1.76-2.342 3.822-3.919 6.182-1.577 2.361-3.51 5.037-5.8 8.028-2.29 2.99-4.918 6.584-7.881 10.779A245.097 245.097 0 0 1 712.5 643.3c-3.188 3.962-6.922 8.47-11.204 13.524-4.28 5.054-9.198 10.315-14.751 15.783a3022.525 3022.525 0 0 0-18.429 18.32 362.725 362.725 0 0 1-21.346 19.713c-7.498 6.396-15.494 12.758-23.988 19.085a1205.873 1205.873 0 0 0-26.31 20.192 2964.81 2964.81 0 0 1-27.206 21.201c-9.092 7-17.943 13.513-26.551 19.538a769.226 769.226 0 0 0-24.748 18.043c-7.889 6.003-13.741 10.13-17.556 12.378"/></g><clipPath id="i"><path transform="matrix(1 0 0 -1 0 768)" d="M687.135-49.969H792.28v182.273H687.135z"/></clipPath><g clip-path="url(#i)"><path stroke-width="22" stroke-linecap="round" stroke-linejoin="round" fill="none" stroke="#000" d="M711.948 659.887c-.23-.371-.463-.639-.7-.803-.235-.164-.434-.27-.595-.317a1.44 1.44 0 0 0-.38-.071c-.092 0-.138.257-.138.77 0 .514.127 1.442.38 2.784.253 1.342.705 3.148 1.355 5.418s1.588 5.272 2.814 9.005c1.226 3.734 2.903 8.682 5.033 14.845 2.129 6.163 4.548 12.617 7.259 19.363 2.71 6.746 5.268 13.165 7.673 19.26a2403.6 2403.6 0 0 1 7.355 18.87c2.497 6.487 5.274 12.305 8.33 17.454a640.44 640.44 0 0 0 8.536 14.01c2.635 4.19 4.891 7.457 6.767 9.8 1.876 2.344 2.952 3.712 3.229 4.105"/></g><clipPath id="j"><path transform="matrix(1 0 0 -1 0 768)" d="M617.098-60.184h96.875V67.436h-96.875z"/></clipPath><g clip-path="url(#j)"><path stroke-width="22" stroke-linecap="round" stroke-linejoin="round" fill="none" stroke="#000" d="M642.255 723.77a17.497 17.497 0 0 0-1.355-.168c-.35-.026-.572.125-.664.453-.092.328.336 1.545 1.286 3.651s2.929 6.08 5.938 11.919c3.01 5.839 6.56 12.27 10.652 19.291 4.091 7.022 8.163 13.455 12.214 19.299 4.051 5.843 7.466 10.293 10.246 13.349 2.78 3.055 5.207 6.09 7.285 9.102"/></g><clipPath id="k"><path transform="matrix(1 0 0 -1 0 768)" d="M321.223 487.672h66.276V611.33h-66.276z"/></clipPath><g clip-path="url(#k)"><path stroke-width="22.6" stroke-linecap="round" stroke-linejoin="round" fill="none" stroke="#000" d="M351.608 191.031h-1.001c-.272 0-.609.223-1.01.668-.402.445-.875 1.476-1.419 3.094-.544 1.617-1.078 4.168-1.603 7.654-.526 3.485-.937 7.27-1.233 11.352-.297 4.083-.458 7.805-.482 11.165-.025 3.36.074 6.544.296 9.552.223 3.008.56 5.745 1.01 8.21.452 2.466.912 4.496 1.382 6.09.47 1.595.942 2.925 1.418 3.99.476 1.067 1.023 1.95 1.64 2.65.619.7 1.24 1.086 1.864 1.16.624.075 1.233-.199 1.826-.82.593-.62 1.239-1.555 1.937-2.801a81.407 81.407 0 0 0 2.123-4.074 80.177 80.177 0 0 0 1.974-4.366 42.16 42.16 0 0 0 1.64-4.81c.495-1.767.878-3.845 1.15-6.237.272-2.391.458-4.917.556-7.577.1-2.66.161-5.26.186-7.8.025-2.54.037-5.043.037-7.509 0-2.465-.124-5.003-.37-7.612a80.143 80.143 0 0 0-1.076-7.578c-.47-2.442-.942-4.472-1.418-6.09-.476-1.617-.912-2.948-1.307-3.99a27.694 27.694 0 0 0-1.224-2.795c-.42-.82-.831-1.407-1.233-1.759-.401-.352-.775-.491-1.121-.417-.346.074-.754.623-1.224 1.648-.47 1.024-1.016 2.468-1.64 4.33-.625 1.864-1.246 4.054-1.864 6.57-.618 2.517-1.19 5.516-1.714 8.996-.526 3.48-.961 7.138-1.307 10.97-.346 3.833-.68 7.455-1.002 10.866-.32 3.412-.543 6.871-.667 10.38-.123 3.508-.111 6.544.037 9.107.149 2.563.569 4.405 1.26 5.527.693 1.121 1.376 2.044 2.05 2.767.673.723 1.331 1.307 1.974 1.752.642.444 1.276.704 1.9.778.624.074 1.26 0 1.91-.222.648-.223 1.294-.855 1.937-1.898.642-1.043 1.239-2.313 1.789-3.81a37.787 37.787 0 0 0 1.38-4.706c.372-1.641.644-3.333.817-5.075.173-1.743.271-3.448.296-5.117"/></g></svg>