<svg xmlns="http://www.w3.org/2000/svg" width="1024pt" height="1024" viewBox="0 0 1024 768"><clipPath id="a"><path transform="matrix(1 0 0 -1 0 768)" d="M275.028 276.909h482.187v482.187H275.028z"/></clipPath><g clip-path="url(#a)"><path stroke-width="22.6" stroke-miterlimit="10" fill="none" stroke="#00b449" d="M516.122 20.204c126.915 0 229.793 102.879 229.793 229.794S643.037 479.791 516.122 479.791 286.328 376.913 286.328 249.998 389.207 20.204 516.122 20.204z"/></g><clipPath id="b"><path transform="matrix(1 0 0 -1 0 768)" d="M175.141-12.904h674.138v256.472H175.141z"/></clipPath><g clip-path="url(#b)"><path stroke-width="22.6" stroke-linecap="round" stroke-linejoin="round" fill="none" stroke="#00b449" d="M198.74 751.335c.047.457.104.734.173.829.07.095.15.142.242.142s.219-.047.38-.142c.161-.095.36-.387.596-.874.235-.488.515-1.138.837-1.949l1.14-2.88c.437-1.11.992-2.407 1.665-3.892a247.648 247.648 0 0 1 2.365-5.043 229.613 229.613 0 0 1 2.918-5.839 214.957 214.957 0 0 1 3.332-6.189c1.18-2.11 2.313-4.022 3.4-5.736a130.35 130.35 0 0 1 3.16-4.758 177.837 177.837 0 0 0 2.874-4.24c.898-1.368 1.775-2.76 2.633-4.176.857-1.415 1.76-2.99 2.71-4.726.95-1.735 1.934-3.565 2.952-5.49a77.294 77.294 0 0 1 3.125-5.392 51.33 51.33 0 0 1 3.366-4.694 92.447 92.447 0 0 1 3.746-4.344 449.66 449.66 0 0 0 4.023-4.447c1.363-1.528 2.719-3.265 4.065-5.211 1.347-1.947 2.69-3.94 4.031-5.982 1.341-2.042 2.659-3.84 3.954-5.393a45.206 45.206 0 0 1 3.918-4.169 567.447 567.447 0 0 1 3.885-3.58 121.792 121.792 0 0 1 4.03-3.515 196.456 196.456 0 0 0 4.584-3.962 79.614 79.614 0 0 0 4.713-4.551 145.903 145.903 0 0 1 4.273-4.312 51.914 51.914 0 0 1 4.065-3.547 40.934 40.934 0 0 1 4.126-2.849c1.387-.833 2.82-1.666 4.299-2.499 1.479-.833 3.145-1.76 4.998-2.784a126.006 126.006 0 0 0 5.524-3.236 94.56 94.56 0 0 0 5.17-3.438 462.996 462.996 0 0 1 5.033-3.548 103.995 103.995 0 0 1 5.343-3.476 77.865 77.865 0 0 1 5.826-3.198 124.38 124.38 0 0 1 6.422-2.959c2.221-.95 4.316-1.806 6.284-2.57a535.227 535.227 0 0 1 5.731-2.188 247.039 247.039 0 0 0 5.792-2.26 206.419 206.419 0 0 1 6.733-2.57c2.48-.901 4.877-1.84 7.19-2.815a490.538 490.538 0 0 0 6.871-2.959 220.382 220.382 0 0 0 6.87-3.166 214.343 214.343 0 0 1 7.286-3.334 437.465 437.465 0 0 0 7.527-3.366 277.522 277.522 0 0 1 7.328-3.237 92.894 92.894 0 0 1 7.19-2.712 137.328 137.328 0 0 1 7.63-2.26 274.64 274.64 0 0 0 7.77-2.188c2.474-.738 4.799-1.444 6.974-2.117s4.362-1.299 6.56-1.877a114.282 114.282 0 0 1 7.017-1.6c2.48-.487 4.82-.93 7.018-1.326 2.198-.397 4.394-.792 6.586-1.185s4.437-.751 6.733-1.075c2.296-.323 4.727-.66 7.294-1.01 2.566-.35 5.098-.697 7.595-1.042 2.498-.345 4.938-.669 7.32-.97a92.86 92.86 0 0 1 7.147-.629c2.383-.116 4.94-.185 7.674-.207 2.733-.022 5.395-.032 7.984-.032h7.354c2.314 0 4.722-.07 7.225-.208 2.503-.138 5.061-.323 7.674-.556a5972.5 5972.5 0 0 0 7.354-.66c2.29-.208 4.592-.462 6.905-.765 2.314-.302 4.777-.662 7.39-1.08a584.06 584.06 0 0 1 7.949-1.218 305.31 305.31 0 0 1 7.812-1.042c2.52-.302 5.029-.557 7.526-.764 2.498-.207 5.102-.393 7.812-.557 2.71-.164 5.395-.326 8.053-.485a666.033 666.033 0 0 1 14.64-.732c2.428-.095 4.963-.188 7.604-.278 2.642-.09 5.13-.149 7.467-.175 2.336-.026 4.673-.039 7.009-.039h7.009c2.336 0 4.718.106 7.147.317a83.92 83.92 0 0 1 7.043.907c2.268.393 4.42.844 6.457 1.353s3.993 1.031 5.87 1.566c1.875.536 3.924 1.082 6.145 1.638 2.221.557 4.397 1.135 6.526 1.735a73.86 73.86 0 0 1 5.964 1.942c1.847.695 3.686 1.448 5.516 2.26 1.83.811 3.637 1.657 5.42 2.537a863.22 863.22 0 0 1 10.997 5.53c1.853.949 3.623 1.898 5.309 2.848a98.466 98.466 0 0 1 4.86 2.92 48.346 48.346 0 0 1 4.652 3.411 79.168 79.168 0 0 1 4.687 4.208 251.387 251.387 0 0 0 4.86 4.583c1.663 1.528 3.34 3.01 5.032 4.448a135.434 135.434 0 0 0 4.929 4 208.397 208.397 0 0 0 4.54 3.412c1.433 1.045 2.857 2.087 4.273 3.127a96.326 96.326 0 0 1 4.272 3.334 66.752 66.752 0 0 1 4.368 3.962 62.647 62.647 0 0 1 4.342 4.765 140.408 140.408 0 0 1 3.996 5.075 66.89 66.89 0 0 0 3.816 4.655 83.988 83.988 0 0 0 3.953 4.104c1.34 1.3 2.693 2.644 4.057 4.033a68.008 68.008 0 0 1 4.065 4.552 104.38 104.38 0 0 1 4.135 5.425c1.41 1.972 2.75 3.966 4.022 5.981a785.227 785.227 0 0 0 3.54 5.561 199.114 199.114 0 0 0 3.227 4.869 101.297 101.297 0 0 1 3.229 5.043c1.087 1.808 2.152 3.906 3.194 6.292a423.6 423.6 0 0 1 3.159 7.439c1.064 2.572 2.106 4.9 3.124 6.985a281.603 281.603 0 0 0 2.84 5.664 44.545 44.545 0 0 1 2.357 5.458 48.605 48.605 0 0 1 1.735 6.117c.46 2.133.889 4.206 1.286 6.222.397 2.015.86 3.951 1.39 5.807a58.044 58.044 0 0 0 1.838 5.425c.696 1.76 1.462 3.58 2.296 5.457.835 1.878 1.62 3.742 2.357 5.594a56.031 56.031 0 0 1 1.804 5.211c.466 1.623.78 3.187.94 4.693.162 1.507.265 3.037.311 4.59.046 1.554.07 3.108.07 4.661v4.416c0 1.39.034 2.593.103 3.612"/></g><clipPath id="c"><path transform="matrix(1 0 0 -1 0 768)" d="M170.359-33.445h52.396v76.267h-52.396z"/></clipPath><g clip-path="url(#c)"><path stroke-width="22.6" stroke-linecap="round" stroke-linejoin="round" fill="none" stroke="#00b449" d="M198.257 748.778c.23 0 .415.01.553.032.138.022.23.08.276.175.046.095.07.339.07.732 0 .392-.093 1.145-.277 2.259-.184 1.113-.46 2.77-.829 4.972a716.452 716.452 0 0 1-1.251 7.231c-.466 2.62-.93 5.02-1.39 7.199-.46 2.18-.817 3.802-1.07 4.868"/></g><clipPath id="d"><path transform="matrix(1 0 0 -1 0 768)" d="M205.058 39.424h377.674V237.01H205.058z"/></clipPath><g clip-path="url(#d)"><path stroke-width="22.6" stroke-linecap="round" stroke-linejoin="round" fill="none" stroke="#00b449" d="M228.658 704.976 559.132 554.59"/></g><clipPath id="e"><path transform="matrix(1 0 0 -1 0 768)" d="M263.443-66.954h456.585V217.68H263.443z"/></clipPath><g clip-path="url(#e)"><path stroke-width="22.6" stroke-linecap="round" stroke-linejoin="round" fill="none" stroke="#00b449" d="M696.428 573.921v.524c0 .117-.011.244-.034.382-.023.138-.115.3-.277.486a13.6 13.6 0 0 1-.587.628c-.23.233-.495.466-.794.699-.299.233-.659.522-1.079.867-.42.346-.929.75-1.528 1.211a34.165 34.165 0 0 0-1.942 1.631 79.251 79.251 0 0 0-2.192 2.053 67.693 67.693 0 0 0-2.288 2.33 97.012 97.012 0 0 1-2.287 2.363c-.765.764-1.565 1.575-2.4 2.434-.834.86-1.703 1.729-2.606 2.61a50.917 50.917 0 0 1-2.806 2.537 51.745 51.745 0 0 1-3.15 2.434 48.903 48.903 0 0 1-3.72 2.402 98.035 98.035 0 0 1-4.135 2.292c-1.41.738-2.843 1.525-4.299 2.363a151.415 151.415 0 0 0-4.583 2.75c-1.6.998-3.197 2.05-4.79 3.16a221.418 221.418 0 0 0-4.895 3.509 154.186 154.186 0 0 1-5.067 3.58 390.702 390.702 0 0 1-5.067 3.373 635.055 635.055 0 0 1-4.997 3.237 182.326 182.326 0 0 1-5.24 3.23 234.901 234.901 0 0 1-5.938 3.405c-2.13 1.183-4.58 2.54-7.355 4.072-2.773 1.532-5.745 3.399-8.916 5.6-3.17 2.201-6.549 4.54-10.134 7.018-3.585 2.477-7.54 4.805-11.868 6.985-4.328 2.18-8.713 4.428-13.155 6.746-4.442 2.317-9.28 5.179-14.51 8.584a690.303 690.303 0 0 1-15.2 9.626 187 187 0 0 1-15.028 8.313c-5.116 2.529-10.439 5.578-15.969 9.147a499.93 499.93 0 0 1-17.004 10.494 286.986 286.986 0 0 1-17.247 9.42 171.254 171.254 0 0 0-16.417 9.386 257.827 257.827 0 0 1-15.762 9.452 454.18 454.18 0 0 1-14.993 7.924 732.841 732.841 0 0 0-15.2 7.892 380.483 380.483 0 0 0-15.511 8.726 154.46 154.46 0 0 1-14.994 7.86c-5.046 2.295-9.94 4.533-14.682 6.713a535.165 535.165 0 0 0-14.19 6.778c-4.72 2.339-9 4.482-12.845 6.428a115.847 115.847 0 0 1-11.489 5.076 573.878 573.878 0 0 0-9.995 3.858 194.86 194.86 0 0 0-8.26 3.509 188.95 188.95 0 0 0-8.572 4.169 376.9 376.9 0 0 0-8.399 4.454 650.95 650.95 0 0 1-4.402 2.402"/></g><clipPath id="f"><path transform="matrix(1 0 0 -1 0 768)" d="M529.973-44.84h265.514v191.048H529.973z"/></clipPath><g clip-path="url(#f)"><path stroke-width="22.6" stroke-linecap="round" stroke-linejoin="round" fill="none" stroke="#00b449" d="M771.887 645.392c-.369 1.07-.774 1.905-1.217 2.505-.444.6-1.01 1.318-1.7 2.156a62.927 62.927 0 0 1-2.53 2.855c-.996 1.066-2.14 2.259-3.435 3.58a106.51 106.51 0 0 1-4.515 4.311 1334.67 1334.67 0 0 0-5.904 5.386c-2.221 2.037-4.615 4.4-7.182 7.09a105.224 105.224 0 0 1-8.398 7.858c-3.033 2.551-6.422 4.903-10.168 7.057-3.746 2.153-7.61 4.691-11.593 7.613a391.333 391.333 0 0 0-12.257 9.387c-4.189 3.336-8.459 6.208-12.81 8.617-4.35 2.408-8.838 4.898-13.465 7.47-4.626 2.572-9.75 5.598-15.373 9.077-5.622 3.478-11.6 6.793-17.936 9.943a409.853 409.853 0 0 0-19.396 10.326 598.09 598.09 0 0 0-19.68 11.646c-6.526 4.031-12.485 7.216-17.876 9.556-5.392 2.339-10.218 4.609-14.476 6.81a205.845 205.845 0 0 0-12.395 6.953"/></g><clipPath id="g"><path transform="matrix(1 0 0 -1 0 768)" d="M670.688-49.565h112.093V66.736H670.688z"/></clipPath><g clip-path="url(#g)"><path stroke-width="22.6" stroke-linecap="round" stroke-linejoin="round" fill="none" stroke="#00b449" d="M694.77 726.806c0-.086-.034-.2-.103-.343-.069-.143-.138-.283-.207-.421a1.465 1.465 0 0 1-.138-.414 2.518 2.518 0 0 1-.034-.415c0-.138.034-.23.103-.278.07-.048.472.173 1.209.66.736.488 1.95 1.74 3.642 3.755a585.35 585.35 0 0 1 6.664 8.131 322.678 322.678 0 0 0 8.33 9.905 380.889 380.889 0 0 1 8.329 9.84 201.87 201.87 0 0 0 8.019 9.251c2.595 2.806 5.05 5.261 7.363 7.367a204.771 204.771 0 0 1 6.31 5.976 131.452 131.452 0 0 1 5.273 5.528c1.623 1.809 3.174 3.373 4.653 4.694 1.479 1.32 2.682 2.304 3.608 2.952"/></g><clipPath id="h"><path transform="matrix(1 0 0 -1 0 768)" d="M600.857-37.2h53.087v73.548h-53.087z"/></clipPath><g clip-path="url(#h)"><path stroke-width="22.6" stroke-linecap="round" stroke-linejoin="round" fill="none" stroke="#00b449" d="M624.457 755.252c.046.043.126.11.242.2.115.091.218.207.31.35.092.142.161.328.207.557.047.228.081.541.104.938.023.397.07.943.138 1.638.07.695.242 1.575.518 2.642.276 1.066.59 2.304.941 3.715.351 1.412.653 2.849.906 4.312.254 1.463.438 2.773.553 3.93.115 1.156.218 2.175.31 3.055.092.88.196 1.623.311 2.227.115.604.253 1.055.415 1.353.16.298.322.563.483.797.161.233.276.397.345.492"/></g><clipPath id="i"><path transform="matrix(1 0 0 -1 0 768)" d="M800.198-56.66h49.358v99.132h-49.358z"/></clipPath><g clip-path="url(#i)"><path stroke-width="22.6" stroke-linecap="round" stroke-linejoin="round" fill="none" stroke="#00b449" d="M825.956 749.127v3.995c0 .859-.012 2.065-.035 3.619-.023 1.553-.092 3.349-.207 5.386a137.252 137.252 0 0 1-.484 6.118 773.24 773.24 0 0 0-.586 6.014c-.185 1.968-.346 3.869-.484 5.703a118.59 118.59 0 0 0-.285 5.322 111.343 111.343 0 0 0-.043 4.965c.023 1.597.141 3.01.354 4.24.213 1.23.365 2.251.458 3.062.092.812.138 1.507.138 2.085 0 .578-.115.96-.346 1.146"/></g><clipPath id="j"><path transform="matrix(1 0 0 -1 0 768)" d="M346.739 406.118h52.742V484.6h-52.742z"/></clipPath><g clip-path="url(#j)"><path stroke-width="22.6" stroke-linecap="round" stroke-linejoin="round" fill="none" stroke="#00b449" d="M374.5 316.167c0-.086-.046-.28-.138-.582a43.151 43.151 0 0 0-.277-.874 8.784 8.784 0 0 1-.241-.907 9.428 9.428 0 0 0-.25-.938 4.938 4.938 0 0 0-.354-.836c-.139-.254-.311-.438-.518-.55a1.042 1.042 0 0 0-.69-.103c-.254.043-.507.446-.76 1.21-.254.764-.46 1.9-.622 3.405-.161 1.507-.253 3.362-.276 5.568-.023 2.205-.035 4.56-.035 7.063s.173 4.6.518 6.292c.345 1.692.76 2.676 1.243 2.952.483.276.958-.06 1.424-1.01.466-.95.884-2.445 1.252-4.486s.633-4.37.794-6.985c.161-2.616.253-5.06.276-7.335.023-2.274.023-4.258 0-5.95-.023-1.691-.08-2.908-.172-3.65-.092-.743-.138-1.17-.138-1.282"/></g><clipPath id="k"><path transform="matrix(1 0 0 -1 0 768)" d="M451.131 377.686h56.229v79.879h-56.229z"/></clipPath><g clip-path="url(#k)"><path stroke-width="22.6" stroke-linecap="round" stroke-linejoin="round" fill="none" stroke="#00b449" d="m476.527 334.527-.173.071c-.115.048-.242.175-.38.382-.138.207-.265.555-.38 1.042-.115.488-.23 1.207-.345 2.156-.115.95-.219 2.12-.31 3.509-.093 1.39-.15 2.93-.173 4.622a422.887 422.887 0 0 0-.035 5.703c0 2.111.196 4.267.587 6.468.391 2.2.912 3.973 1.563 5.315.65 1.342 1.343 2.164 2.08 2.466.736.302 1.453.223 2.15-.24.695-.461 1.262-1.376 1.7-2.744.437-1.368.704-3.187.802-5.457.098-2.27.098-4.67 0-7.2-.098-2.528-.32-4.812-.664-6.849a133.435 133.435 0 0 0-.967-5.179c-.3-1.415-.553-2.457-.76-3.126-.207-.67-.44-1.075-.699-1.218-.259-.142-.446-.19-.561-.142"/></g><clipPath id="l"><path transform="matrix(1 0 0 -1 0 768)" d="M342.562 372.27h64.981v123.603h-64.981z"/></clipPath><g clip-path="url(#l)"><path stroke-width="22.6" stroke-linecap="round" stroke-linejoin="round" fill="none" stroke="#00b449" d="M371.79 296.698c-.047-.372-.139-.626-.277-.764a.662.662 0 0 0-.483-.207c-.184 0-.394.209-.63.627-.236.42-.48 1.08-.734 1.981-.253.903-.53 2.107-.829 3.613-.299 1.506-.633 3.51-1 6.014-.37 2.503-.706 5.818-1.01 9.944a217.175 217.175 0 0 0-.562 12.378c-.069 4.126-.034 7.915.104 11.368.138 3.452.509 6.998 1.113 10.636.604 3.638 1.232 6.744 1.882 9.316.65 2.572 1.228 4.495 1.735 5.768.506 1.273.967 2.257 1.38 2.952.415.695.832 1.17 1.252 1.424.42.255.85.348 1.287.279.437-.07.946-.51 1.527-1.321.582-.811 1.195-1.888 1.839-3.23a61.68 61.68 0 0 0 1.908-4.448c.627-1.623 1.217-3.455 1.77-5.496.552-2.042 1.003-4.36 1.354-6.953.351-2.594.527-5.373.527-8.338 0-2.965-.199-5.85-.596-8.656a279.31 279.31 0 0 1-1.044-8.24c-.3-2.69-.541-5.448-.725-8.274-.184-2.827-.415-5.296-.69-7.406-.277-2.11-.59-3.803-.942-5.076-.35-1.273-.722-2.34-1.113-3.198a164.122 164.122 0 0 1-1.554-3.509c-.138-.323-.219-.52-.242-.589l-.034-.103"/></g><clipPath id="m"><path transform="matrix(1 0 0 -1 0 768)" d="M441.826 347.721h62.824v129.521h-62.824z"/></clipPath><g clip-path="url(#m)"><path stroke-width="22.6" stroke-linecap="round" stroke-linejoin="round" fill="none" stroke="#00b449" d="M474.731 321.868c-.368.414-.75.865-1.148 1.353-.397.487-1.059 1.728-1.985 3.722-.927 1.994-1.482 3.246-1.666 3.755-.184.51-.599 1.877-1.243 4.104-.644 2.227-1.177 4.834-1.597 7.82-.42 2.987-.722 6.207-.906 9.66a858.662 858.662 0 0 0-.449 9.25 298.457 298.457 0 0 0-.276 15.783c.023 2.759.253 5.18.69 7.264.438 2.085.947 3.846 1.528 5.283.581 1.437 1.209 2.643 1.882 3.619.673.975 1.343 1.683 2.011 2.123.668.44 1.257.73 1.77.868.512.138.929.207 1.251.207.322 0 .564-.059.725-.175.161-.117.345-.406.553-.868.207-.461.437-1.132.69-2.013.253-.88.532-1.98.837-3.302.305-1.32.63-3.025.976-5.114.345-2.089.667-4.812.967-8.17.299-3.357.543-7.006.733-10.947.19-3.94.343-7.777.458-11.51.115-3.733.218-7.175.31-10.326.093-3.15.15-5.723.173-7.717.023-1.994-.011-3.627-.103-4.9a17.287 17.287 0 0 0-.665-3.684 85.047 85.047 0 0 1-1.01-3.722 50.732 50.732 0 0 1-.76-3.548 131.942 131.942 0 0 1-.448-2.745 90.627 90.627 0 0 0-.311-1.942c-.092-.53-.161-.913-.207-1.146a2.55 2.55 0 0 0-.104-.42c-.023-.048-.08-.003-.173.135-.092.138-.21.462-.353.971-.144.51-.32 1.114-.527 1.813-.207.7-.437 1.407-.69 2.123-.254.717-.484 1.388-.691 2.014-.207.626-.357 1.1-.449 1.424"/></g></svg>