<svg xmlns="http://www.w3.org/2000/svg" width="1024pt" height="1024" viewBox="0 0 1024 768"><clipPath id="a"><path transform="matrix(1 0 0 -1 0 768)" d="M275.028 276.909h482.187v482.187H275.028z"/></clipPath><g clip-path="url(#a)"><path stroke-width="22.6" stroke-miterlimit="10" fill="none" stroke="#000" d="M516.122 20.204c126.915 0 229.793 102.879 229.793 229.794S643.037 479.791 516.122 479.791 286.328 376.913 286.328 249.998 389.207 20.204 516.122 20.204z"/></g><clipPath id="b"><path transform="matrix(1 0 0 -1 0 768)" d="M396.493 465.638h65.05v116.573h-65.05z"/></clipPath><g clip-path="url(#b)"><path stroke-width="22.6" stroke-linecap="round" stroke-linejoin="round" fill="none" stroke="#000" d="M428.224 228.434c-.979.51-1.744.995-2.296 1.457-.553.462-1.12 1.122-1.7 1.981-.582.859-1.16 2.076-1.736 3.651-.575 1.575-1.082 3.753-1.52 6.532-.436 2.78-.693 5.85-.767 9.212-.075 3.363-.03 6.492.138 9.387a43.12 43.12 0 0 0 1.286 8.345c.69 2.667 1.487 4.812 2.39 6.435.904 1.623 1.82 2.572 2.746 2.849.926.276 1.876.183 2.848-.279.973-.462 1.888-1.387 2.745-2.777.858-1.39 1.585-3.14 2.184-5.25a84.632 84.632 0 0 0 1.623-6.888 118.71 118.71 0 0 0 1.182-7.2c.305-2.317.48-4.635.527-6.952.046-2.318-.058-4.866-.31-7.646a61.393 61.393 0 0 0-1.287-8.13 122.593 122.593 0 0 0-1.813-7.057 284.121 284.121 0 0 1-1.7-6.047 129.326 129.326 0 0 0-1.485-5.146c-.46-1.463-.866-2.53-1.217-3.198-.35-.67-.653-1.168-.906-1.496-.253-.328-.472-.548-.656-.66-.184-.112-.415.062-.69.524a6.118 6.118 0 0 0-.622 1.386c-.138.461-.36 1.26-.665 2.395a58.582 58.582 0 0 0-.872 3.794 403.067 403.067 0 0 0-.897 4.693 182.035 182.035 0 0 0-.976 5.84c-.328 2.157-.607 4.708-.837 7.651-.23 2.944-.357 6.386-.38 10.326-.023 3.94-.034 7.624-.034 11.05 0 3.428.069 6.567.207 9.42.138 2.853.31 5.345.518 7.477.207 2.132.44 3.44.699 3.924.259.483.55.563.872.24.322-.325.713-.868 1.174-1.632.46-.764.97-1.632 1.527-2.603a32.47 32.47 0 0 0 1.597-3.198 71.11 71.11 0 0 0 1.528-3.826c.512-1.39.803-2.235.872-2.538"/></g><clipPath id="c"><path transform="matrix(1 0 0 -1 0 768)" d="M543.094 472.164h64.705v114.993h-64.705z"/></clipPath><g clip-path="url(#c)"><path stroke-width="22.6" stroke-linecap="round" stroke-linejoin="round" fill="none" stroke="#000" d="M569.887 221.689c-.782 1.856-1.38 3.547-1.795 5.075-.414 1.528-.645 3.382-.69 5.561-.047 2.18.08 4.81.38 7.892.298 3.081.759 6.06 1.38 8.933.622 2.875 1.269 5.076 1.942 6.604.674 1.528 1.335 2.512 1.986 2.952.65.44 1.309.708 1.976.803a2.678 2.678 0 0 0 1.873-.415c.582-.37 1.16-1.193 1.735-2.466.576-1.273 1.177-2.954 1.804-5.043a100.35 100.35 0 0 0 1.77-6.817 91.412 91.412 0 0 0 1.32-7.128c.328-2.296.515-4.428.562-6.396.046-1.968-.176-3.832-.665-5.593-.49-1.761-1.197-3.65-2.124-5.665a104.879 104.879 0 0 1-2.736-6.57 358.088 358.088 0 0 0-2.322-5.983c-.65-1.622-1.17-2.526-1.562-2.712-.391-.186-.808.14-1.252.977-.443.838-.929 2.217-1.458 4.137-.53 1.92-1.074 4.156-1.632 6.707a631.595 631.595 0 0 0-1.631 7.684c-.53 2.573-.97 5.169-1.32 7.788-.352 2.62-.562 5.516-.63 8.688-.07 3.172-.058 6.498.034 9.976.092 3.479.44 6.55 1.044 9.213.604 2.662 1.231 4.864 1.882 6.603.65 1.74 1.24 3.083 1.77 4.033.529.95 1.024 1.472 1.484 1.567.46.095.924-.15 1.39-.732.466-.583 1.01-1.441 1.631-2.576a82.35 82.35 0 0 0 1.873-3.645 73.966 73.966 0 0 0 3.056-7.16c.443-1.209.837-2.611 1.182-4.208.346-1.597.541-3.73.587-6.396.046-2.667-.138-5.796-.552-9.387-.415-3.591-1.016-6.903-1.804-9.938a769.663 769.663 0 0 0-2.08-7.859 289.74 289.74 0 0 0-1.528-5.457c-.42-1.433-.757-2.359-1.01-2.777-.253-.419-.426-.628-.518-.628h-.138l.207-.072"/></g><clipPath id="d"><path transform="matrix(1 0 0 -1 0 768)" d="M391.585 451.491h67.994v144.997h-67.994z"/></clipPath><g clip-path="url(#d)"><path stroke-width="22" stroke-linecap="round" stroke-linejoin="round" fill="none" stroke="#000" d="M425.479 194.512c-.507 0-.958.045-1.356.136-.397.09-.756.3-1.078.628-.323.328-.622.78-.898 1.36-.276.577-.541 1.272-.794 2.084-.254.811-.51 1.75-.769 2.816a118.205 118.205 0 0 0-.837 3.755 90.86 90.86 0 0 0-.898 5.211c-.299 2.037-.612 4.482-.94 7.335a463.852 463.852 0 0 1-1.045 8.416 331.775 331.775 0 0 1-1.105 7.645c-.368 2.34-.644 4.899-.828 7.678-.184 2.78-.288 5.514-.311 8.203-.023 2.688.104 5.019.38 6.991a67.013 67.013 0 0 0 1.036 5.671 197.81 197.81 0 0 1 1.251 5.91c.42 2.133.837 4.355 1.252 6.669.414 2.313.851 4.525 1.312 6.635.46 2.11.958 3.932 1.493 5.464.535 1.532 1.079 2.75 1.631 3.651.553.903 1.166 1.574 1.839 2.014.673.44 1.324.671 1.95.693.628.021 1.252-.257 1.874-.836.621-.578 1.269-1.458 1.942-2.64a34.408 34.408 0 0 0 1.908-3.963c.598-1.459 1.142-3.116 1.631-4.972.49-1.856.93-4.184 1.32-6.985.392-2.8.668-5.917.83-9.348.16-3.431.252-6.78.276-10.047.022-3.268.034-6.837.034-10.708v-27.222c0-2.78-.046-5.294-.138-7.542-.092-2.249-.368-3.917-.829-5.004-.46-1.088-.946-2.003-1.459-2.745a29.763 29.763 0 0 0-1.424-1.917c-.437-.535-.805-.93-1.105-1.184-.299-.255-.543-.428-.733-.518-.19-.09-.308-.136-.354-.136h-.07.035"/></g><clipPath id="e"><path transform="matrix(1 0 0 -1 0 768)" d="M542.14 458.094h64.662v141.735H542.14z"/></clipPath><g clip-path="url(#e)"><path stroke-width="22" stroke-linecap="round" stroke-linejoin="round" fill="none" stroke="#000" d="M570.612 191.171c-.046.276-.207.658-.483 1.146-.276.488-.53 1.055-.76 1.703-.23.647-.483 1.4-.76 2.26a24.55 24.55 0 0 0-.724 2.925 58.328 58.328 0 0 0-.561 3.651 243.66 243.66 0 0 0-.527 4.655c-.184 1.761-.334 3.777-.449 6.047-.115 2.27-.23 4.611-.345 7.024a1298.678 1298.678 0 0 0-.76 18.664 178.9 178.9 0 0 0-.103 6.26v6.467c0 2.106.011 3.984.034 5.632.023 1.649.08 3.282.173 4.9.092 1.62.219 3.298.38 5.038.16 1.739.38 3.502.656 5.289a41.693 41.693 0 0 0 1.148 5.218c.489 1.691 1.067 3.116 1.735 4.272.667 1.157 1.35 2.014 2.045 2.57.697.557 1.333.986 1.908 1.289a5.589 5.589 0 0 0 1.7.589 8.58 8.58 0 0 0 1.701.103c.575-.021 1.154-.31 1.735-.867.581-.557 1.09-1.45 1.528-2.68.437-1.23.831-2.946 1.182-5.147s.665-4.726.941-7.574c.276-2.849.507-5.792.69-8.83.185-3.039.38-5.937.588-8.695.207-2.758.345-5.677.414-8.759.069-3.081.104-6.036.104-8.863 0-2.826-.104-5.388-.311-7.684-.207-2.296-.449-4.8-.725-7.51-.276-2.71-.541-5.431-.794-8.163-.254-2.732-.567-4.922-.941-6.57-.374-1.65-.803-2.994-1.286-4.034-.484-1.04-1.028-2-1.632-2.88a41.946 41.946 0 0 0-1.735-2.364c-.552-.695-1.013-1.217-1.38-1.566-.37-.35-.576-.536-.622-.557l-.07-.033"/></g><clipPath id="f"><path transform="matrix(1 0 0 -1 0 768)" d="M201.187-16.279h616.211v267.235H201.187z"/></clipPath><g clip-path="url(#f)"><path stroke-width="22" stroke-linecap="round" stroke-linejoin="round" fill="none" stroke="#000" d="M224.394 753.277c0-1.528-.034-2.721-.103-3.58a32.06 32.06 0 0 1-.104-2.57v-2.57c0-.859.023-1.821.07-2.887.045-1.066.137-2.294.275-3.684.138-1.39.288-3 .45-4.83.16-1.83.356-3.823.586-5.981.23-2.158.472-4.105.725-5.84.253-1.735.533-3.217.838-4.447.304-1.23.618-2.447.94-3.651.323-1.204.656-2.538 1.002-4.001a1025.7 1025.7 0 0 0 1.079-4.622c.374-1.619.78-3.38 1.217-5.283a99.368 99.368 0 0 1 1.346-5.25c.46-1.597.9-2.941 1.32-4.033.421-1.092.861-2.158 1.322-3.198.46-1.04.923-2.186 1.39-3.438.465-1.252.963-2.596 1.493-4.033.529-1.437 1.119-3.026 1.769-4.765a315.92 315.92 0 0 1 2.046-5.321 85.17 85.17 0 0 1 2.149-5.005 52.61 52.61 0 0 1 2.158-4.136c.72-1.23 1.447-2.437 2.184-3.62a147.33 147.33 0 0 0 2.218-3.683 73.118 73.118 0 0 0 2.365-4.447 465.434 465.434 0 0 0 2.53-5.212c.851-1.782 1.729-3.52 2.632-5.211a57.182 57.182 0 0 1 3.021-5.01 44.534 44.534 0 0 1 3.677-4.733 47.72 47.72 0 0 1 4.515-4.415 148.7 148.7 0 0 0 5.248-4.758 63.07 63.07 0 0 0 5.343-5.769c1.732-2.11 3.41-3.977 5.032-5.6 1.623-1.622 3.231-2.977 4.825-4.065a49.77 49.77 0 0 1 5.136-3.056c1.83-.949 3.81-1.877 5.939-2.783 2.129-.907 4.174-1.834 6.137-2.784a87.22 87.22 0 0 0 5.757-3.056 97.428 97.428 0 0 0 5.455-3.405 154 154 0 0 1 5.723-3.651 101.79 101.79 0 0 1 6.698-3.722 299.77 299.77 0 0 1 6.88-3.406 153.021 153.021 0 0 1 6.482-2.92 194.317 194.317 0 0 1 6.595-2.64c2.25-.855 4.624-1.667 7.121-2.435a368.92 368.92 0 0 0 7.216-2.298c2.313-.764 4.58-1.575 6.802-2.434a166.92 166.92 0 0 0 6.664-2.745 116.738 116.738 0 0 1 7.423-2.92 252.904 252.904 0 0 0 7.95-2.99 250.165 250.165 0 0 0 7.224-2.985 161.88 161.88 0 0 1 6.664-2.713 54.07 54.07 0 0 1 6.836-2.09 77.968 77.968 0 0 1 6.595-1.282l6.137-.9c2.055-.302 4.264-.58 6.63-.835a233.22 233.22 0 0 1 7.88-.7c2.889-.211 5.723-.444 8.502-.699 2.78-.254 5.453-.52 8.02-.796 2.566-.276 5.167-.555 7.802-.835 2.636-.28 5.435-.535 8.399-.764 2.964-.229 5.916-.449 8.856-.66 2.94-.212 6.03-.352 9.27-.421 3.24-.07 6.79-.104 10.652-.104 3.861 0 7.492-.045 10.893-.136l10.41-.278c3.54-.095 6.917-.142 10.134-.142 3.217 0 6.18.013 8.89.038 2.71.026 5.683.097 8.917.214 3.234.117 6.566.196 9.996.24 3.43.043 6.658.077 9.684.103 3.027.026 6.253.143 9.676.35 3.424.207 6.664.472 9.72.796 3.055.324 5.786.66 8.191 1.01l7.432 1.081c2.55.371 5.188.798 7.915 1.282a99.731 99.731 0 0 1 7.7 1.664 74.083 74.083 0 0 1 7.25 2.298c2.43.906 4.987 2.009 7.674 3.308 2.688 1.299 5.268 2.445 7.743 3.438 2.474.992 4.88 1.93 7.216 2.816l6.802 2.576a707.98 707.98 0 0 0 6.698 2.5c2.267.832 4.57 1.63 6.905 2.394 2.337.764 4.558 1.517 6.664 2.26 2.106.742 4.132 1.519 6.077 2.33 1.945.812 3.982 1.658 6.111 2.538 2.13.88 4.339 1.795 6.63 2.745 2.29.95 4.373 1.97 6.248 3.062a51.03 51.03 0 0 1 5.55 3.755 117.394 117.394 0 0 1 5.102 4.169 42.019 42.019 0 0 0 4.86 3.651 113.606 113.606 0 0 0 5.515 3.302 170.476 170.476 0 0 0 5.585 3.023c1.71.88 3.271 1.774 4.687 2.68a45.664 45.664 0 0 1 4.1 2.959 50.241 50.241 0 0 1 3.919 3.54 48.6 48.6 0 0 1 3.78 4.274 233.617 233.617 0 0 1 3.885 5.075 114.918 114.918 0 0 0 3.815 4.868 200.334 200.334 0 0 0 3.263 3.826 60.196 60.196 0 0 1 2.78 3.406 63.763 63.763 0 0 1 2.468 3.508c.788 1.204 1.55 2.583 2.287 4.137a57.587 57.587 0 0 1 2.15 5.25 248.16 248.16 0 0 1 2.02 5.878 84.85 84.85 0 0 0 1.873 5.18c.598 1.48 1.188 2.87 1.77 4.169.58 1.299 1.17 2.701 1.769 4.208.598 1.506 1.142 3.336 1.631 5.49.49 2.153.998 4.436 1.528 6.849.53 2.412 1.073 4.672 1.631 6.778s1.09 3.949 1.597 5.528c.506 1.58.981 3.123 1.424 4.629.443 1.506.85 3.278 1.217 5.315.369 2.037.691 4.365.967 6.985s.53 5.089.76 7.406c.23 2.318.452 4.312.664 5.982.213 1.67.458 3.444.734 5.321.276 1.878.541 4.02.794 6.429.253 2.408.541 4.724.863 6.946.323 2.223.648 4.135.976 5.736.328 1.601.63 3.12.906 4.558.276 1.437.518 2.792.725 4.065.207 1.273.403 2.549.587 3.826.184 1.278.357 2.598.518 3.962.161 1.364.31 2.534.449 3.509.138.975.219 1.556.242 1.741"/></g><clipPath id="g"><path transform="matrix(1 0 0 -1 0 768)" d="M684.149-40.98h77.868v78.045h-77.868z"/></clipPath><g clip-path="url(#g)"><path stroke-width="22" stroke-linecap="round" stroke-linejoin="round" fill="none" stroke="#000" d="m707.149 753.935.32.343c.212.229.537.598.974 1.107.438.51 1.12 1.263 2.046 2.26.927.997 2.164 2.261 3.712 3.793a708.247 708.247 0 0 1 5.343 5.354 714.898 714.898 0 0 1 6.008 6.15 4001.13 4001.13 0 0 1 4.928 5.114 108.04 108.04 0 0 0 3.401 3.406 88.512 88.512 0 0 0 2.53 2.324c.713.626 1.268 1.09 1.665 1.392.397.302.653.511.768.628"/></g><clipPath id="h"><path transform="matrix(1 0 0 -1 0 768)" d="M185.771-97.846h585.275v270.77H185.771z"/></clipPath><g clip-path="url(#h)"><path stroke-width="22" stroke-linecap="round" stroke-linejoin="round" fill="none" stroke="#000" d="M748.046 618.076c0 .19-.012.458-.035.803-.023.345-.106.68-.25 1.003-.144.324-.32.648-.527.972a11.99 11.99 0 0 1-.897 1.184 36.602 36.602 0 0 1-1.7 1.845c-.743.764-1.762 1.761-3.056 2.991-1.295 1.23-2.927 2.691-4.895 4.383-1.968 1.692-4.212 3.37-6.732 5.036a58.545 58.545 0 0 1-8.157 4.48c-2.918 1.321-6.111 2.771-9.581 4.35-3.47 1.58-7.6 3.54-12.387 5.879-4.788 2.34-9.82 5.108-15.097 8.306-5.277 3.198-10.899 6.036-16.866 8.513a698.002 698.002 0 0 1-17.66 7.056c-5.807 2.227-11.904 4.929-18.291 8.105a507.54 507.54 0 0 1-19.819 9.316 361.983 361.983 0 0 1-21.104 8.584c-7.245 2.69-15.077 6.097-23.496 10.223a475.899 475.899 0 0 1-25.748 11.678 368.677 368.677 0 0 1-26.103 9.802 389.844 389.844 0 0 0-26.17 9.769c-8.794 3.638-17.471 6.743-26.034 9.315a1703.61 1703.61 0 0 1-25.472 7.439c-8.42 2.386-17.267 5.539-26.543 9.458a966.28 966.28 0 0 1-28.528 11.51 2209.803 2209.803 0 0 0-29.4 11.575 1162.875 1162.875 0 0 0-29.744 12.443c-9.973 4.333-19.597 7.855-28.873 10.565a552.483 552.483 0 0 0-26.69 8.513 1376.717 1376.717 0 0 0-25.092 9.005c-8.211 3.039-15.986 5.576-23.323 7.613"/></g><clipPath id="i"><path transform="matrix(1 0 0 -1 0 768)" d="M635.777-55.443h143.037v164.535H635.777z"/></clipPath><g clip-path="url(#i)"><path stroke-width="22" stroke-linecap="round" stroke-linejoin="round" fill="none" stroke="#000" d="M658.777 681.908h.207c.092 0 .172.01.241.032.07.022.196.39.38 1.107s.648 2.003 1.39 3.859c.742 1.855 2.213 4.44 4.41 7.755 2.199 3.315 5.045 7.382 8.538 12.203 3.493 4.821 7.02 9.99 10.582 15.505a258.088 258.088 0 0 0 10.97 15.712c3.753 4.959 5.997 7.971 6.734 9.037.736 1.066 2.575 3.36 5.515 6.882 2.94 3.522 5.323 6.152 7.147 7.891a630.53 630.53 0 0 1 5.827 5.633c2.06 2.015 5.139 5.017 9.236 9.005 4.097 3.987 7.673 7.255 10.729 9.801 3.056 2.546 5.786 4.955 8.191 7.225 2.406 2.27 4.164 3.985 5.274 5.146"/></g><clipPath id="j"><path transform="matrix(1 0 0 -1 0 768)" d="M522.287-71.29h104.506V63.49H522.287z"/></clipPath><g clip-path="url(#j)"><path stroke-width="22" stroke-linecap="round" stroke-linejoin="round" fill="none" stroke="#000" d="m545.494 727.51-.104.349c-.069.233-.046.848.07 1.845.114.997.888 3.105 2.321 6.325 1.433 3.22 3.965 7.807 7.596 13.763a2301.225 2301.225 0 0 0 11.903 19.292c4.305 6.905 8.724 13.14 13.259 18.702 4.534 5.564 8.597 10.766 12.188 15.609 3.59 4.842 6.332 8.202 8.226 10.08"/></g><clipPath id="k"><path transform="matrix(1 0 0 -1 0 768)" d="M199.236-62.952h49.194V45.623h-49.194z"/></clipPath><g clip-path="url(#k)"><path stroke-width="22" stroke-linecap="round" stroke-linejoin="round" fill="none" stroke="#000" d="M223.341 745.377h-.034c-.023 0-.08.44-.173 1.32-.092.88-.196 2.342-.31 4.383-.116 2.042-.23 4.696-.346 7.963-.115 3.267-.184 7.39-.207 12.371-.023 4.98.115 9.696.414 14.146.3 4.45.694 8.493 1.183 12.131.489 3.639.872 6.258 1.148 7.86"/></g><clipPath id="l"><path transform="matrix(1 0 0 -1 0 768)" d="M206.66 3.609h483.23v219.536H206.66z"/></clipPath><g clip-path="url(#l)"><path stroke-width="22" stroke-linecap="round" stroke-linejoin="round" fill="none" stroke="#000" d="m230.005 741.391-.07-.103a4.774 4.774 0 0 0-.172-.24c-.069-.09-.103-.16-.103-.207 0-.047.08-.106.241-.175.161-.069.567-.185 1.217-.35.65-.163 1.577-.431 2.78-.802 1.202-.371 2.937-.811 5.205-1.32 2.267-.51 4.87-1.009 7.811-1.496 2.94-.488 5.96-.952 9.055-1.392 3.096-.44 6.218-.915 9.365-1.424 3.148-.51 6.469-1.1 9.961-1.774 3.493-.673 7.081-1.461 10.764-2.363a333.33 333.33 0 0 0 11.662-3.095 907.13 907.13 0 0 0 12.179-3.547c4.028-1.204 8.171-2.42 12.43-3.645a389.874 389.874 0 0 1 13.05-3.509 355.647 355.647 0 0 0 12.664-3.411c3.999-1.161 8.315-2.402 12.947-3.723a254.222 254.222 0 0 0 13.474-4.24 580.043 580.043 0 0 0 13.846-5.004c4.88-1.83 9.725-3.684 14.535-5.561a171.987 171.987 0 0 1 14.925-5.037 258.869 258.869 0 0 0 14.51-4.622 1652.3 1652.3 0 0 1 14.51-5.043 149.891 149.891 0 0 0 14.785-5.943 535.657 535.657 0 0 1 14.33-6.429 306.054 306.054 0 0 1 13.948-5.632 425.775 425.775 0 0 1 13.742-4.868c4.695-1.576 9.08-3.233 13.154-4.972a394.274 394.274 0 0 0 12.913-5.807c4.535-2.132 8.724-4.357 12.568-6.675a104.537 104.537 0 0 1 11.834-6.15c4.046-1.782 8.002-3.508 11.869-5.179a214.895 214.895 0 0 0 11.143-5.185 151.967 151.967 0 0 0 10.825-6.014 122.957 122.957 0 0 0 10.306-6.986 75.545 75.545 0 0 1 10.03-6.428 256.003 256.003 0 0 1 10.237-5.179 120.48 120.48 0 0 0 9.443-5.01 313.81 313.81 0 0 0 8.675-5.322 170.173 170.173 0 0 0 7.846-5.283 476.898 476.898 0 0 0 6.25-4.55 139.944 139.944 0 0 1 5.032-3.58c1.577-1.067 3-2.006 4.273-2.817a52.427 52.427 0 0 1 3.332-1.981c.949-.51 1.677-.88 2.183-1.113.507-.234.84-.35 1.002-.35.16 0 .264.013.31.039"/></g><clipPath id="m"><path transform="matrix(1 0 0 -1 0 768)" d="M232.209 90.241h300.463v157.996H232.209z"/></clipPath><g clip-path="url(#m)"><path stroke-width="22" stroke-linecap="round" stroke-linejoin="round" fill="none" stroke="#000" d="M255.21 654.759c.046 0 .16-.045.345-.136.184-.09.414-.218.69-.382.276-.164.682-.339 1.217-.524.536-.186 1.324-.406 2.365-.66 1.042-.255 2.604-.613 4.687-1.075 2.084-.462 4.745-1.04 7.985-1.735 3.24-.695 6.606-1.472 10.099-2.33a900.203 900.203 0 0 0 10.617-2.68c3.585-.929 7.403-1.913 11.454-2.953a210.882 210.882 0 0 0 11.73-3.366 655.382 655.382 0 0 0 12.18-4.033l13.051-4.454a540.163 540.163 0 0 1 13.19-4.312 302.245 302.245 0 0 0 13.154-4.447c4.327-1.576 8.69-3.371 13.086-5.387a326.375 326.375 0 0 0 12.835-6.221 241.36 241.36 0 0 1 11.869-5.703c3.752-1.67 7.57-3.259 11.454-4.765 3.884-1.506 7.504-3.105 10.859-4.797a275.462 275.462 0 0 0 10.556-5.632 164.615 164.615 0 0 0 10.937-6.707 428.736 428.736 0 0 1 10.064-6.532 125.908 125.908 0 0 1 9.616-5.458 108.557 108.557 0 0 0 9.538-5.496 73.118 73.118 0 0 0 8.537-6.435 475.153 475.153 0 0 1 7.432-6.396c2.313-1.946 4.465-3.57 6.456-4.868 1.991-1.3 3.634-2.307 4.929-3.023 1.295-.717 2.207-1.144 2.736-1.282"/></g></svg>