<svg xmlns="http://www.w3.org/2000/svg" width="1024pt" height="1024" viewBox="0 0 1024 768"><clipPath id="a"><path transform="matrix(1 0 0 -1 0 768)" d="M275.028 276.909h482.187v482.187H275.028z"/></clipPath><g clip-path="url(#a)"><path stroke-width="22.6" stroke-miterlimit="10" fill="none" stroke="#000" d="M516.122 20.204c126.915 0 229.793 102.879 229.793 229.794S643.037 479.791 516.122 479.791 286.328 376.913 286.328 249.998 389.207 20.204 516.122 20.204z"/></g><clipPath id="b"><path transform="matrix(1 0 0 -1 0 768)" d="M175.141-12.904h674.138v256.472H175.141z"/></clipPath><g clip-path="url(#b)"><path stroke-width="22.6" stroke-linecap="round" stroke-linejoin="round" fill="none" stroke="#000" d="M198.74 751.335c.047.457.104.734.173.829.07.095.15.142.242.142s.219-.047.38-.142c.161-.095.36-.387.596-.874.235-.488.515-1.138.837-1.949l1.14-2.88c.437-1.11.992-2.407 1.665-3.892a247.648 247.648 0 0 1 2.365-5.043 229.613 229.613 0 0 1 2.918-5.839 214.957 214.957 0 0 1 3.332-6.189c1.18-2.11 2.313-4.022 3.4-5.736a130.35 130.35 0 0 1 3.16-4.758 177.837 177.837 0 0 0 2.874-4.24c.898-1.368 1.775-2.76 2.633-4.176.857-1.415 1.76-2.99 2.71-4.726.95-1.735 1.934-3.565 2.952-5.49a77.294 77.294 0 0 1 3.125-5.392 51.33 51.33 0 0 1 3.366-4.694 92.447 92.447 0 0 1 3.746-4.344 449.66 449.66 0 0 0 4.023-4.447c1.363-1.528 2.719-3.265 4.065-5.211 1.347-1.947 2.69-3.94 4.031-5.982 1.341-2.042 2.659-3.84 3.954-5.393a45.206 45.206 0 0 1 3.918-4.169 567.447 567.447 0 0 1 3.885-3.58 121.792 121.792 0 0 1 4.03-3.515 196.456 196.456 0 0 0 4.584-3.962 79.614 79.614 0 0 0 4.713-4.551 145.903 145.903 0 0 1 4.273-4.312 51.914 51.914 0 0 1 4.065-3.547 40.934 40.934 0 0 1 4.126-2.849c1.387-.833 2.82-1.666 4.299-2.499 1.479-.833 3.145-1.76 4.998-2.784a126.006 126.006 0 0 0 5.524-3.236 94.56 94.56 0 0 0 5.17-3.438 462.996 462.996 0 0 1 5.033-3.548 103.995 103.995 0 0 1 5.343-3.476 77.865 77.865 0 0 1 5.826-3.198 124.38 124.38 0 0 1 6.422-2.959c2.221-.95 4.316-1.806 6.284-2.57a535.227 535.227 0 0 1 5.731-2.188 247.039 247.039 0 0 0 5.792-2.26 206.419 206.419 0 0 1 6.733-2.57c2.48-.901 4.877-1.84 7.19-2.815a490.538 490.538 0 0 0 6.871-2.959 220.382 220.382 0 0 0 6.87-3.166 214.343 214.343 0 0 1 7.286-3.334 437.465 437.465 0 0 0 7.527-3.366 277.522 277.522 0 0 1 7.328-3.237 92.894 92.894 0 0 1 7.19-2.712 137.328 137.328 0 0 1 7.63-2.26 274.64 274.64 0 0 0 7.77-2.188c2.474-.738 4.799-1.444 6.974-2.117s4.362-1.299 6.56-1.877a114.282 114.282 0 0 1 7.017-1.6c2.48-.487 4.82-.93 7.018-1.326 2.198-.397 4.394-.792 6.586-1.185s4.437-.751 6.733-1.075c2.296-.323 4.727-.66 7.294-1.01 2.566-.35 5.098-.697 7.595-1.042 2.498-.345 4.938-.669 7.32-.97a92.86 92.86 0 0 1 7.147-.629c2.383-.116 4.94-.185 7.674-.207 2.733-.022 5.395-.032 7.984-.032h7.354c2.314 0 4.722-.07 7.225-.208 2.503-.138 5.061-.323 7.674-.556a5972.5 5972.5 0 0 0 7.354-.66c2.29-.208 4.592-.462 6.905-.765 2.314-.302 4.777-.662 7.39-1.08a584.06 584.06 0 0 1 7.949-1.218 305.31 305.31 0 0 1 7.812-1.042c2.52-.302 5.029-.557 7.526-.764 2.498-.207 5.102-.393 7.812-.557 2.71-.164 5.395-.326 8.053-.485a666.033 666.033 0 0 1 14.64-.732c2.428-.095 4.963-.188 7.604-.278 2.642-.09 5.13-.149 7.467-.175 2.336-.026 4.673-.039 7.009-.039h7.009c2.336 0 4.718.106 7.147.317a83.92 83.92 0 0 1 7.043.907c2.268.393 4.42.844 6.457 1.353s3.993 1.031 5.87 1.566c1.875.536 3.924 1.082 6.145 1.638 2.221.557 4.397 1.135 6.526 1.735a73.86 73.86 0 0 1 5.964 1.942c1.847.695 3.686 1.448 5.516 2.26 1.83.811 3.637 1.657 5.42 2.537a863.22 863.22 0 0 1 10.997 5.53c1.853.949 3.623 1.898 5.309 2.848a98.466 98.466 0 0 1 4.86 2.92 48.346 48.346 0 0 1 4.652 3.411 79.168 79.168 0 0 1 4.687 4.208 251.387 251.387 0 0 0 4.86 4.583c1.663 1.528 3.34 3.01 5.032 4.448a135.434 135.434 0 0 0 4.929 4 208.397 208.397 0 0 0 4.54 3.412c1.433 1.045 2.857 2.087 4.273 3.127a96.326 96.326 0 0 1 4.272 3.334 66.752 66.752 0 0 1 4.368 3.962 62.647 62.647 0 0 1 4.342 4.765 140.408 140.408 0 0 1 3.996 5.075 66.89 66.89 0 0 0 3.816 4.655 83.988 83.988 0 0 0 3.953 4.104c1.34 1.3 2.693 2.644 4.057 4.033a68.008 68.008 0 0 1 4.065 4.552 104.38 104.38 0 0 1 4.135 5.425c1.41 1.972 2.75 3.966 4.022 5.981a785.227 785.227 0 0 0 3.54 5.561 199.114 199.114 0 0 0 3.227 4.869 101.297 101.297 0 0 1 3.229 5.043c1.087 1.808 2.152 3.906 3.194 6.292a423.6 423.6 0 0 1 3.159 7.439c1.064 2.572 2.106 4.9 3.124 6.985a281.603 281.603 0 0 0 2.84 5.664 44.545 44.545 0 0 1 2.357 5.458 48.605 48.605 0 0 1 1.735 6.117c.46 2.133.889 4.206 1.286 6.222.397 2.015.86 3.951 1.39 5.807a58.044 58.044 0 0 0 1.838 5.425c.696 1.76 1.462 3.58 2.296 5.457.835 1.878 1.62 3.742 2.357 5.594a56.031 56.031 0 0 1 1.804 5.211c.466 1.623.78 3.187.94 4.693.162 1.507.265 3.037.311 4.59.046 1.554.07 3.108.07 4.661v4.416c0 1.39.034 2.593.103 3.612"/></g><clipPath id="c"><path transform="matrix(1 0 0 -1 0 768)" d="M170.359-33.445h52.396v76.267h-52.396z"/></clipPath><g clip-path="url(#c)"><path stroke-width="22.6" stroke-linecap="round" stroke-linejoin="round" fill="none" stroke="#000" d="M198.257 748.778c.23 0 .415.01.553.032.138.022.23.08.276.175.046.095.07.339.07.732 0 .392-.093 1.145-.277 2.259-.184 1.113-.46 2.77-.829 4.972a716.452 716.452 0 0 1-1.251 7.231c-.466 2.62-.93 5.02-1.39 7.199-.46 2.18-.817 3.802-1.07 4.868"/></g><clipPath id="d"><path transform="matrix(1 0 0 -1 0 768)" d="M205.058 39.424h377.674V237.01H205.058z"/></clipPath><g clip-path="url(#d)"><path stroke-width="22.6" stroke-linecap="round" stroke-linejoin="round" fill="none" stroke="#000" d="M228.658 704.976 559.132 554.59"/></g><clipPath id="e"><path transform="matrix(1 0 0 -1 0 768)" d="M263.443-66.954h456.585V217.68H263.443z"/></clipPath><g clip-path="url(#e)"><path stroke-width="22.6" stroke-linecap="round" stroke-linejoin="round" fill="none" stroke="#000" d="M696.428 573.921v.524c0 .117-.011.244-.034.382-.023.138-.115.3-.277.486a13.6 13.6 0 0 1-.587.628c-.23.233-.495.466-.794.699-.299.233-.659.522-1.079.867-.42.346-.929.75-1.528 1.211a34.165 34.165 0 0 0-1.942 1.631 79.251 79.251 0 0 0-2.192 2.053 67.693 67.693 0 0 0-2.288 2.33 97.012 97.012 0 0 1-2.287 2.363c-.765.764-1.565 1.575-2.4 2.434-.834.86-1.703 1.729-2.606 2.61a50.917 50.917 0 0 1-2.806 2.537 51.745 51.745 0 0 1-3.15 2.434 48.903 48.903 0 0 1-3.72 2.402 98.035 98.035 0 0 1-4.135 2.292c-1.41.738-2.843 1.525-4.299 2.363a151.415 151.415 0 0 0-4.583 2.75c-1.6.998-3.197 2.05-4.79 3.16a221.418 221.418 0 0 0-4.895 3.509 154.186 154.186 0 0 1-5.067 3.58 390.702 390.702 0 0 1-5.067 3.373 635.055 635.055 0 0 1-4.997 3.237 182.326 182.326 0 0 1-5.24 3.23 234.901 234.901 0 0 1-5.938 3.405c-2.13 1.183-4.58 2.54-7.355 4.072-2.773 1.532-5.745 3.399-8.916 5.6-3.17 2.201-6.549 4.54-10.134 7.018-3.585 2.477-7.54 4.805-11.868 6.985-4.328 2.18-8.713 4.428-13.155 6.746-4.442 2.317-9.28 5.179-14.51 8.584a690.303 690.303 0 0 1-15.2 9.626 187 187 0 0 1-15.028 8.313c-5.116 2.529-10.439 5.578-15.969 9.147a499.93 499.93 0 0 1-17.004 10.494 286.986 286.986 0 0 1-17.247 9.42 171.254 171.254 0 0 0-16.417 9.386 257.827 257.827 0 0 1-15.762 9.452 454.18 454.18 0 0 1-14.993 7.924 732.841 732.841 0 0 0-15.2 7.892 380.483 380.483 0 0 0-15.511 8.726 154.46 154.46 0 0 1-14.994 7.86c-5.046 2.295-9.94 4.533-14.682 6.713a535.165 535.165 0 0 0-14.19 6.778c-4.72 2.339-9 4.482-12.845 6.428a115.847 115.847 0 0 1-11.489 5.076 573.878 573.878 0 0 0-9.995 3.858 194.86 194.86 0 0 0-8.26 3.509 188.95 188.95 0 0 0-8.572 4.169 376.9 376.9 0 0 0-8.399 4.454 650.95 650.95 0 0 1-4.402 2.402"/></g><clipPath id="f"><path transform="matrix(1 0 0 -1 0 768)" d="M529.973-44.84h265.514v191.048H529.973z"/></clipPath><g clip-path="url(#f)"><path stroke-width="22.6" stroke-linecap="round" stroke-linejoin="round" fill="none" stroke="#000" d="M771.887 645.392c-.369 1.07-.774 1.905-1.217 2.505-.444.6-1.01 1.318-1.7 2.156a62.927 62.927 0 0 1-2.53 2.855c-.996 1.066-2.14 2.259-3.435 3.58a106.51 106.51 0 0 1-4.515 4.311 1334.67 1334.67 0 0 0-5.904 5.386c-2.221 2.037-4.615 4.4-7.182 7.09a105.224 105.224 0 0 1-8.398 7.858c-3.033 2.551-6.422 4.903-10.168 7.057-3.746 2.153-7.61 4.691-11.593 7.613a391.333 391.333 0 0 0-12.257 9.387c-4.189 3.336-8.459 6.208-12.81 8.617-4.35 2.408-8.838 4.898-13.465 7.47-4.626 2.572-9.75 5.598-15.373 9.077-5.622 3.478-11.6 6.793-17.936 9.943a409.853 409.853 0 0 0-19.396 10.326 598.09 598.09 0 0 0-19.68 11.646c-6.526 4.031-12.485 7.216-17.876 9.556-5.392 2.339-10.218 4.609-14.476 6.81a205.845 205.845 0 0 0-12.395 6.953"/></g><clipPath id="g"><path transform="matrix(1 0 0 -1 0 768)" d="M670.688-49.565h112.093V66.736H670.688z"/></clipPath><g clip-path="url(#g)"><path stroke-width="22.6" stroke-linecap="round" stroke-linejoin="round" fill="none" stroke="#000" d="M694.77 726.806c0-.086-.034-.2-.103-.343-.069-.143-.138-.283-.207-.421a1.465 1.465 0 0 1-.138-.414 2.518 2.518 0 0 1-.034-.415c0-.138.034-.23.103-.278.07-.048.472.173 1.209.66.736.488 1.95 1.74 3.642 3.755a585.35 585.35 0 0 1 6.664 8.131 322.678 322.678 0 0 0 8.33 9.905 380.889 380.889 0 0 1 8.329 9.84 201.87 201.87 0 0 0 8.019 9.251c2.595 2.806 5.05 5.261 7.363 7.367a204.771 204.771 0 0 1 6.31 5.976 131.452 131.452 0 0 1 5.273 5.528c1.623 1.809 3.174 3.373 4.653 4.694 1.479 1.32 2.682 2.304 3.608 2.952"/></g><clipPath id="h"><path transform="matrix(1 0 0 -1 0 768)" d="M600.857-37.2h53.087v73.548h-53.087z"/></clipPath><g clip-path="url(#h)"><path stroke-width="22.6" stroke-linecap="round" stroke-linejoin="round" fill="none" stroke="#000" d="M624.457 755.252c.046.043.126.11.242.2.115.091.218.207.31.35.092.142.161.328.207.557.047.228.081.541.104.938.023.397.07.943.138 1.638.07.695.242 1.575.518 2.642.276 1.066.59 2.304.941 3.715.351 1.412.653 2.849.906 4.312.254 1.463.438 2.773.553 3.93.115 1.156.218 2.175.31 3.055.092.88.196 1.623.311 2.227.115.604.253 1.055.415 1.353.16.298.322.563.483.797.161.233.276.397.345.492"/></g><clipPath id="i"><path transform="matrix(1 0 0 -1 0 768)" d="M800.198-56.66h49.358v99.132h-49.358z"/></clipPath><g clip-path="url(#i)"><path stroke-width="22.6" stroke-linecap="round" stroke-linejoin="round" fill="none" stroke="#000" d="M825.956 749.127v3.995c0 .859-.012 2.065-.035 3.619-.023 1.553-.092 3.349-.207 5.386a137.252 137.252 0 0 1-.484 6.118 773.24 773.24 0 0 0-.586 6.014c-.185 1.968-.346 3.869-.484 5.703a118.59 118.59 0 0 0-.285 5.322 111.343 111.343 0 0 0-.043 4.965c.023 1.597.141 3.01.354 4.24.213 1.23.365 2.251.458 3.062.092.812.138 1.507.138 2.085 0 .578-.115.96-.346 1.146"/></g><clipPath id="j"><path transform="matrix(1 0 0 -1 0 768)" d="M487.643 431.638h53.519v77.225h-53.519z"/></clipPath><g clip-path="url(#j)"><path stroke-width="22.6" stroke-linecap="round" stroke-linejoin="round" fill="none" stroke="#000" d="M512.9 291.347c-.23.285-.46.6-.69.945-.23.345-.426.958-.587 1.838-.161.88-.265 2.236-.31 4.066a69.364 69.364 0 0 0 .103 5.736c.115 1.994.368 3.616.76 4.868.39 1.252.785 2.19 1.182 2.816.397.626.768.973 1.114 1.042.345.07.667-.058.966-.382.3-.323.587-1.135.864-2.434.276-1.299.509-2.978.699-5.036.19-2.059.33-4.213.423-6.461.092-2.249.138-4.383.138-6.403 0-2.02-.107-3.69-.32-5.01-.212-1.321-.492-2.281-.837-2.881-.345-.6-.656-.97-.932-1.107-.276-.138-.483-.173-.622-.104-.138.07-.207.231-.207.486"/></g><clipPath id="k"><path transform="matrix(1 0 0 -1 0 768)" d="M620.296 431.845h54.139v79.181h-54.139z"/></clipPath><g clip-path="url(#k)"><path stroke-width="22.6" stroke-linecap="round" stroke-linejoin="round" fill="none" stroke="#000" d="M644.24 290.104c-.137 2.59-.23 4.905-.275 6.946a159.414 159.414 0 0 0 0 6.642c.046 2.387.218 4.323.517 5.807.3 1.485.657 2.365 1.07 2.641.415.277.832.38 1.252.311.42-.069.803-.416 1.148-1.042.346-.626.668-1.506.967-2.641.3-1.135.599-2.642.898-4.52.3-1.876.544-3.881.734-6.013.19-2.132.284-4.126.284-5.982 0-1.856-.152-3.593-.457-5.211-.305-1.619-.676-2.998-1.114-4.137-.437-1.14-.794-1.813-1.07-2.02-.276-.207-.495-.043-.656.492-.161.535-.265 1.22-.31 2.052"/></g><clipPath id="l"><path transform="matrix(1 0 0 -1 0 768)" d="M475.283 409.802h71.075v126.465h-71.075z"/></clipPath><g clip-path="url(#l)"><path stroke-width="22.6" stroke-linecap="round" stroke-linejoin="round" fill="none" stroke="#000" d="M507.704 279.117c-.84 3.151-1.479 5.965-1.916 8.442-.437 2.478-.725 5.57-.863 9.277-.138 3.708-.161 6.998-.07 9.873.093 2.874.404 5.47.933 7.788.53 2.317 1.154 4.682 1.873 7.095.72 2.413 1.45 4.51 2.193 6.292.742 1.783 1.458 3.183 2.149 4.202.69 1.018 1.35 1.692 1.977 2.02.627.328 1.205.352 1.735.071.529-.28 1.061-1.174 1.596-2.68.536-1.506 1.068-3.625 1.597-6.357.53-2.732 1.028-5.456 1.494-8.17.466-2.715.894-5.173 1.286-7.374.391-2.201.667-4.113.828-5.736.162-1.623.242-3.301.242-5.036 0-1.735-.196-3.971-.587-6.707-.391-2.736-.877-5.531-1.459-8.384-.58-2.853-1.17-5.692-1.77-8.52a341.538 341.538 0 0 1-1.665-8.376c-.512-2.758-.999-5.041-1.459-6.85-.46-1.808-.932-3.025-1.415-3.65-.484-.627-.959-.95-1.425-.972-.466-.021-.871.06-1.217.246-.345.186-.762.639-1.251 1.36-.49.72-1.056 1.763-1.7 3.126-.645 1.364-1.35 2.95-2.116 4.759a322.579 322.579 0 0 0-2.4 5.84 173.38 173.38 0 0 0-2.46 6.538c-.805 2.274-1.452 4.801-1.941 7.58-.49 2.78-.78 5.943-.872 9.49-.092 3.549.069 6.574.483 9.077.415 2.503.993 4.171 1.735 5.004.743.833 1.206 1.284 1.39 1.353"/></g><clipPath id="m"><path transform="matrix(1 0 0 -1 0 768)" d="M611.957 407.161h66.087v129.378h-66.087z"/></clipPath><g clip-path="url(#m)"><path stroke-width="22.6" stroke-linecap="round" stroke-linejoin="round" fill="none" stroke="#000" d="M641.53 255.06c0 .182-.115.527-.345 1.037-.23.509-.59 1.17-1.079 1.98-.489.812-1.01 2.318-1.562 4.52-.553 2.2-1.073 5.271-1.562 9.212a165.34 165.34 0 0 0-1.045 12.17 289.41 289.41 0 0 0-.345 12.831c-.023 4.38.092 8.064.345 11.051s.648 5.755 1.183 8.306a781.29 781.29 0 0 1 1.666 8.17c.575 2.896 1.2 5.259 1.873 7.089s1.343 3.105 2.01 3.826c.668.72 1.339 1.232 2.012 1.534.673.302 1.278.453 1.813.453.535 0 1.09-.43 1.666-1.288.575-.86 1.165-2.158 1.77-3.897.603-1.74 1.182-3.79 1.734-6.15.553-2.361 1.05-4.806 1.493-7.335.443-2.53.769-4.94.976-7.232.207-2.291.31-4.585.31-6.881 0-2.296-.092-5.078-.276-8.345-.184-3.267-.44-6.582-.768-9.944-.328-3.362-.653-6.189-.975-8.48a122.357 122.357 0 0 0-1.002-6.118c-.345-1.787-.705-3.34-1.079-4.661-.374-1.32-.71-2.41-1.01-3.27-.299-.858-.598-1.68-.897-2.466-.3-.785-.587-1.56-.863-2.324-.277-.764-.521-1.437-.734-2.02-.213-.582-.388-1.001-.527-1.256-.138-.254-.207-.392-.207-.414v-.032l.035.66"/></g></svg>