<svg xmlns="http://www.w3.org/2000/svg" width="1024pt" height="1024" viewBox="0 0 1024 768"><clipPath id="a"><path transform="matrix(1 0 0 -1 0 768)" d="M342.344 328.896h287.244v287.243H342.344z"/></clipPath><g clip-path="url(#a)"><path stroke-width="22.6" stroke-miterlimit="10" fill="none" stroke="#00973d" d="M485.966 163.161c73.081 0 132.322 59.24 132.322 132.322 0 73.081-59.241 132.321-132.322 132.321s-132.322-59.24-132.322-132.321c0-73.082 59.241-132.322 132.322-132.322z"/></g><clipPath id="b"><path transform="matrix(1 0 0 -1 0 768)" d="M141.758 289.955h203.631v203.631H141.758z"/></clipPath><g clip-path="url(#b)"><path stroke-width="22.6" stroke-miterlimit="10" fill="none" stroke="#00973d" d="M243.573 285.714c49.992 0 90.516 40.524 90.516 90.515 0 49.992-40.524 90.516-90.516 90.516-49.991 0-90.515-40.524-90.515-90.516 0-49.991 40.524-90.515 90.515-90.515z"/></g><clipPath id="c"><path transform="matrix(1 0 0 -1 0 768)" d="M635.39 278.487h215.127v215.128H635.39z"/></clipPath><g clip-path="url(#c)"><path stroke-width="22.6" stroke-miterlimit="10" fill="none" stroke="#00b449" d="M742.954 285.685c53.166 0 96.263 43.098 96.263 96.264s-43.097 96.264-96.263 96.264c-53.167 0-96.264-43.098-96.264-96.264s43.097-96.264 96.264-96.264z"/></g><clipPath id="d"><path transform="matrix(1 0 0 -1 0 768)" d="M111.851-15.855h51.123v72.516h-51.123z"/></clipPath><g clip-path="url(#d)"><path stroke-width="24" stroke-linecap="round" stroke-linejoin="round" fill="none" stroke="#00973d" d="M136.851 736.34v9.723c0 1.622.012 3.21.035 4.764.023 1.554.095 2.899.216 4.034.12 1.135.262 2.039.423 2.712.16.673.276 1.055.345 1.146"/></g><clipPath id="e"><path transform="matrix(1 0 0 -1 0 768)" d="M265.185-31.716h428.173v340.764H265.185z"/></clipPath><g clip-path="url(#e)"><path stroke-width="24" stroke-linecap="round" stroke-linejoin="round" fill="none" stroke="#00973d" d="M291.998 754.13c0 .508.034.983.103 1.423.07.44.139.87.208 1.289.069.418.115.755.138 1.01.023.254.034.405.034.453v.07-.77c0-.418-.057-1.044-.172-1.877a973.53 973.53 0 0 0-.484-3.437c-.207-1.46-.426-3.36-.656-5.704-.23-2.343-.429-5.008-.595-7.995-.167-2.987-.274-5.72-.32-8.202-.046-2.482-.069-4.683-.069-6.603 0-1.921.118-3.891.354-5.911.236-2.02.48-4.176.734-6.467.253-2.292.518-4.459.794-6.5.276-2.042.54-3.839.794-5.393.253-1.553.506-3.163.76-4.83.253-1.665.509-3.612.768-5.839.259-2.227.572-4.719.94-7.477.369-2.758.795-5.282 1.278-7.574.484-2.292 1.027-4.307 1.632-6.047.604-1.739 1.254-3.664 1.95-5.774.697-2.11 1.379-4.556 2.046-7.335.668-2.78 1.338-5.293 2.011-7.542a114.5 114.5 0 0 1 1.977-6.046 606.791 606.791 0 0 1 1.977-5.387 206.2 206.2 0 0 0 2.123-6.014c.742-2.2 1.516-4.484 2.322-6.85a80.397 80.397 0 0 1 2.494-6.466 189.817 189.817 0 0 1 2.573-5.6c.857-1.787 1.738-3.781 2.641-5.982s1.83-4.482 2.78-6.843c.949-2.36 1.944-4.493 2.986-6.396a57.063 57.063 0 0 1 3.263-5.289 154.407 154.407 0 0 0 3.263-4.862 69.111 69.111 0 0 0 3.012-5.179c.967-1.834 1.971-3.828 3.013-5.982a131.689 131.689 0 0 1 3.09-6.014c1.018-1.856 2.002-3.465 2.952-4.83.95-1.363 1.922-2.694 2.917-3.993.996-1.3 2.026-2.657 3.09-4.073a281.942 281.942 0 0 1 3.367-4.382c1.18-1.506 2.44-3.071 3.78-4.694 1.341-1.623 2.624-3.174 3.85-4.654s2.36-2.743 3.401-3.788a56.69 56.69 0 0 1 3.263-3.023 183.93 183.93 0 0 1 3.366-2.816 84.736 84.736 0 0 1 3.263-2.538 70.051 70.051 0 0 1 3.366-2.33 53.863 53.863 0 0 1 3.755-2.227 630.901 630.901 0 0 0 4.066-2.22 37.533 37.533 0 0 0 4.16-2.68 120.326 120.326 0 0 0 4.264-3.302 104.539 104.539 0 0 1 4.446-3.406 59.21 59.21 0 0 1 4.618-3.03 41.208 41.208 0 0 1 4.894-2.466 67.129 67.129 0 0 1 5.17-1.942 123.1 123.1 0 0 0 5.205-1.845c1.715-.652 3.415-1.29 5.101-1.916a168.018 168.018 0 0 1 4.998-1.768 196.626 196.626 0 0 0 5.032-1.767 285.666 285.666 0 0 1 11.42-3.897 310.668 310.668 0 0 1 5.654-1.742c1.801-.535 3.57-1.023 5.308-1.463a97.706 97.706 0 0 1 5.067-1.146 89.422 89.422 0 0 1 5.274-.867c1.876-.255 3.856-.475 5.939-.66 2.083-.186 4.051-.348 5.904-.486a91.67 91.67 0 0 1 5.516-.246c1.824-.026 3.616-.026 5.377 0 1.761.026 3.556.19 5.386.492s3.772.615 5.827.939c2.054.323 4.054.636 5.999.938 1.945.303 3.82.58 5.628.836 1.807.254 3.634.52 5.48.796 1.848.276 3.779.647 5.793 1.113a71.703 71.703 0 0 1 6.007 1.67c1.991.648 3.902 1.308 5.732 1.982 1.83.673 3.588 1.322 5.274 1.948a568.19 568.19 0 0 0 4.825 1.767c1.53.553 3.104 1.12 4.722 1.703 1.616.583 3.294 1.198 5.032 1.845a123.53 123.53 0 0 1 5.067 2.013 49.746 49.746 0 0 1 4.609 2.227c1.433.79 2.8 1.636 4.1 2.538 1.3.902 2.587 1.9 3.858 2.991a107.338 107.338 0 0 1 3.747 3.373 535.025 535.025 0 0 0 3.677 3.437 174.812 174.812 0 0 1 3.78 3.613 110.429 110.429 0 0 1 3.678 3.787 292.487 292.487 0 0 1 3.228 3.548 832.8 832.8 0 0 1 3.09 3.476 62.658 62.658 0 0 1 3.09 3.787 34.767 34.767 0 0 1 2.78 4.35c.857 1.58 1.7 3.192 2.529 4.837a183.423 183.423 0 0 0 2.425 4.654 38.173 38.173 0 0 0 2.469 3.995 86.132 86.132 0 0 0 2.814 3.722c1.018 1.277 2.048 2.6 3.09 3.968a38.366 38.366 0 0 1 2.909 4.448c.897 1.597 1.775 3.392 2.632 5.386.858 1.994 1.704 3.94 2.538 5.84a127.263 127.263 0 0 0 2.33 5.036c.72 1.459 1.436 2.838 2.15 4.137a94.998 94.998 0 0 1 2.011 3.865 59.714 59.714 0 0 1 1.804 4.065 84.803 84.803 0 0 1 1.804 5.004 623.34 623.34 0 0 0 1.839 5.497 119.73 119.73 0 0 0 1.735 4.797 43.766 43.766 0 0 0 1.812 4.065 67.541 67.541 0 0 0 2.046 3.716 85.457 85.457 0 0 1 2.08 3.723 44.95 44.95 0 0 1 1.977 4.35 62.623 62.623 0 0 1 1.77 5.108 349.922 349.922 0 0 1 1.493 5.108c.46 1.622.935 3.14 1.424 4.55.49 1.412.975 2.733 1.459 3.963.483 1.23.958 2.425 1.424 3.586.466 1.161.906 2.47 1.32 3.93a56.522 56.522 0 0 1 1.14 4.933c.345 1.83.659 3.649.941 5.457a304.4 304.4 0 0 1 .768 5.212c.23 1.665.472 3.24.725 4.725.253 1.485.484 2.935.69 4.35.208 1.416.427 3.015.657 4.798.23 1.782.475 3.716.734 5.8.258 2.085.514 4.09.768 6.014.253 1.925.518 3.723.794 5.393s.53 3.235.76 4.694c.23 1.458.425 2.883.586 4.272.162 1.39.36 2.92.596 4.59s.515 3.42.837 5.25c.322 1.83.68 3.51 1.07 5.037.392 1.528.786 2.954 1.183 4.28l1.114 3.722c.345 1.156.644 2.268.897 3.334a51.103 51.103 0 0 1 1.174 7.51c.115 1.393.21 2.761.285 4.104.075 1.342.147 2.673.216 3.994.069 1.32.15 2.583.242 3.787.092 1.204.172 2.294.241 3.27.07.975.104 1.89.104 2.744v2.713c0 .954-.092 2.056-.276 3.308a92.388 92.388 0 0 1-.7 4.065 80.007 80.007 0 0 0-.664 3.891 89.82 89.82 0 0 0-.31 2.33l-.07.629v-.071"/></g><clipPath id="f"><path transform="matrix(1 0 0 -1 0 768)" d="M107.484-14.962h247.2v287.64h-247.2z"/></clipPath><g clip-path="url(#f)"><path stroke-width="24" stroke-linecap="round" stroke-linejoin="round" fill="none" stroke="#00973d" d="M329.684 552.652a4.766 4.766 0 0 1-.242-.317c-.115-.16-.253-.346-.414-.557-.161-.212-.345-.455-.553-.732a62.389 62.389 0 0 0-2.02-2.538 65.639 65.639 0 0 1-1.63-2.045 246.798 246.798 0 0 1-4.127-5.529 186.08 186.08 0 0 0-2.184-2.952 72.454 72.454 0 0 0-2.39-2.99 28.36 28.36 0 0 0-2.676-2.784 25.193 25.193 0 0 0-2.78-2.195 35.106 35.106 0 0 0-2.917-1.767 36.971 36.971 0 0 0-3.263-1.56 42.694 42.694 0 0 0-3.85-1.392c-1.41-.44-2.926-.915-4.549-1.425-1.623-.509-3.242-.984-4.86-1.424a60.984 60.984 0 0 0-4.86-1.113 54.328 54.328 0 0 0-5.342-.7 85.57 85.57 0 0 0-6.379-.278c-2.313-.021-4.779-.021-7.397 0-2.619.022-5.21.173-7.777.453s-5.099.641-7.596 1.081c-2.498.44-5.079.857-7.743 1.25-2.664.393-5.406.833-8.226 1.32-2.82.488-5.539 1.045-8.157 1.67a86.94 86.94 0 0 0-7.708 2.221c-2.52.855-5.19 1.839-8.01 2.952a59.117 59.117 0 0 0-8.054 3.898 44.954 44.954 0 0 0-7.259 5.282 456.365 456.365 0 0 1-7.147 6.222 202.373 202.373 0 0 1-7.389 6.014c-2.451 1.899-4.523 3.741-6.215 5.528-1.691 1.787-3.277 3.86-4.756 6.222-1.479 2.36-2.958 5.142-4.436 8.344a187.696 187.696 0 0 1-4.342 8.83 510.791 510.791 0 0 1-4.17 7.75c-1.363 2.481-2.6 5.507-3.71 9.076a183.263 183.263 0 0 0-2.884 10.254 664.627 664.627 0 0 1-2.287 8.967c-.714 2.71-1.419 5.932-2.115 9.665a311.924 311.924 0 0 1-2.184 10.708c-.76 3.405-1.545 6.73-2.356 9.976-.812 3.245-1.566 6.907-2.262 10.986a847.5 847.5 0 0 0-1.735 10.5c-.46 2.922-.854 5.865-1.182 8.83a352.684 352.684 0 0 0-.976 10.494c-.322 4.031-.69 7.786-1.105 11.265-.414 3.478-.843 7.35-1.286 11.614a645.4 645.4 0 0 0-1.113 11.646c-.3 3.5-.472 6.362-.518 8.584a155.13 155.13 0 0 0 .034 7.264c.07 2.62.208 5.134.415 7.542a456.8 456.8 0 0 0 .518 5.697c.138 1.39.244 2.49.319 3.301.075.812.112 1.382.112 1.71"/></g><clipPath id="g"><path transform="matrix(1 0 0 -1 0 768)" d="M288.922 126.115h324.886v121.678H288.922z"/></clipPath><g clip-path="url(#g)"><path stroke-width="24" stroke-linecap="round" stroke-linejoin="round" fill="none" stroke="#00973d" d="M313.922 616.885H319.032c1.922 0 4.849-.056 8.779-.168 3.93-.113 8.234-.32 12.913-.622 4.678-.302 9.56-.662 14.648-1.081a264.868 264.868 0 0 0 15.062-1.67c4.955-.695 10.764-1.61 17.428-2.745 6.663-1.135 12.308-2.178 16.935-3.127 4.627-.95 9.993-2.085 16.098-3.405a598.117 598.117 0 0 0 18.222-4.24 342.87 342.87 0 0 0 17.669-4.901 713.001 713.001 0 0 1 17.073-5.011 705.885 705.885 0 0 0 16.073-4.693 951.382 951.382 0 0 0 15.545-4.901 285.323 285.323 0 0 0 15.442-5.496c5.001-1.947 9.665-3.939 13.993-5.976 4.327-2.037 6.847-3.23 7.56-3.58.714-.35 2.622-1.126 5.724-2.33 3.101-1.204 5.67-2.108 7.708-2.713 2.037-.604 3.427-1.033 4.169-1.288.742-.255 3.056-1.17 6.94-2.745 3.884-1.575 6.948-2.93 9.193-4.065 2.244-1.135 4.223-2.143 5.938-3.024a221.97 221.97 0 0 0 3.47-1.806c.599-.324 1.048-.602 1.347-.835.299-.233.613-.488.94-.764.329-.276.562-.427.7-.453.138-.026.207.043.207.207 0 .164-.012.27-.035.317"/></g><clipPath id="h"><path transform="matrix(1 0 0 -1 0 768)" d="M280.118 35.793h372.274v137.461H280.118z"/></clipPath><g clip-path="url(#h)"><path stroke-width="24" stroke-linecap="round" stroke-linejoin="round" fill="none" stroke="#00973d" d="M305.118 706.158c.046.561.104.853.173.874.069.022.322.056.76.104.437.047 1.2.071 2.287.071s2.535-.082 4.341-.246c1.807-.164 4.006-.315 6.595-.453 2.59-.138 5.63-.31 9.124-.518 3.493-.207 7.058-.53 10.694-.971 3.637-.44 7.513-.973 11.627-1.6a779.458 779.458 0 0 0 12.974-2.09 577.637 577.637 0 0 0 13.258-2.402 654.577 654.577 0 0 1 13.992-2.538c5.024-.858 10.151-1.739 15.382-2.64a367.061 367.061 0 0 0 16.098-3.16 170.426 170.426 0 0 0 16.728-4.59 719.125 719.125 0 0 0 16.875-5.775 216.16 216.16 0 0 1 17.35-5.353c5.967-1.576 11.808-3.14 17.522-4.694a1539.69 1539.69 0 0 0 17.488-4.868 306.195 306.195 0 0 0 17.704-5.626 252.2 252.2 0 0 0 16.728-6.532 161.97 161.97 0 0 1 16.452-6.085c5.674-1.761 10.974-3.442 15.9-5.043a387.267 387.267 0 0 0 14.087-4.869c4.465-1.644 8.352-3.301 11.661-4.972 3.31-1.67 6.41-3.258 9.305-4.764a228.377 228.377 0 0 1 7.57-3.787c2.152-1.019 3.922-1.794 5.309-2.325 1.387-.53 2.402-.854 3.047-.97.644-.117 1.013-.244 1.105-.383"/></g><clipPath id="i"><path transform="matrix(1 0 0 -1 0 768)" d="M521.875-24.763h98.251v149.774h-98.251z"/></clipPath><g clip-path="url(#i)"><path stroke-width="24" stroke-linecap="round" stroke-linejoin="round" fill="none" stroke="#00973d" d="M546.875 667.989c.046 1.346.15 2.68.31 4 .162 1.321.395 2.746.7 4.273.305 1.528.78 3.671 1.424 6.429.645 2.758 1.488 6.003 2.53 9.736a150.403 150.403 0 0 0 3.65 11.304c1.393 3.802 2.852 7.764 4.377 11.886 1.525 4.121 3.084 7.608 4.678 10.461a146.247 146.247 0 0 0 5.033 8.345c1.76 2.71 3.556 5.967 5.386 9.769 1.83 3.802 3.714 6.931 5.653 9.387 1.94 2.456 3.928 4.53 5.965 6.221 2.037 1.692 3.553 3.047 4.549 4.066a905.229 905.229 0 0 1 2.641 2.712c.766.79 1.183 1.185 1.252 1.185"/></g><clipPath id="j"><path transform="matrix(1 0 0 -1 0 768)" d="M418.795-33.244h93.521V101.99h-93.521z"/></clipPath><g clip-path="url(#j)"><path stroke-width="24" stroke-linecap="round" stroke-linejoin="round" fill="none" stroke="#00973d" d="M443.795 691.01c.472.32.8.757.984 1.314.184.557.495 1.692.932 3.405a1452.34 1452.34 0 0 0 2.219 8.52c1.041 3.966 2.442 8.614 4.203 13.944 1.761 5.33 3.718 10.01 5.87 14.042 2.152 4.03 5.032 9.128 8.64 15.29 3.608 6.164 5.956 9.94 7.044 11.33 1.087 1.39 2.451 3.336 4.091 5.84 1.64 2.503 3.191 4.706 4.653 6.61 1.461 1.902 2.641 3.201 3.539 3.896"/></g><clipPath id="k"><path transform="matrix(1 0 0 -1 0 768)" d="M342.37-35.807h77.777V83.786H342.37z"/></clipPath><g clip-path="url(#k)"><path stroke-width="24" stroke-linecap="round" stroke-linejoin="round" fill="none" stroke="#00973d" d="M367.37 709.214h0v.278c0 .186.026 1.069.078 2.648.051 1.58.515 4.338 1.39 8.274.874 3.936 2.26 8.87 4.16 14.805a142.14 142.14 0 0 0 6.663 17.04c2.544 5.424 5.079 10.036 7.605 13.834 2.526 3.798 4.471 6.866 5.835 9.205"/></g><clipPath id="l"><path transform="matrix(1 0 0 -1 0 768)" d="M206.679 130.142h118.64v131.557h-118.64z"/></clipPath><g clip-path="url(#l)"><path stroke-width="24" stroke-linecap="round" stroke-linejoin="round" fill="none" stroke="#00973d" d="M231.68 531.301H232.024c.046 0 .126.14.241.421.115.28.3.792.553 1.534.253.743.75 1.981 1.493 3.716.742 1.735 1.91 4.144 3.505 7.225 1.594 3.082 3.501 6.245 5.722 9.49a349.902 349.902 0 0 0 6.491 9.18 247.14 247.14 0 0 1 6.353 9.11 65.355 65.355 0 0 0 7.225 9.004c2.687 2.805 5.8 5.529 9.34 8.17 3.539 2.641 6.73 5.458 9.572 8.448 2.843 2.991 5.18 5.447 7.01 7.368 1.83 1.92 3.449 3.379 4.859 4.376 1.41.997 2.75 1.832 4.022 2.505"/></g><clipPath id="m"><path transform="matrix(1 0 0 -1 0 768)" d="M142.546 77.03h175.073v135.377H142.546z"/></clipPath><g clip-path="url(#m)"><path stroke-width="24" stroke-linecap="round" stroke-linejoin="round" fill="none" stroke="#00973d" d="M168.374 581.15a1.656 1.656 0 0 1-.31-.201l-.311-.246c-.092-.073-.15-.11-.173-.11-.023 0 .058.127.242.382.184.254.716.846 1.597 1.774.88.928 2.175 2.192 3.884 3.793l7.872 7.374c3.54 3.314 7.599 7.15 12.18 11.504 4.58 4.354 8.954 8.107 13.12 11.258a729.878 729.878 0 0 0 13.888 10.222 194.171 194.171 0 0 0 15.762 10.222c5.415 3.15 10.758 5.895 16.029 8.235 5.27 2.339 10.093 4.69 14.467 7.056 4.373 2.365 7.938 4.29 10.694 5.775 2.757 1.484 4.978 2.632 6.664 3.444 1.686.811 3.222 1.517 4.61 2.117 1.386.6 2.405 1.12 3.055 1.56"/></g><clipPath id="n"><path transform="matrix(1 0 0 -1 0 768)" d="M117.617 48.792h127.807v105.623H117.617z"/></clipPath><g clip-path="url(#n)"><path stroke-width="24" stroke-linecap="round" stroke-linejoin="round" fill="none" stroke="#00973d" d="M145.397 694.208h-2.78l.622-.389c.414-.259 1.56-.884 3.435-1.877 1.876-.993 4.641-2.462 8.295-4.409 3.654-1.946 7.61-4.218 11.869-6.817 4.258-2.598 8.194-5.183 11.808-7.755a241.133 241.133 0 0 0 10.764-8.131c3.562-2.849 6.776-5.861 9.642-9.038 2.865-3.176 5.42-5.748 7.664-7.716 2.245-1.969 4.282-3.43 6.112-4.383 1.83-.954 3.3-1.744 4.41-2.37 1.111-.625 1.897-1.146 2.357-1.56.46-.414.714-.714.76-.9.046-.185.057-.278.034-.278"/></g><clipPath id="o"><path transform="matrix(1 0 0 -1 0 768)" d="M115.684-8.565h174.383v141.228H115.684z"/></clipPath><g clip-path="url(#o)"><path stroke-width="24" stroke-linecap="round" stroke-linejoin="round" fill="none" stroke="#00973d" d="M141.789 750.374c-.046.19-.127.354-.242.492-.115.138-.23.266-.345.382a1.302 1.302 0 0 1-.31.246.595.595 0 0 1-.174.071h-.034.138c.092 0 .53-.233 1.312-.699.783-.466 1.997-1.266 3.643-2.401 1.645-1.136 3.901-2.676 6.767-4.623a642.814 642.814 0 0 0 10.237-7.127 184.647 184.647 0 0 1 12.05-7.86 484.564 484.564 0 0 1 13.051-7.51c4.627-2.571 9.31-5.931 14.053-10.079a216.874 216.874 0 0 1 15.13-12.06c5.347-3.893 12.347-9.744 21.002-17.55 8.655-7.808 14.265-12.605 16.832-14.392a313.437 313.437 0 0 1 6.275-4.28c1.617-1.065 2.67-1.773 3.16-2.123"/></g><clipPath id="p"><path transform="matrix(1 0 0 -1 0 768)" d="M171.134-48.185h132.122V78.154H171.134z"/></clipPath><g clip-path="url(#p)"><path stroke-width="24" stroke-linecap="round" stroke-linejoin="round" fill="none" stroke="#00973d" d="M278.256 714.846c-.23.51-.52 1.042-.872 1.6a30.144 30.144 0 0 1-1.217 1.773c-.46.626-1.038 1.32-1.735 2.085-.696.764-1.646 1.633-2.848 2.609-1.203.975-2.67 2.054-4.402 3.236a804.897 804.897 0 0 1-5.758 3.891c-2.106 1.411-4.42 3.334-6.94 5.768-2.52 2.434-5.76 5.762-9.719 9.983-3.959 4.22-7.29 7.488-9.995 9.801-2.705 2.314-5.666 5.093-8.882 8.338a339.682 339.682 0 0 0-10.074 10.643c-3.498 3.85-6.646 6.886-9.443 9.109-2.796 2.223-5.202 4.029-7.216 5.419"/></g><clipPath id="q"><path transform="matrix(1 0 0 -1 0 768)" d="M604.757-9.189h290.238v279.496H604.757z"/></clipPath><g clip-path="url(#q)"><path stroke-width="24" stroke-linecap="round" stroke-linejoin="round" fill="none" stroke="#00973d" d="M629.757 598.89h.034c.023 0 .08-.035.173-.104.092-.069.325-.567.7-1.495.373-.928 1.043-2.448 2.01-4.558.967-2.11 2.561-4.637 4.782-7.58 2.221-2.944 4.086-5.052 5.594-6.326a97.406 97.406 0 0 1 4.894-3.858c1.755-1.3 3.594-2.83 5.516-4.59 1.921-1.76 3.97-3.822 6.145-6.182a63.489 63.489 0 0 1 7.147-6.636 48.61 48.61 0 0 1 8.26-5.322c2.918-1.484 5.836-2.98 8.753-4.486 2.918-1.506 5.867-3.047 8.848-4.622 2.98-1.575 6.16-3.13 9.538-4.661 3.378-1.532 6.468-2.935 9.27-4.208 2.803-1.273 5.545-2.223 8.226-2.849a323.82 323.82 0 0 1 8.606-1.877 90.015 90.015 0 0 0 8.718-2.227 203.922 203.922 0 0 1 7.881-2.292c2.498-.669 5.214-1.189 8.148-1.56 2.935-.371 5.631-.591 8.088-.66 2.457-.07 4.713-.024 6.768.136 2.054.16 4.146.483 6.275.97 2.129.488 4.376 1.162 6.741 2.02a36.412 36.412 0 0 1 6.698 3.231c2.1 1.295 4.215 3.114 6.345 5.457a222.369 222.369 0 0 1 5.386 6.118 113.258 113.258 0 0 0 4.721 5.25c1.686 1.766 3.41 3.47 5.17 5.115a60.265 60.265 0 0 1 5.137 5.457c1.663 1.994 3.153 4.404 4.47 7.231a179.48 179.48 0 0 0 3.997 8.06 194.631 194.631 0 0 0 3.928 7.089 86.319 86.319 0 0 1 3.573 6.817c1.111 2.365 2.21 5.134 3.298 8.306a113.627 113.627 0 0 0 3.47 8.934c1.225 2.783 2.359 5.38 3.4 7.788 1.042 2.408 1.98 5.27 2.814 8.584.835 3.314 1.62 6.629 2.357 9.943.736 3.315 1.453 6.213 2.15 8.695.696 2.481 1.389 5.356 2.08 8.623.69 3.267 1.36 6.569 2.01 9.905.65 3.336 1.255 6.256 1.813 8.759a182.099 182.099 0 0 1 1.666 8.552c.553 3.198 1.12 6.523 1.7 9.976.582 3.452 1.172 6.454 1.77 9.005.599 2.55 1.2 5.263 1.804 8.137a243.696 243.696 0 0 1 1.735 9.174c.553 3.24 1.096 5.928 1.632 8.06a78.294 78.294 0 0 0 1.666 5.774 77.105 77.105 0 0 1 1.596 5.458 67.28 67.28 0 0 1 1.217 5.871c.323 1.994.587 3.954.795 5.878.207 1.925.368 3.583.483 4.972.115 1.39.184 2.501.207 3.334.023.833.035 1.47.035 1.91 0 .44-.012.684-.035.732-.023.047-.161-.115-.414-.486s-.415-.66-.484-.867"/></g><clipPath id="r"><path transform="matrix(1 0 0 -1 0 768)" d="M845.547-31.16h52.227v74.056h-52.227z"/></clipPath><g clip-path="url(#r)"><path stroke-width="24" stroke-linecap="round" stroke-linejoin="round" fill="none" stroke="#00973d" d="M870.754 750.104c-.046.51-.092.915-.138 1.217-.046.302-.069.732-.069 1.289 0 .556.07 1.392.207 2.505.138 1.114.36 2.48.665 4.098.305 1.618.584 3.308.837 5.069.253 1.76.403 3.36.449 4.797.046 1.437.07 2.643.07 3.619"/></g><clipPath id="s"><path transform="matrix(1 0 0 -1 0 768)" d="M687.984 99.338h184.24v141.28h-184.24z"/></clipPath><g clip-path="url(#s)"><path stroke-width="24" stroke-linecap="round" stroke-linejoin="round" fill="none" stroke="#00973d" d="M712.984 552.382c.506.924.935 1.687 1.286 2.292.35.604.964 1.519 1.838 2.745.875 1.225 2.25 3.124 4.126 5.696 1.876 2.573 4.33 5.609 7.363 9.11a165.1 165.1 0 0 0 9.27 9.872 420.11 420.11 0 0 1 9.616 9.736c3.263 3.41 6.917 6.597 10.963 9.562 4.045 2.965 7.826 5.444 11.342 7.438a1090.594 1090.594 0 0 1 20.906 12.165c3.332 1.99 6.546 3.83 9.641 5.522a63.963 63.963 0 0 0 9.642 4.279 216.64 216.64 0 0 0 9.063 2.958c2.71.812 5.177 1.576 7.398 2.292 2.221.717 4.186 1.364 5.895 1.942a70.891 70.891 0 0 0 4.55 1.392c1.323.35 2.54.686 3.65 1.01 1.11.324 2.138.66 3.082 1.01s1.764.686 2.46 1.01c.696.324 1.228.589 1.597.796.368.207.552.335.552.382 0 .048-.034.071-.103.071"/></g><clipPath id="t"><path transform="matrix(1 0 0 -1 0 768)" d="M624.334 48.79h259.422v123.776H624.334z"/></clipPath><g clip-path="url(#t)"><path stroke-width="24" stroke-linecap="round" stroke-linejoin="round" fill="none" stroke="#00973d" d="M650.3 620.577a4.337 4.337 0 0 0-.449-.143h-.207a.534.534 0 0 0-.241.04c-.047.025-.07.155-.07.388s.162.57.484 1.01c.322.44.947 1.11 1.873 2.013.926.902 2.212 2.072 3.858 3.509 1.646 1.437 3.695 3.094 6.146 4.972 2.452 1.877 5.24 3.765 8.364 5.664a1427.3 1427.3 0 0 0 9.227 5.561 314.436 314.436 0 0 1 9.331 5.807c3.194 2.063 6.69 4.092 10.488 6.085 3.798 1.994 7.374 3.697 10.73 5.108a428.895 428.895 0 0 0 9.926 4.033 230.957 230.957 0 0 0 10.237 3.723 782.93 782.93 0 0 0 9.849 3.263c3.004.97 6.114 1.92 9.33 2.848 3.217.928 6.575 1.914 10.074 2.959a250.819 250.819 0 0 1 9.408 2.99c2.774.95 5.539 1.83 8.295 2.642 2.757.811 5.717 1.61 8.882 2.395 3.165.786 6.057 1.422 8.675 1.91 2.619.488 5.142.872 7.57 1.152 2.429.28 4.995.548 7.7.803 2.704.255 5.285.51 7.742.764 2.458.255 4.69.533 6.699.835 2.008.302 3.812.533 5.412.693 1.6.16 3.139.308 4.618.446 1.479.138 2.969.279 4.47.421 1.503.143 2.87.248 4.101.317 1.231.07 2.414.139 3.548.208 1.133.069 2.255.161 3.366.278l2.943.31a34.971 34.971 0 0 0 3.885.214c.483 0 .831.011 1.044.033.213.021.4.043.561.064.161.022.3.057.414.104.116.047.173.095.173.142 0 .048-.034.072-.103.072h-.665"/></g><clipPath id="u"><path transform="matrix(1 0 0 -1 0 768)" d="M640.371 4.574h101.497v119.037H640.371z"/></clipPath><g clip-path="url(#u)"><path stroke-width="24" stroke-linecap="round" stroke-linejoin="round" fill="none" stroke="#00973d" d="M716.868 669.39c-.276 1.527-.564 2.604-.863 3.23-.3.625-.659 1.333-1.08 2.123-.42.79-.905 1.752-1.458 2.887-.552 1.135-1.154 2.374-1.804 3.716a114.64 114.64 0 0 1-2.15 4.202 93.761 93.761 0 0 1-2.528 4.415 46.247 46.247 0 0 1-2.883 4.208 56.24 56.24 0 0 1-3.194 3.787 179.359 179.359 0 0 1-3.78 3.962 64.348 64.348 0 0 0-4.308 4.9 350.848 350.848 0 0 0-4.273 5.458 95.968 95.968 0 0 1-4.298 5.218 95.61 95.61 0 0 1-4.402 4.661 75.666 75.666 0 0 0-3.85 4.066 60.425 60.425 0 0 0-3.125 3.89 93.683 93.683 0 0 1-2.848 3.684c-.927 1.135-1.761 2.04-2.504 2.712-.742.674-1.274 1.161-1.596 1.463-.323.303-.495.454-.518.454"/></g><clipPath id="v"><path transform="matrix(1 0 0 -1 0 768)" d="M698.325-30.669h93.866v135.506h-93.866z"/></clipPath><g clip-path="url(#v)"><path stroke-width="24" stroke-linecap="round" stroke-linejoin="round" fill="none" stroke="#00973d" d="M767.19 688.163v1.522c0 .461-.091 1.087-.275 1.877-.184.79-.553 1.834-1.105 3.133-.553 1.3-1.304 3.177-2.253 5.632-.95 2.456-2.037 5.4-3.263 8.83-1.226 3.432-2.497 6.606-3.815 9.524a115.513 115.513 0 0 1-4.273 8.513 193.548 193.548 0 0 0-4.687 9.037c-1.594 3.267-3.214 6.258-4.86 8.973a69.151 69.151 0 0 1-5.204 7.477 86.792 86.792 0 0 0-5.17 7.16 225.63 225.63 0 0 0-4.1 6.532c-1.111 1.851-2 3.31-2.668 4.376-.668 1.066-1.142 1.798-1.424 2.195-.282.397-.47.617-.561.66a.63.63 0 0 1-.173.065"/></g><clipPath id="w"><path transform="matrix(1 0 0 -1 0 768)" d="M773.507-38.67h85.96V93.585h-85.96z"/></clipPath><g clip-path="url(#w)"><path stroke-width="24" stroke-linecap="round" stroke-linejoin="round" fill="none" stroke="#00973d" d="M834.38 699.415c.058.466.087.86.087 1.184 0 .324-.015.88-.044 1.67-.028.79-.261 2.24-.699 4.35-.437 2.111-1.096 4.766-1.977 7.964-.88 3.198-1.967 6.661-3.262 10.39-1.295 3.729-2.74 7.866-4.333 12.41-1.594 4.545-3.306 8.623-5.136 12.236a279.153 279.153 0 0 1-5.8 10.843c-2.038 3.617-4.42 7.43-7.148 11.44-2.727 4.009-4.359 6.35-4.894 7.024-.535.673-1.113 1.299-1.735 1.877"/></g><clipPath id="x"><path transform="matrix(1 0 0 -1 0 768)" d="M387.866 402.164h40.811v72.563h-40.811z"/></clipPath><g clip-path="url(#x)"><path stroke-width="14.6" stroke-linecap="round" stroke-linejoin="round" fill="none" stroke="#00973d" d="M405.82 312.132v-2.652c0-.168-.017-.294-.05-.378a.556.556 0 0 0-.1-.177.166.166 0 0 0-.125-.052c-.05 0-.107.027-.174.08-.066.053-.124.211-.174.476-.05.264-.108.657-.174 1.176-.067.52-.144 1.206-.23 2.06-.088.852-.198 1.846-.33 2.982a904.204 904.204 0 0 1-.424 3.558c-.15 1.235-.274 2.43-.373 3.585-.1 1.155-.158 2.25-.175 3.287a26.263 26.263 0 0 0 .175 3.333 65.08 65.08 0 0 0 .597 4.034 194.857 194.857 0 0 1 1.183 7.572c.116.868.265 1.612.448 2.231.183.62.415 1.17.697 1.653.282.482.633.959 1.052 1.429.42.47.872.963 1.357 1.48.486.516.944.983 1.376 1.4.431.417.788.693 1.07.826.283.134.525.144.729.028.203-.115.363-.473.479-1.073.116-.601.207-1.337.274-2.209.066-.871.108-1.557.124-2.058.017-.501.025-.86.025-1.079v-5.536c0-.337-.008-1.207-.025-2.61a186.663 186.663 0 0 0-.149-5.187 189.497 189.497 0 0 0-.299-5.565c-.116-1.656-.249-3.01-.398-4.061a30.288 30.288 0 0 0-.48-2.657c-.17-.719-.363-1.254-.578-1.606-.216-.351-.407-.56-.573-.625-.166-.066-.282-.098-.349-.098h-.1l.2.224c.133.15.24.258.324.327"/></g><clipPath id="y"><path transform="matrix(1 0 0 -1 0 768)" d="M439.979 390.876h42.255v71.759h-42.255z"/></clipPath><g clip-path="url(#y)"><path stroke-width="14.6" stroke-linecap="round" stroke-linejoin="round" fill="none" stroke="#00973d" d="M458.679 321.31a.812.812 0 0 0-.025-.2c-.017-.066-.05-.106-.1-.122a.585.585 0 0 0-.174-.023.87.87 0 0 0-.199.023.836.836 0 0 0-.249.121c-.1.066-.185.133-.255.201-.07.069-.14.145-.206.229-.066.084-.132.235-.199.453-.066.218-.133.585-.199 1.102-.066.516-.158 1.325-.274 2.427-.116 1.102-.34 3.416-.672 6.942-.332 3.526-.506 5.591-.523 6.195-.017.604-.008 1.809.025 3.614s.29 3.593.772 5.364c.481 1.77 1.014 3.566 1.6 5.387.585 1.82 1.128 3.309 1.63 4.463.502 1.155.994 2.008 1.476 2.559.481.55.964.918 1.45 1.101.485.184.936.293 1.35.327.416.034.824-.107 1.227-.425.402-.317.736-.986 1.002-2.007.266-1.021.415-2.325.448-3.912.033-1.588.05-3.276.05-5.066s-.116-3.51-.349-5.163a32.178 32.178 0 0 0-.977-4.612c-.419-1.423-.87-2.886-1.35-4.389a345.073 345.073 0 0 1-1.426-4.56 90.297 90.297 0 0 1-1.201-4.287 68.2 68.2 0 0 1-.747-3.235c-.166-.837-.274-1.372-.324-1.606-.05-.233-.083-.34-.1-.322a3.44 3.44 0 0 0-.155.229 4.11 4.11 0 0 1-.405.5c-.182.199-.382.39-.597.574a5.541 5.541 0 0 0-.623.625 3.88 3.88 0 0 0-.523.803c-.15.302-.242.662-.28 1.079-.037.417-.056.876-.056 1.377v1.279"/></g><clipPath id="z"><path transform="matrix(1 0 0 -1 0 768)" d="M237.143 335.022h38.819v59.127h-38.819z"/></clipPath><g clip-path="url(#z)"><path stroke-width="14.6" stroke-linecap="round" stroke-linejoin="round" fill="none" stroke="#00973d" d="M253.751 392.803v1.083c0 .25-.025.508-.074.775-.05.268-.108.568-.175.901-.066.333-.151.718-.255 1.154-.104.435-.197.995-.28 1.68a30.123 30.123 0 0 0-.174 2.582 64.261 64.261 0 0 0 0 3.585c.033 1.354.201 2.649.504 3.884a27.247 27.247 0 0 0 1.027 3.334c.382.986.774 1.864 1.176 2.633.403.768.803 1.403 1.202 1.904.398.502.765.803 1.102.906.336.103.637.011.902-.275.266-.287.498-1.015.697-2.185.2-1.17.366-2.465.498-3.884.133-1.42.243-2.798.33-4.137.087-1.338.13-2.65.13-3.935 0-1.286-.068-2.506-.204-3.66a18.59 18.59 0 0 0-.779-3.51 38.888 38.888 0 0 0-1.176-3.208c-.403-.953-.745-1.654-1.027-2.106-.282-.45-.515-.71-.697-.775-.183-.065-.316-.023-.399.126-.083.15-.132.425-.149.827-.017.401-.008.81.025 1.228.033.417.091.71.174.877"/></g><clipPath id="A"><path transform="matrix(1 0 0 -1 0 768)" d="M279.125 340.268h38.06v58.128h-38.06z"/></clipPath><g clip-path="url(#A)"><path stroke-width="14.6" stroke-linecap="round" stroke-linejoin="round" fill="none" stroke="#00973d" d="M298.074 388.566a2.786 2.786 0 0 1-.398-.173 1.386 1.386 0 0 0-.498-.15 5.608 5.608 0 0 0-.523-.023c-.183 0-.376.174-.579.523-.203.349-.396.984-.579 1.905-.182.921-.348 2.31-.498 4.164-.15 1.855-.232 3.96-.249 6.317-.016 2.356.083 4.361.3 6.017.215 1.656.566 2.859 1.051 3.609.486.75 1.01 1.167 1.575 1.251.564.084 1.064-.025 1.5-.327.436-.302.828-.719 1.176-1.25a7.146 7.146 0 0 0 .828-1.756c.204-.638.322-1.4.355-2.283.033-.884.05-1.953.05-3.207 0-1.255-.102-2.767-.305-4.538-.203-1.771-.504-3.5-.903-5.187-.398-1.687-.823-3.125-1.276-4.313-.452-1.19-.869-2.084-1.25-2.685-.383-.6-.673-.96-.872-1.078-.2-.118-.316-.16-.349-.126-.033.034.017.16.15.378"/></g><clipPath id="B"><path transform="matrix(1 0 0 -1 0 768)" d="M76.86 70.4H186.45v152.336H76.86z"/></clipPath><g clip-path="url(#B)"><path stroke-width="16.8" stroke-linecap="round" stroke-linejoin="round" fill="none" stroke="#00973d" d="M168.65 563.064h-.068c-.046 0-.116.035-.208.104a1.23 1.23 0 0 0-.241.24.966.966 0 0 1-.276.239c-.116.07-.28.186-.492.35-.213.164-.481.373-.803.628a41.66 41.66 0 0 0-1.174.97c-.46.393-.981.857-1.562 1.392a93.157 93.157 0 0 1-4.126 3.586 80.917 80.917 0 0 1-2.607 2.047c-.95.716-1.922 1.48-2.918 2.291a26.404 26.404 0 0 0-2.883 2.752 49.178 49.178 0 0 0-2.848 3.476 47.373 47.373 0 0 0-2.806 4.202 237.29 237.29 0 0 1-2.563 4.208 52.52 52.52 0 0 1-2.434 3.58 74.5 74.5 0 0 1-2.434 3.094 92.769 92.769 0 0 1-2.702 3.095 82.11 82.11 0 0 1-3.297 3.405 253.945 253.945 0 0 0-3.686 3.683 31.053 31.053 0 0 0-3.367 4.066c-.995 1.437-1.815 2.853-2.46 4.247a254.49 254.49 0 0 1-1.77 3.755 58.661 58.661 0 0 1-1.872 3.54 56.323 56.323 0 0 1-2.322 3.723 83.21 83.21 0 0 1-2.434 3.412 177.533 177.533 0 0 0-2.184 2.952 29.332 29.332 0 0 0-1.77 2.745c-.512.906-.986 1.81-1.424 2.712a786.39 786.39 0 0 1-1.459 2.991l-1.665 3.405a90.228 90.228 0 0 1-1.77 3.438 46.48 46.48 0 0 1-1.735 2.958 34.127 34.127 0 0 0-1.243 2.053c-.276.509-.475.89-.596 1.145-.12.255-.238.51-.353.764-.116.255-.23.523-.346.803-.115.28-.276.57-.483.868-.207.297-.426.632-.656 1.003-.23.371-.437.708-.622 1.01-.184.302-.345.57-.483.803a8.035 8.035 0 0 0-.354.66c-.098.207-.193.427-.285.66-.092.233-.172.43-.241.59-.07.16-.127.345-.173.556a8.669 8.669 0 0 1-.173.66c-.069.23-.138.471-.207.726-.069.254-.138.498-.207.731-.069.233-.127.477-.173.732a6.886 6.886 0 0 1-.172.731c-.07.233-.138.466-.207.7a6.39 6.39 0 0 0-.173.763 8.183 8.183 0 0 1-.173.797 9.109 9.109 0 0 0-.276 1.495 6.736 6.736 0 0 0-.034.66V675.935c0 .116.011.257.034.42.023.165.046.316.07.454.022.138.034.276.034.414v.382c0 .117.011.233.034.35.023.116.046.22.07.31.022.091.034.184.034.279 0 .095.023.188.069.278.046.09.092.17.138.24.046.069.092.127.138.174.046.048.115.106.207.175a.748.748 0 0 0 .276.136c.093.022.208.056.346.104.138.047.287.071.449.071.16 0 .37.013.63.039.259.026.56.039.906.039h1.174c.437 0 .947-.013 1.528-.04a8.933 8.933 0 0 0 1.907-.316c.69-.186 1.373-.393 2.046-.622a41.096 41.096 0 0 0 1.985-.731c.65-.26 1.31-.538 1.977-.836a27.37 27.37 0 0 0 1.908-.938 63.72 63.72 0 0 0 1.907-1.081c.668-.393 1.338-.82 2.011-1.282a42.46 42.46 0 0 0 1.917-1.392c.604-.466 1.217-.93 1.838-1.392a22.373 22.373 0 0 1 1.804-1.217 57.318 57.318 0 0 1 3.332-1.87c.581-.303 1.137-.594 1.666-.875.53-.28 1.05-.548 1.562-.803.513-.254 1.033-.509 1.563-.763.53-.255 1.047-.51 1.553-.764.507-.255.97-.486 1.39-.693.42-.207.803-.404 1.148-.59.345-.185.645-.347.898-.485a3.93 3.93 0 0 1 .595-.278c.144-.048.262-.082.354-.104.092-.021.15-.032.173-.032h.069a.245.245 0 0 0 .104-.039.827.827 0 0 1 .207-.071c.092-.022.184-.045.276-.071a3.888 3.888 0 0 0 .621-.24c.093-.047.173-.082.242-.103a.69.69 0 0 1 .207-.033c.07 0 .127-.013.173-.039a.245.245 0 0 1 .103-.038c.024 0 .047-.011.07-.033l.034-.032H136.541c.023 0 .046-.011.069-.033.023-.021.057-.032.103-.032.046 0 .08-.013.104-.039.023-.026.046-.05.069-.071.023-.022.046-.032.069-.032h.069a.245.245 0 0 0 .104-.04c.046-.025.095-.049.146-.07l.147-.065a.317.317 0 0 0 .104-.071.316.316 0 0 1 .103-.072.322.322 0 0 1 .138-.032c.046 0 .092-.01.138-.032a.316.316 0 0 0 .104-.072.317.317 0 0 1 .104-.07c.046-.022.092-.046.138-.072a.547.547 0 0 0 .103-.071.404.404 0 0 1 .242-.097c.046 0 .08-.013.104-.04.023-.025.046-.049.069-.07a.406.406 0 0 1 .103-.065c.046-.022.115-.056.207-.104a.801.801 0 0 0 .208-.142"/></g><clipPath id="C"><path transform="matrix(1 0 0 -1 0 768)" d="M793.551 64.289h135.693v177.842H793.551z"/></clipPath><g clip-path="url(#C)"><path stroke-width="16.8" stroke-linecap="round" stroke-linejoin="round" fill="none" stroke="#00973d" d="M811.35 543.669c.139 0 .265.022.38.065.116.043.311.146.587.31.277.164.728.443 1.356.836.627.392 1.542.97 2.745 1.735 1.202.763 2.704 1.911 4.505 3.444 1.802 1.532 3.651 3.422 5.55 5.67a414.086 414.086 0 0 1 5.49 6.636c1.761 2.175 3.496 4.016 5.205 5.522a49.936 49.936 0 0 0 5.102 3.969c1.691 1.14 3.3 2.287 4.825 3.444a39.702 39.702 0 0 1 4.367 3.858c1.387 1.416 2.74 3.062 4.057 4.94a275.33 275.33 0 0 1 3.893 5.697c1.278 1.92 2.495 3.588 3.651 5.004a43.625 43.625 0 0 0 3.746 4.033 128.685 128.685 0 0 1 4.057 4.033 37.284 37.284 0 0 1 3.678 4.448 49.843 49.843 0 0 1 3.09 5.036 204.307 204.307 0 0 1 2.883 5.568c.95 1.903 1.827 3.619 2.632 5.146a49.222 49.222 0 0 0 2.426 4.137c.811 1.23 1.646 2.447 2.503 3.651a106.684 106.684 0 0 1 2.572 3.788c.858 1.32 1.773 2.792 2.745 4.415a236.24 236.24 0 0 1 2.84 4.868 626.87 626.87 0 0 1 2.598 4.622c.812 1.46 1.53 2.732 2.158 3.82a104.076 104.076 0 0 1 1.666 2.99c.483.907.935 1.811 1.355 2.713.42.902.826 1.806 1.217 2.713.392.906.771 1.8 1.14 2.68.368.88.716 1.782 1.044 2.706.328.923.619 1.815.872 2.674.253.858.46 1.659.621 2.401.162.743.334 1.472.518 2.189.184.716.334 1.342.45 1.877.114.535.218 1.023.31 1.463.092.44.196.891.31 1.353.116.462.22.902.311 1.32.092.42.173.79.242 1.114.07.324.13.626.181.906.052.281.101.536.147.764.046.23.07.425.07.59v1.178c0 .069-.024.127-.07.174-.046.048-.164.095-.354.143-.19.047-.388.082-.595.104a2.916 2.916 0 0 0-.622.135c-.207.07-.426.152-.656.246a14.91 14.91 0 0 1-1.597.557 9.252 9.252 0 0 1-1.182.246c-.46.07-.97.128-1.528.175-.558.048-1.171.071-1.839.071-.667 0-1.35.011-2.045.033-.697.021-1.356.032-1.977.032H895.018c-.72 0-1.436-.035-2.15-.104a19.611 19.611 0 0 1-2.218-.35c-.765-.163-1.507-.325-2.227-.485-.719-.16-1.39-.321-2.01-.485a57.126 57.126 0 0 0-1.84-.453 88.66 88.66 0 0 1-1.734-.415 54.686 54.686 0 0 0-1.632-.382 19.22 19.22 0 0 1-1.597-.42l-1.562-.486a19.84 19.84 0 0 1-1.39-.486 6.423 6.423 0 0 0-1.174-.35l-1.113-.206a9.064 9.064 0 0 0-1.148-.136 30.923 30.923 0 0 1-1.312-.104c-.483-.047-.993-.095-1.528-.142a39.567 39.567 0 0 0-1.424-.104 20.823 20.823 0 0 1-1.252-.103c-.42-.048-.814-.106-1.182-.175a8.51 8.51 0 0 1-1.002-.246c-.299-.095-.578-.188-.837-.279a1.948 1.948 0 0 1-.63-.343 5.853 5.853 0 0 1-.38-.35 3.124 3.124 0 0 1-.242-.278 2.352 2.352 0 0 0-.207-.24.88.88 0 0 0-.172-.142.72.72 0 0 1-.138-.103c-.046-.043-.092-.065-.139-.065a.28.28 0 0 1-.138-.039.28.28 0 0 0-.138-.039h-.103c-.023 0-.046-.023-.07-.07a.399.399 0 0 1-.034-.176v-.103"/></g><clipPath id="D"><path transform="matrix(1 0 0 -1 0 768)" d="M742.731 369.912h37.06v62.877h-37.06z"/></clipPath><g clip-path="url(#D)"><path stroke-width="11.6" stroke-linecap="round" stroke-linejoin="round" fill="none" stroke="#00b449" d="M757.972 352.265c-.333.742-.708 1.705-1.122 2.887-.414 1.183-.736 3.06-.967 5.632-.23 2.573-.299 5.4-.207 8.481.092 3.082.403 5.896.932 8.442.53 2.546 1.108 4.48 1.735 5.8.628 1.321 1.324 1.97 2.09 1.95.765-.022 1.55-.866 2.356-2.532.805-1.666 1.545-3.73 2.218-6.19a70.48 70.48 0 0 0 1.597-7.302c.391-2.408.575-4.874.552-7.4-.023-2.524-.483-5.016-1.38-7.476-.898-2.46-1.845-4.2-2.84-5.218-.996-1.019-1.923-.913-2.78.317-.857 1.23-1.646 3.664-2.365 7.303a203.75 203.75 0 0 0-1.77 10.215c-.46 3.172-.552 5.5-.276 6.985.276 1.485.717 2.227 1.32 2.227"/></g><clipPath id="E"><path transform="matrix(1 0 0 -1 0 768)" d="M784.094 375.052h33.676v59.886h-33.676z"/></clipPath><g clip-path="url(#E)"><path stroke-width="11.6" stroke-linecap="round" stroke-linejoin="round" fill="none" stroke="#00b449" d="M800.026 351.152c-.138.233-.345.545-.621.938-.277.393-.61 1.064-1.002 2.014-.391.949-.75 2.455-1.079 4.518-.328 2.063-.515 4.44-.56 7.128-.047 2.689.103 5.168.448 7.438.345 2.27.797 3.973 1.355 5.108.558 1.135 1.09 1.761 1.597 1.877.506.117.97-.034 1.39-.453.42-.418.791-1.148 1.113-2.188.322-1.04.645-2.326.967-3.858.322-1.532.624-3.248.906-5.147.282-1.899.458-4.03.527-6.396a63.325 63.325 0 0 0-.242-7.438c-.23-2.594-.915-4.748-2.054-6.461-1.14-1.714-1.813-2.57-2.02-2.57-.207 0-.61.74-1.208 2.22-.599 1.48-1.074 3.716-1.425 6.707a81.254 81.254 0 0 0-.56 8.83c-.024 2.896.22 5.19.733 6.882.512 1.692.998 2.747 1.459 3.166"/></g></svg>