<svg xmlns="http://www.w3.org/2000/svg" width="1024pt" height="1024" viewBox="0 0 1024 768"><clipPath id="a"><path transform="matrix(1 0 0 -1 0 768)" d="M342.344 328.896h287.244v287.243H342.344z"/></clipPath><g clip-path="url(#a)"><path stroke-width="22.6" stroke-miterlimit="10" fill="none" stroke="#000" d="M485.966 163.161c73.081 0 132.322 59.24 132.322 132.322 0 73.081-59.241 132.321-132.322 132.321s-132.322-59.24-132.322-132.321c0-73.082 59.241-132.322 132.322-132.322z"/></g><clipPath id="b"><path transform="matrix(1 0 0 -1 0 768)" d="M407.069 432.354h57.479v87.147h-57.479z"/></clipPath><g clip-path="url(#b)"><path stroke-width="22.6" stroke-linecap="round" stroke-linejoin="round" fill="none" stroke="#000" d="M435.351 283.066c-.563.293-1.004.573-1.322.839-.318.266-.644.646-.979 1.14-.334.495-.668 1.196-.999 2.103-.331.907-.623 2.16-.875 3.761-.251 1.6-.399 3.369-.442 5.305a68.01 68.01 0 0 0 .08 5.405c.096 1.668.342 3.27.74 4.805.398 1.536.857 2.771 1.377 3.706.52.934 1.047 1.48 1.58 1.64.534.159 1.08.106 1.64-.16.56-.266 1.088-.8 1.581-1.6.494-.8.913-1.808 1.258-3.023.344-1.215.656-2.537.934-3.966.279-1.43.506-2.811.681-4.146.176-1.334.277-2.669.303-4.003a40.05 40.05 0 0 0-.179-4.403 35.353 35.353 0 0 0-.74-4.682 70.597 70.597 0 0 0-1.044-4.063 163.562 163.562 0 0 1-.98-3.482 74.446 74.446 0 0 0-.854-2.963c-.265-.843-.499-1.457-.7-1.842a6.185 6.185 0 0 0-.523-.861c-.145-.189-.271-.316-.377-.38-.107-.065-.24.036-.398.302a3.523 3.523 0 0 0-.358.797c-.08.266-.207.726-.383 1.38a33.767 33.767 0 0 0-.502 2.184c-.159.803-.331 1.704-.517 2.703-.185.999-.372 2.12-.561 3.362a61.932 61.932 0 0 0-.482 4.406c-.133 1.695-.206 3.677-.22 5.946-.012 2.27-.019 4.39-.019 6.364 0 1.973.04 3.78.12 5.424.079 1.642.178 3.077.298 4.305.119 1.228.253 1.98.402 2.26.15.278.317.324.502.137.186-.186.411-.5.676-.94.265-.44.558-.939.88-1.498a18.7 18.7 0 0 0 .92-1.841c.291-.669.584-1.403.88-2.203.294-.8.461-1.288.501-1.462"/></g><clipPath id="c"><path transform="matrix(1 0 0 -1 0 768)" d="M491.486 436.112h57.28v86.237h-57.28z"/></clipPath><g clip-path="url(#c)"><path stroke-width="22.6" stroke-linecap="round" stroke-linejoin="round" fill="none" stroke="#000" d="M516.926 279.182a23.33 23.33 0 0 0-1.034 2.922c-.239.88-.372 1.947-.398 3.202-.027 1.255.046 2.77.219 4.545.172 1.774.437 3.489.795 5.144.358 1.655.73 2.922 1.118 3.802.388.88.769 1.447 1.144 1.7.374.254.753.408 1.138.462.384.055.744-.025 1.078-.238.335-.214.668-.687 1-1.42.33-.734.677-1.702 1.038-2.905.361-1.202.701-2.51 1.02-3.925a52.63 52.63 0 0 0 .76-4.104c.188-1.322.296-2.55.323-3.683a11.008 11.008 0 0 0-.383-3.221c-.282-1.014-.69-2.101-1.223-3.262a60.357 60.357 0 0 1-1.575-3.784c-.517-1.361-.963-2.51-1.337-3.444-.375-.935-.675-1.455-.9-1.562-.225-.107-.466.08-.72.563-.256.482-.536 1.276-.84 2.382a75.19 75.19 0 0 0-.94 3.862 363.033 363.033 0 0 0-.94 4.425 65.24 65.24 0 0 0-.76 4.484 45.297 45.297 0 0 0-.363 5.003c-.04 1.827-.033 3.742.02 5.745.053 2.003.253 3.77.601 5.304.348 1.534.71 2.801 1.084 3.803.374 1.001.714 1.775 1.019 2.322.305.547.59.847.855.902.265.055.532-.086.8-.421.268-.336.582-.83.94-1.484.357-.653.717-1.353 1.078-2.099a42.537 42.537 0 0 0 1.76-4.123c.255-.695.482-1.503.68-2.423.2-.919.312-2.147.338-3.683.027-1.535-.08-3.337-.318-5.405s-.585-3.975-1.038-5.722a440.013 440.013 0 0 0-1.198-4.526c-.345-1.27-.638-2.317-.88-3.142-.242-.825-.436-1.358-.582-1.6-.145-.24-.245-.36-.298-.36h-.08l.12-.042"/></g><clipPath id="d"><path transform="matrix(1 0 0 -1 0 768)" d="M141.758 289.955h203.631v203.631H141.758z"/></clipPath><g clip-path="url(#d)"><path stroke-width="22.6" stroke-miterlimit="10" fill="none" stroke="#000" d="M243.573 285.714c49.992 0 90.516 40.524 90.516 90.515 0 49.992-40.524 90.516-90.516 90.516-49.991 0-90.515-40.524-90.515-90.516 0-49.991 40.524-90.515 90.515-90.515z"/></g><clipPath id="e"><path transform="matrix(1 0 0 -1 0 768)" d="M635.39 278.487h215.127v215.128H635.39z"/></clipPath><g clip-path="url(#e)"><path stroke-width="22.6" stroke-miterlimit="10" fill="none" stroke="#000" d="M742.954 285.685c53.166 0 96.263 43.098 96.263 96.264s-43.097 96.264-96.263 96.264c-53.167 0-96.264-43.098-96.264-96.264s43.097-96.264 96.264-96.264z"/></g><clipPath id="f"><path transform="matrix(1 0 0 -1 0 768)" d="M721.507 374.004h55.671v72.84h-55.671z"/></clipPath><g clip-path="url(#f)"><path stroke-width="24" stroke-linecap="round" stroke-linejoin="round" fill="none" stroke="#000" d="M747.853 346.884v2.214c0 .227-.034.974-.103 2.243-.07 1.27-.208 2.948-.415 5.036a595.68 595.68 0 0 0-.544 5.739c-.155 1.738-.241 3.085-.259 4.04-.017.955.087 1.605.311 1.952.225.346.51.58.855.704a2.05 2.05 0 0 0 1.016.106c.332-.051.688-.407 1.068-1.068.38-.66.762-1.599 1.146-2.816.384-1.217.689-2.548.913-3.991.225-1.444.337-2.965.337-4.565 0-1.599-.244-3.45-.732-5.554s-.826-3.347-1.016-3.73c-.19-.381-.423-.65-.7-.805-.276-.156-.457-.225-.543-.21-.087.017-.13.051-.13.103"/></g><clipPath id="g"><path transform="matrix(1 0 0 -1 0 768)" d="M766.488 374.888h54.882v73.52h-54.882z"/></clipPath><g clip-path="url(#g)"><path stroke-width="24" stroke-linecap="round" stroke-linejoin="round" fill="none" stroke="#000" d="M791.488 346.049c.035.485.078.99.13 1.515.052.524.12 1.558.207 3.102.086 1.544.199 3.456.337 5.735.138 2.279.276 4.192.414 5.739.138 1.547.302 2.711.492 3.491.19.78.382 1.336.576 1.666.195.33.387.548.577.655.19.107.362.16.517.16.156 0 .311-.165.467-.495.155-.33.293-.81.414-1.437.12-.628.233-1.35.337-2.166.103-.815.19-1.719.259-2.71.069-.99.112-2.05.13-3.18.016-1.13.025-2.346.025-3.65v-3.575c0-1.078-.009-1.964-.026-2.66-.017-.696-.138-1.287-.363-1.773a6.322 6.322 0 0 0-.699-1.2c-.241-.313-.431-.504-.57-.572-.138-.068-.232-.102-.284-.102h-.078"/></g><clipPath id="h"><path transform="matrix(1 0 0 -1 0 768)" d="M111.851-15.855h51.123v72.516h-51.123z"/></clipPath><g clip-path="url(#h)"><path stroke-width="24" stroke-linecap="round" stroke-linejoin="round" fill="none" stroke="#000" d="M136.851 736.34v9.723c0 1.622.012 3.21.035 4.764.023 1.554.095 2.899.216 4.034.12 1.135.262 2.039.423 2.712.16.673.276 1.055.345 1.146"/></g><clipPath id="i"><path transform="matrix(1 0 0 -1 0 768)" d="M265.185-31.716h428.173v340.764H265.185z"/></clipPath><g clip-path="url(#i)"><path stroke-width="24" stroke-linecap="round" stroke-linejoin="round" fill="none" stroke="#000" d="M291.998 754.13c0 .508.034.983.103 1.423.07.44.139.87.208 1.289.069.418.115.755.138 1.01.023.254.034.405.034.453v.07-.77c0-.418-.057-1.044-.172-1.877a973.53 973.53 0 0 0-.484-3.437c-.207-1.46-.426-3.36-.656-5.704-.23-2.343-.429-5.008-.595-7.995-.167-2.987-.274-5.72-.32-8.202-.046-2.482-.069-4.683-.069-6.603 0-1.921.118-3.891.354-5.911.236-2.02.48-4.176.734-6.467.253-2.292.518-4.459.794-6.5.276-2.042.54-3.839.794-5.393.253-1.553.506-3.163.76-4.83.253-1.665.509-3.612.768-5.839.259-2.227.572-4.719.94-7.477.369-2.758.795-5.282 1.278-7.574.484-2.292 1.027-4.307 1.632-6.047.604-1.739 1.254-3.664 1.95-5.774.697-2.11 1.379-4.556 2.046-7.335.668-2.78 1.338-5.293 2.011-7.542a114.5 114.5 0 0 1 1.977-6.046 606.791 606.791 0 0 1 1.977-5.387 206.2 206.2 0 0 0 2.123-6.014c.742-2.2 1.516-4.484 2.322-6.85a80.397 80.397 0 0 1 2.494-6.466 189.817 189.817 0 0 1 2.573-5.6c.857-1.787 1.738-3.781 2.641-5.982s1.83-4.482 2.78-6.843c.949-2.36 1.944-4.493 2.986-6.396a57.063 57.063 0 0 1 3.263-5.289 154.407 154.407 0 0 0 3.263-4.862 69.111 69.111 0 0 0 3.012-5.179c.967-1.834 1.971-3.828 3.013-5.982a131.689 131.689 0 0 1 3.09-6.014c1.018-1.856 2.002-3.465 2.952-4.83.95-1.363 1.922-2.694 2.917-3.993.996-1.3 2.026-2.657 3.09-4.073a281.942 281.942 0 0 1 3.367-4.382c1.18-1.506 2.44-3.071 3.78-4.694 1.341-1.623 2.624-3.174 3.85-4.654s2.36-2.743 3.401-3.788a56.69 56.69 0 0 1 3.263-3.023 183.93 183.93 0 0 1 3.366-2.816 84.736 84.736 0 0 1 3.263-2.538 70.051 70.051 0 0 1 3.366-2.33 53.863 53.863 0 0 1 3.755-2.227 630.901 630.901 0 0 0 4.066-2.22 37.533 37.533 0 0 0 4.16-2.68 120.326 120.326 0 0 0 4.264-3.302 104.539 104.539 0 0 1 4.446-3.406 59.21 59.21 0 0 1 4.618-3.03 41.208 41.208 0 0 1 4.894-2.466 67.129 67.129 0 0 1 5.17-1.942 123.1 123.1 0 0 0 5.205-1.845c1.715-.652 3.415-1.29 5.101-1.916a168.018 168.018 0 0 1 4.998-1.768 196.626 196.626 0 0 0 5.032-1.767 285.666 285.666 0 0 1 11.42-3.897 310.668 310.668 0 0 1 5.654-1.742c1.801-.535 3.57-1.023 5.308-1.463a97.706 97.706 0 0 1 5.067-1.146 89.422 89.422 0 0 1 5.274-.867c1.876-.255 3.856-.475 5.939-.66 2.083-.186 4.051-.348 5.904-.486a91.67 91.67 0 0 1 5.516-.246c1.824-.026 3.616-.026 5.377 0 1.761.026 3.556.19 5.386.492s3.772.615 5.827.939c2.054.323 4.054.636 5.999.938 1.945.303 3.82.58 5.628.836 1.807.254 3.634.52 5.48.796 1.848.276 3.779.647 5.793 1.113a71.703 71.703 0 0 1 6.007 1.67c1.991.648 3.902 1.308 5.732 1.982 1.83.673 3.588 1.322 5.274 1.948a568.19 568.19 0 0 0 4.825 1.767c1.53.553 3.104 1.12 4.722 1.703 1.616.583 3.294 1.198 5.032 1.845a123.53 123.53 0 0 1 5.067 2.013 49.746 49.746 0 0 1 4.609 2.227c1.433.79 2.8 1.636 4.1 2.538 1.3.902 2.587 1.9 3.858 2.991a107.338 107.338 0 0 1 3.747 3.373 535.025 535.025 0 0 0 3.677 3.437 174.812 174.812 0 0 1 3.78 3.613 110.429 110.429 0 0 1 3.678 3.787 292.487 292.487 0 0 1 3.228 3.548 832.8 832.8 0 0 1 3.09 3.476 62.658 62.658 0 0 1 3.09 3.787 34.767 34.767 0 0 1 2.78 4.35c.857 1.58 1.7 3.192 2.529 4.837a183.423 183.423 0 0 0 2.425 4.654 38.173 38.173 0 0 0 2.469 3.995 86.132 86.132 0 0 0 2.814 3.722c1.018 1.277 2.048 2.6 3.09 3.968a38.366 38.366 0 0 1 2.909 4.448c.897 1.597 1.775 3.392 2.632 5.386.858 1.994 1.704 3.94 2.538 5.84a127.263 127.263 0 0 0 2.33 5.036c.72 1.459 1.436 2.838 2.15 4.137a94.998 94.998 0 0 1 2.011 3.865 59.714 59.714 0 0 1 1.804 4.065 84.803 84.803 0 0 1 1.804 5.004 623.34 623.34 0 0 0 1.839 5.497 119.73 119.73 0 0 0 1.735 4.797 43.766 43.766 0 0 0 1.812 4.065 67.541 67.541 0 0 0 2.046 3.716 85.457 85.457 0 0 1 2.08 3.723 44.95 44.95 0 0 1 1.977 4.35 62.623 62.623 0 0 1 1.77 5.108 349.922 349.922 0 0 1 1.493 5.108c.46 1.622.935 3.14 1.424 4.55.49 1.412.975 2.733 1.459 3.963.483 1.23.958 2.425 1.424 3.586.466 1.161.906 2.47 1.32 3.93a56.522 56.522 0 0 1 1.14 4.933c.345 1.83.659 3.649.941 5.457a304.4 304.4 0 0 1 .768 5.212c.23 1.665.472 3.24.725 4.725.253 1.485.484 2.935.69 4.35.208 1.416.427 3.015.657 4.798.23 1.782.475 3.716.734 5.8.258 2.085.514 4.09.768 6.014.253 1.925.518 3.723.794 5.393s.53 3.235.76 4.694c.23 1.458.425 2.883.586 4.272.162 1.39.36 2.92.596 4.59s.515 3.42.837 5.25c.322 1.83.68 3.51 1.07 5.037.392 1.528.786 2.954 1.183 4.28l1.114 3.722c.345 1.156.644 2.268.897 3.334a51.103 51.103 0 0 1 1.174 7.51c.115 1.393.21 2.761.285 4.104.075 1.342.147 2.673.216 3.994.069 1.32.15 2.583.242 3.787.092 1.204.172 2.294.241 3.27.07.975.104 1.89.104 2.744v2.713c0 .954-.092 2.056-.276 3.308a92.388 92.388 0 0 1-.7 4.065 80.007 80.007 0 0 0-.664 3.891 89.82 89.82 0 0 0-.31 2.33l-.07.629v-.071"/></g><clipPath id="j"><path transform="matrix(1 0 0 -1 0 768)" d="M107.484-14.962h247.2v287.64h-247.2z"/></clipPath><g clip-path="url(#j)"><path stroke-width="24" stroke-linecap="round" stroke-linejoin="round" fill="none" stroke="#000" d="M329.684 552.652a4.766 4.766 0 0 1-.242-.317c-.115-.16-.253-.346-.414-.557-.161-.212-.345-.455-.553-.732a62.389 62.389 0 0 0-2.02-2.538 65.639 65.639 0 0 1-1.63-2.045 246.798 246.798 0 0 1-4.127-5.529 186.08 186.08 0 0 0-2.184-2.952 72.454 72.454 0 0 0-2.39-2.99 28.36 28.36 0 0 0-2.676-2.784 25.193 25.193 0 0 0-2.78-2.195 35.106 35.106 0 0 0-2.917-1.767 36.971 36.971 0 0 0-3.263-1.56 42.694 42.694 0 0 0-3.85-1.392c-1.41-.44-2.926-.915-4.549-1.425-1.623-.509-3.242-.984-4.86-1.424a60.984 60.984 0 0 0-4.86-1.113 54.328 54.328 0 0 0-5.342-.7 85.57 85.57 0 0 0-6.379-.278c-2.313-.021-4.779-.021-7.397 0-2.619.022-5.21.173-7.777.453s-5.099.641-7.596 1.081c-2.498.44-5.079.857-7.743 1.25-2.664.393-5.406.833-8.226 1.32-2.82.488-5.539 1.045-8.157 1.67a86.94 86.94 0 0 0-7.708 2.221c-2.52.855-5.19 1.839-8.01 2.952a59.117 59.117 0 0 0-8.054 3.898 44.954 44.954 0 0 0-7.259 5.282 456.365 456.365 0 0 1-7.147 6.222 202.373 202.373 0 0 1-7.389 6.014c-2.451 1.899-4.523 3.741-6.215 5.528-1.691 1.787-3.277 3.86-4.756 6.222-1.479 2.36-2.958 5.142-4.436 8.344a187.696 187.696 0 0 1-4.342 8.83 510.791 510.791 0 0 1-4.17 7.75c-1.363 2.481-2.6 5.507-3.71 9.076a183.263 183.263 0 0 0-2.884 10.254 664.627 664.627 0 0 1-2.287 8.967c-.714 2.71-1.419 5.932-2.115 9.665a311.924 311.924 0 0 1-2.184 10.708c-.76 3.405-1.545 6.73-2.356 9.976-.812 3.245-1.566 6.907-2.262 10.986a847.5 847.5 0 0 0-1.735 10.5c-.46 2.922-.854 5.865-1.182 8.83a352.684 352.684 0 0 0-.976 10.494c-.322 4.031-.69 7.786-1.105 11.265-.414 3.478-.843 7.35-1.286 11.614a645.4 645.4 0 0 0-1.113 11.646c-.3 3.5-.472 6.362-.518 8.584a155.13 155.13 0 0 0 .034 7.264c.07 2.62.208 5.134.415 7.542a456.8 456.8 0 0 0 .518 5.697c.138 1.39.244 2.49.319 3.301.075.812.112 1.382.112 1.71"/></g><clipPath id="k"><path transform="matrix(1 0 0 -1 0 768)" d="M288.922 126.115h324.886v121.678H288.922z"/></clipPath><g clip-path="url(#k)"><path stroke-width="24" stroke-linecap="round" stroke-linejoin="round" fill="none" stroke="#000" d="M313.922 616.885H319.032c1.922 0 4.849-.056 8.779-.168 3.93-.113 8.234-.32 12.913-.622 4.678-.302 9.56-.662 14.648-1.081a264.868 264.868 0 0 0 15.062-1.67c4.955-.695 10.764-1.61 17.428-2.745 6.663-1.135 12.308-2.178 16.935-3.127 4.627-.95 9.993-2.085 16.098-3.405a598.117 598.117 0 0 0 18.222-4.24 342.87 342.87 0 0 0 17.669-4.901 713.001 713.001 0 0 1 17.073-5.011 705.885 705.885 0 0 0 16.073-4.693 951.382 951.382 0 0 0 15.545-4.901 285.323 285.323 0 0 0 15.442-5.496c5.001-1.947 9.665-3.939 13.993-5.976 4.327-2.037 6.847-3.23 7.56-3.58.714-.35 2.622-1.126 5.724-2.33 3.101-1.204 5.67-2.108 7.708-2.713 2.037-.604 3.427-1.033 4.169-1.288.742-.255 3.056-1.17 6.94-2.745 3.884-1.575 6.948-2.93 9.193-4.065 2.244-1.135 4.223-2.143 5.938-3.024a221.97 221.97 0 0 0 3.47-1.806c.599-.324 1.048-.602 1.347-.835.299-.233.613-.488.94-.764.329-.276.562-.427.7-.453.138-.026.207.043.207.207 0 .164-.012.27-.035.317"/></g><clipPath id="l"><path transform="matrix(1 0 0 -1 0 768)" d="M280.118 35.793h372.274v137.461H280.118z"/></clipPath><g clip-path="url(#l)"><path stroke-width="24" stroke-linecap="round" stroke-linejoin="round" fill="none" stroke="#000" d="M305.118 706.158c.046.561.104.853.173.874.069.022.322.056.76.104.437.047 1.2.071 2.287.071s2.535-.082 4.341-.246c1.807-.164 4.006-.315 6.595-.453 2.59-.138 5.63-.31 9.124-.518 3.493-.207 7.058-.53 10.694-.971 3.637-.44 7.513-.973 11.627-1.6a779.458 779.458 0 0 0 12.974-2.09 577.637 577.637 0 0 0 13.258-2.402 654.577 654.577 0 0 1 13.992-2.538c5.024-.858 10.151-1.739 15.382-2.64a367.061 367.061 0 0 0 16.098-3.16 170.426 170.426 0 0 0 16.728-4.59 719.125 719.125 0 0 0 16.875-5.775 216.16 216.16 0 0 1 17.35-5.353c5.967-1.576 11.808-3.14 17.522-4.694a1539.69 1539.69 0 0 0 17.488-4.868 306.195 306.195 0 0 0 17.704-5.626 252.2 252.2 0 0 0 16.728-6.532 161.97 161.97 0 0 1 16.452-6.085c5.674-1.761 10.974-3.442 15.9-5.043a387.267 387.267 0 0 0 14.087-4.869c4.465-1.644 8.352-3.301 11.661-4.972 3.31-1.67 6.41-3.258 9.305-4.764a228.377 228.377 0 0 1 7.57-3.787c2.152-1.019 3.922-1.794 5.309-2.325 1.387-.53 2.402-.854 3.047-.97.644-.117 1.013-.244 1.105-.383"/></g><clipPath id="m"><path transform="matrix(1 0 0 -1 0 768)" d="M521.875-24.763h98.251v149.774h-98.251z"/></clipPath><g clip-path="url(#m)"><path stroke-width="24" stroke-linecap="round" stroke-linejoin="round" fill="none" stroke="#000" d="M546.875 667.989c.046 1.346.15 2.68.31 4 .162 1.321.395 2.746.7 4.273.305 1.528.78 3.671 1.424 6.429.645 2.758 1.488 6.003 2.53 9.736a150.403 150.403 0 0 0 3.65 11.304c1.393 3.802 2.852 7.764 4.377 11.886 1.525 4.121 3.084 7.608 4.678 10.461a146.247 146.247 0 0 0 5.033 8.345c1.76 2.71 3.556 5.967 5.386 9.769 1.83 3.802 3.714 6.931 5.653 9.387 1.94 2.456 3.928 4.53 5.965 6.221 2.037 1.692 3.553 3.047 4.549 4.066a905.229 905.229 0 0 1 2.641 2.712c.766.79 1.183 1.185 1.252 1.185"/></g><clipPath id="n"><path transform="matrix(1 0 0 -1 0 768)" d="M418.795-33.244h93.521V101.99h-93.521z"/></clipPath><g clip-path="url(#n)"><path stroke-width="24" stroke-linecap="round" stroke-linejoin="round" fill="none" stroke="#000" d="M443.795 691.01c.472.32.8.757.984 1.314.184.557.495 1.692.932 3.405a1452.34 1452.34 0 0 0 2.219 8.52c1.041 3.966 2.442 8.614 4.203 13.944 1.761 5.33 3.718 10.01 5.87 14.042 2.152 4.03 5.032 9.128 8.64 15.29 3.608 6.164 5.956 9.94 7.044 11.33 1.087 1.39 2.451 3.336 4.091 5.84 1.64 2.503 3.191 4.706 4.653 6.61 1.461 1.902 2.641 3.201 3.539 3.896"/></g><clipPath id="o"><path transform="matrix(1 0 0 -1 0 768)" d="M342.37-35.807h77.777V83.786H342.37z"/></clipPath><g clip-path="url(#o)"><path stroke-width="24" stroke-linecap="round" stroke-linejoin="round" fill="none" stroke="#000" d="M367.37 709.214h0v.278c0 .186.026 1.069.078 2.648.051 1.58.515 4.338 1.39 8.274.874 3.936 2.26 8.87 4.16 14.805a142.14 142.14 0 0 0 6.663 17.04c2.544 5.424 5.079 10.036 7.605 13.834 2.526 3.798 4.471 6.866 5.835 9.205"/></g><clipPath id="p"><path transform="matrix(1 0 0 -1 0 768)" d="M206.679 130.142h118.64v131.557h-118.64z"/></clipPath><g clip-path="url(#p)"><path stroke-width="24" stroke-linecap="round" stroke-linejoin="round" fill="none" stroke="#000" d="M231.68 531.301H232.024c.046 0 .126.14.241.421.115.28.3.792.553 1.534.253.743.75 1.981 1.493 3.716.742 1.735 1.91 4.144 3.505 7.225 1.594 3.082 3.501 6.245 5.722 9.49a349.902 349.902 0 0 0 6.491 9.18 247.14 247.14 0 0 1 6.353 9.11 65.355 65.355 0 0 0 7.225 9.004c2.687 2.805 5.8 5.529 9.34 8.17 3.539 2.641 6.73 5.458 9.572 8.448 2.843 2.991 5.18 5.447 7.01 7.368 1.83 1.92 3.449 3.379 4.859 4.376 1.41.997 2.75 1.832 4.022 2.505"/></g><clipPath id="q"><path transform="matrix(1 0 0 -1 0 768)" d="M142.546 77.03h175.073v135.377H142.546z"/></clipPath><g clip-path="url(#q)"><path stroke-width="24" stroke-linecap="round" stroke-linejoin="round" fill="none" stroke="#000" d="M168.374 581.15a1.656 1.656 0 0 1-.31-.201l-.311-.246c-.092-.073-.15-.11-.173-.11-.023 0 .058.127.242.382.184.254.716.846 1.597 1.774.88.928 2.175 2.192 3.884 3.793l7.872 7.374c3.54 3.314 7.599 7.15 12.18 11.504 4.58 4.354 8.954 8.107 13.12 11.258a729.878 729.878 0 0 0 13.888 10.222 194.171 194.171 0 0 0 15.762 10.222c5.415 3.15 10.758 5.895 16.029 8.235 5.27 2.339 10.093 4.69 14.467 7.056 4.373 2.365 7.938 4.29 10.694 5.775 2.757 1.484 4.978 2.632 6.664 3.444 1.686.811 3.222 1.517 4.61 2.117 1.386.6 2.405 1.12 3.055 1.56"/></g><clipPath id="r"><path transform="matrix(1 0 0 -1 0 768)" d="M117.617 48.792h127.807v105.623H117.617z"/></clipPath><g clip-path="url(#r)"><path stroke-width="24" stroke-linecap="round" stroke-linejoin="round" fill="none" stroke="#000" d="M145.397 694.208h-2.78l.622-.389c.414-.259 1.56-.884 3.435-1.877 1.876-.993 4.641-2.462 8.295-4.409 3.654-1.946 7.61-4.218 11.869-6.817 4.258-2.598 8.194-5.183 11.808-7.755a241.133 241.133 0 0 0 10.764-8.131c3.562-2.849 6.776-5.861 9.642-9.038 2.865-3.176 5.42-5.748 7.664-7.716 2.245-1.969 4.282-3.43 6.112-4.383 1.83-.954 3.3-1.744 4.41-2.37 1.111-.625 1.897-1.146 2.357-1.56.46-.414.714-.714.76-.9.046-.185.057-.278.034-.278"/></g><clipPath id="s"><path transform="matrix(1 0 0 -1 0 768)" d="M115.684-8.565h174.383v141.228H115.684z"/></clipPath><g clip-path="url(#s)"><path stroke-width="24" stroke-linecap="round" stroke-linejoin="round" fill="none" stroke="#000" d="M141.789 750.374c-.046.19-.127.354-.242.492-.115.138-.23.266-.345.382a1.302 1.302 0 0 1-.31.246.595.595 0 0 1-.174.071h-.034.138c.092 0 .53-.233 1.312-.699.783-.466 1.997-1.266 3.643-2.401 1.645-1.136 3.901-2.676 6.767-4.623a642.814 642.814 0 0 0 10.237-7.127 184.647 184.647 0 0 1 12.05-7.86 484.564 484.564 0 0 1 13.051-7.51c4.627-2.571 9.31-5.931 14.053-10.079a216.874 216.874 0 0 1 15.13-12.06c5.347-3.893 12.347-9.744 21.002-17.55 8.655-7.808 14.265-12.605 16.832-14.392a313.437 313.437 0 0 1 6.275-4.28c1.617-1.065 2.67-1.773 3.16-2.123"/></g><clipPath id="t"><path transform="matrix(1 0 0 -1 0 768)" d="M171.134-48.185h132.122V78.154H171.134z"/></clipPath><g clip-path="url(#t)"><path stroke-width="24" stroke-linecap="round" stroke-linejoin="round" fill="none" stroke="#000" d="M278.256 714.846c-.23.51-.52 1.042-.872 1.6a30.144 30.144 0 0 1-1.217 1.773c-.46.626-1.038 1.32-1.735 2.085-.696.764-1.646 1.633-2.848 2.609-1.203.975-2.67 2.054-4.402 3.236a804.897 804.897 0 0 1-5.758 3.891c-2.106 1.411-4.42 3.334-6.94 5.768-2.52 2.434-5.76 5.762-9.719 9.983-3.959 4.22-7.29 7.488-9.995 9.801-2.705 2.314-5.666 5.093-8.882 8.338a339.682 339.682 0 0 0-10.074 10.643c-3.498 3.85-6.646 6.886-9.443 9.109-2.796 2.223-5.202 4.029-7.216 5.419"/></g><clipPath id="u"><path transform="matrix(1 0 0 -1 0 768)" d="M70.557 40.312h124.268v188.357H70.557z"/></clipPath><g clip-path="url(#u)"><path stroke-width="24" stroke-linecap="round" stroke-linejoin="round" fill="none" stroke="#000" d="M169.825 564.33c0 .139-.035.311-.104.519-.07.207-.161.427-.276.66-.115.233-.265.5-.45.803-.183.302-.39.615-.62.938-.23.324-.487.695-.769 1.114l-.94 1.392c-.346.509-.703 1.064-1.071 1.663-.368.6-.774 1.284-1.217 2.053-.443.768-.918 1.603-1.424 2.505a144.01 144.01 0 0 1-1.52 2.641 33.642 33.642 0 0 1-1.63 2.506 34.981 34.981 0 0 1-1.883 2.395 53.68 53.68 0 0 1-2.114 2.324c-.737.764-1.5 1.565-2.288 2.402a29.864 29.864 0 0 0-2.192 2.609 18.793 18.793 0 0 0-1.77 2.88 35.687 35.687 0 0 0-1.45 3.373c-.46 1.23-.958 2.564-1.493 4.001a91.054 91.054 0 0 1-1.7 4.24 30.048 30.048 0 0 1-2.012 3.891 28.79 28.79 0 0 1-2.296 3.237c-.788.954-1.588 1.927-2.4 2.92-.81.993-1.62 2.011-2.425 3.056a38.641 38.641 0 0 0-2.356 3.444 58.201 58.201 0 0 0-2.365 4.311c-.812 1.623-1.62 3.233-2.426 4.83a101.388 101.388 0 0 1-2.253 4.24 84.144 84.144 0 0 1-1.985 3.34 132.2 132.2 0 0 0-1.666 2.713c-.483.811-.944 1.61-1.381 2.395a40.152 40.152 0 0 0-1.32 2.61 121.733 121.733 0 0 0-2.918 6.842c-.49 1.252-.999 2.561-1.528 3.93a74.825 74.825 0 0 1-1.562 3.754 57.938 57.938 0 0 1-1.425 2.959 50.492 50.492 0 0 1-1.312 2.363 44.54 44.54 0 0 0-1.217 2.188c-.374.72-.733 1.418-1.079 2.09-.345.674-.69 1.393-1.036 2.157-.345.764-.681 1.517-1.01 2.259a116.9 116.9 0 0 0-.94 2.188c-.3.717-.599 1.435-.898 2.156-.3.72-.613 1.428-.94 2.123-.329.695-.631 1.356-.907 1.981a57.626 57.626 0 0 0-.829 1.981l-.829 2.085a72.39 72.39 0 0 1-.802 1.942l-.768 1.774a23.201 23.201 0 0 1-1.381 2.713c-.208.345-.415.68-.622 1.003-.207.323-.391.636-.552.938-.162.303-.314.594-.458.874-.144.281-.285.536-.423.764-.138.23-.253.47-.345.725-.092.255-.184.499-.276.732a8.387 8.387 0 0 0-.242.7c-.07.232-.115.465-.138.698a7.045 7.045 0 0 0-.035.693v1.56c0 .07.058.117.173.143.115.025.253.038.414.038h.484c.16 0 .36-.047.595-.142l.872-.35a9.503 9.503 0 0 0 1.278-.66 26.813 26.813 0 0 1 1.804-.971 76.164 76.164 0 0 1 2.192-1.042c.765-.35 1.528-.686 2.287-1.01a78.99 78.99 0 0 1 2.391-.971c.835-.324 1.658-.637 2.47-.939.81-.302 1.587-.593 2.33-.874.742-.28 1.481-.583 2.218-.906a33.948 33.948 0 0 0 2.218-1.075 42.29 42.29 0 0 0 2.15-1.217 140.419 140.419 0 0 0 4.549-2.88c.81-.536 1.622-1.082 2.434-1.639a49.363 49.363 0 0 0 2.46-1.806 81.622 81.622 0 0 0 2.356-1.91 29.319 29.319 0 0 0 1.873-1.702c.507-.51.947-.939 1.32-1.288.375-.35.643-.583.804-.7.16-.116.287-.185.38-.207l.138-.032h.103c.07 0 .138-.011.207-.033"/></g><clipPath id="v"><path transform="matrix(1 0 0 -1 0 768)" d="M162.243 359.223h53.626v74.471h-53.626z"/></clipPath><g clip-path="url(#v)"><path stroke-width="24" stroke-linecap="round" stroke-linejoin="round" fill="none" stroke="#000" d="M190.869 359.306H190.092c-.184 0-.368.045-.553.136-.184.09-.39.356-.621.796-.23.44-.46 1.124-.69 2.052-.23.928-.415 2.169-.553 3.723-.138 1.553-.245 3.349-.32 5.386a159.366 159.366 0 0 0-.112 5.84c0 1.855.015 3.281.043 4.278.03.997.136 1.623.32 1.878.184.254.357.358.518.31.16-.047.322-.267.483-.66.161-.393.345-1.1.553-2.123.207-1.023.471-2.553.794-4.59.322-2.037.532-3.31.63-3.82"/></g><clipPath id="w"><path transform="matrix(1 0 0 -1 0 768)" d="M208.475 356.232h57.009v78.576h-57.009z"/></clipPath><g clip-path="url(#w)"><path stroke-width="24" stroke-linecap="round" stroke-linejoin="round" fill="none" stroke="#000" d="M236.53 358.192h0v.104c0 .069-.034.31-.103.725-.07.414-.3 1.33-.69 2.745a48.737 48.737 0 0 0-1.002 4.454c-.276 1.554-.532 3.548-.768 5.982a91.136 91.136 0 0 0-.423 6.603c-.046 1.968-.046 3.578 0 4.83.046 1.25.233 2.086.56 2.505.329.418.643.628.942.628.299 0 .61-.384.932-1.153.322-.768.647-1.812.975-3.133.328-1.32.665-2.756 1.01-4.305.346-1.55.714-3.183 1.105-4.9a76.096 76.096 0 0 0 1.001-5.25"/></g><clipPath id="x"><path transform="matrix(1 0 0 -1 0 768)" d="M604.757-9.189h290.238v279.496H604.757z"/></clipPath><g clip-path="url(#x)"><path stroke-width="24" stroke-linecap="round" stroke-linejoin="round" fill="none" stroke="#000" d="M629.757 598.89h.034c.023 0 .08-.035.173-.104.092-.069.325-.567.7-1.495.373-.928 1.043-2.448 2.01-4.558.967-2.11 2.561-4.637 4.782-7.58 2.221-2.944 4.086-5.052 5.594-6.326a97.406 97.406 0 0 1 4.894-3.858c1.755-1.3 3.594-2.83 5.516-4.59 1.921-1.76 3.97-3.822 6.145-6.182a63.489 63.489 0 0 1 7.147-6.636 48.61 48.61 0 0 1 8.26-5.322c2.918-1.484 5.836-2.98 8.753-4.486 2.918-1.506 5.867-3.047 8.848-4.622 2.98-1.575 6.16-3.13 9.538-4.661 3.378-1.532 6.468-2.935 9.27-4.208 2.803-1.273 5.545-2.223 8.226-2.849a323.82 323.82 0 0 1 8.606-1.877 90.015 90.015 0 0 0 8.718-2.227 203.922 203.922 0 0 1 7.881-2.292c2.498-.669 5.214-1.189 8.148-1.56 2.935-.371 5.631-.591 8.088-.66 2.457-.07 4.713-.024 6.768.136 2.054.16 4.146.483 6.275.97 2.129.488 4.376 1.162 6.741 2.02a36.412 36.412 0 0 1 6.698 3.231c2.1 1.295 4.215 3.114 6.345 5.457a222.369 222.369 0 0 1 5.386 6.118 113.258 113.258 0 0 0 4.721 5.25c1.686 1.766 3.41 3.47 5.17 5.115a60.265 60.265 0 0 1 5.137 5.457c1.663 1.994 3.153 4.404 4.47 7.231a179.48 179.48 0 0 0 3.997 8.06 194.631 194.631 0 0 0 3.928 7.089 86.319 86.319 0 0 1 3.573 6.817c1.111 2.365 2.21 5.134 3.298 8.306a113.627 113.627 0 0 0 3.47 8.934c1.225 2.783 2.359 5.38 3.4 7.788 1.042 2.408 1.98 5.27 2.814 8.584.835 3.314 1.62 6.629 2.357 9.943.736 3.315 1.453 6.213 2.15 8.695.696 2.481 1.389 5.356 2.08 8.623.69 3.267 1.36 6.569 2.01 9.905.65 3.336 1.255 6.256 1.813 8.759a182.099 182.099 0 0 1 1.666 8.552c.553 3.198 1.12 6.523 1.7 9.976.582 3.452 1.172 6.454 1.77 9.005.599 2.55 1.2 5.263 1.804 8.137a243.696 243.696 0 0 1 1.735 9.174c.553 3.24 1.096 5.928 1.632 8.06a78.294 78.294 0 0 0 1.666 5.774 77.105 77.105 0 0 1 1.596 5.458 67.28 67.28 0 0 1 1.217 5.871c.323 1.994.587 3.954.795 5.878.207 1.925.368 3.583.483 4.972.115 1.39.184 2.501.207 3.334.023.833.035 1.47.035 1.91 0 .44-.012.684-.035.732-.023.047-.161-.115-.414-.486s-.415-.66-.484-.867"/></g><clipPath id="y"><path transform="matrix(1 0 0 -1 0 768)" d="M845.547-31.16h52.227v74.056h-52.227z"/></clipPath><g clip-path="url(#y)"><path stroke-width="24" stroke-linecap="round" stroke-linejoin="round" fill="none" stroke="#000" d="M870.754 750.104c-.046.51-.092.915-.138 1.217-.046.302-.069.732-.069 1.289 0 .556.07 1.392.207 2.505.138 1.114.36 2.48.665 4.098.305 1.618.584 3.308.837 5.069.253 1.76.403 3.36.449 4.797.046 1.437.07 2.643.07 3.619"/></g><clipPath id="z"><path transform="matrix(1 0 0 -1 0 768)" d="M687.984 99.338h184.24v141.28h-184.24z"/></clipPath><g clip-path="url(#z)"><path stroke-width="24" stroke-linecap="round" stroke-linejoin="round" fill="none" stroke="#000" d="M712.984 552.382c.506.924.935 1.687 1.286 2.292.35.604.964 1.519 1.838 2.745.875 1.225 2.25 3.124 4.126 5.696 1.876 2.573 4.33 5.609 7.363 9.11a165.1 165.1 0 0 0 9.27 9.872 420.11 420.11 0 0 1 9.616 9.736c3.263 3.41 6.917 6.597 10.963 9.562 4.045 2.965 7.826 5.444 11.342 7.438a1090.594 1090.594 0 0 1 20.906 12.165c3.332 1.99 6.546 3.83 9.641 5.522a63.963 63.963 0 0 0 9.642 4.279 216.64 216.64 0 0 0 9.063 2.958c2.71.812 5.177 1.576 7.398 2.292 2.221.717 4.186 1.364 5.895 1.942a70.891 70.891 0 0 0 4.55 1.392c1.323.35 2.54.686 3.65 1.01 1.11.324 2.138.66 3.082 1.01s1.764.686 2.46 1.01c.696.324 1.228.589 1.597.796.368.207.552.335.552.382 0 .048-.034.071-.103.071"/></g><clipPath id="A"><path transform="matrix(1 0 0 -1 0 768)" d="M624.334 48.79h259.422v123.776H624.334z"/></clipPath><g clip-path="url(#A)"><path stroke-width="24" stroke-linecap="round" stroke-linejoin="round" fill="none" stroke="#000" d="M650.3 620.577a4.337 4.337 0 0 0-.449-.143h-.207a.534.534 0 0 0-.241.04c-.047.025-.07.155-.07.388s.162.57.484 1.01c.322.44.947 1.11 1.873 2.013.926.902 2.212 2.072 3.858 3.509 1.646 1.437 3.695 3.094 6.146 4.972 2.452 1.877 5.24 3.765 8.364 5.664a1427.3 1427.3 0 0 0 9.227 5.561 314.436 314.436 0 0 1 9.331 5.807c3.194 2.063 6.69 4.092 10.488 6.085 3.798 1.994 7.374 3.697 10.73 5.108a428.895 428.895 0 0 0 9.926 4.033 230.957 230.957 0 0 0 10.237 3.723 782.93 782.93 0 0 0 9.849 3.263c3.004.97 6.114 1.92 9.33 2.848 3.217.928 6.575 1.914 10.074 2.959a250.819 250.819 0 0 1 9.408 2.99c2.774.95 5.539 1.83 8.295 2.642 2.757.811 5.717 1.61 8.882 2.395 3.165.786 6.057 1.422 8.675 1.91 2.619.488 5.142.872 7.57 1.152 2.429.28 4.995.548 7.7.803 2.704.255 5.285.51 7.742.764 2.458.255 4.69.533 6.699.835 2.008.302 3.812.533 5.412.693 1.6.16 3.139.308 4.618.446 1.479.138 2.969.279 4.47.421 1.503.143 2.87.248 4.101.317 1.231.07 2.414.139 3.548.208 1.133.069 2.255.161 3.366.278l2.943.31a34.971 34.971 0 0 0 3.885.214c.483 0 .831.011 1.044.033.213.021.4.043.561.064.161.022.3.057.414.104.116.047.173.095.173.142 0 .048-.034.072-.103.072h-.665"/></g><clipPath id="B"><path transform="matrix(1 0 0 -1 0 768)" d="M640.371 4.574h101.497v119.037H640.371z"/></clipPath><g clip-path="url(#B)"><path stroke-width="24" stroke-linecap="round" stroke-linejoin="round" fill="none" stroke="#000" d="M716.868 669.39c-.276 1.527-.564 2.604-.863 3.23-.3.625-.659 1.333-1.08 2.123-.42.79-.905 1.752-1.458 2.887-.552 1.135-1.154 2.374-1.804 3.716a114.64 114.64 0 0 1-2.15 4.202 93.761 93.761 0 0 1-2.528 4.415 46.247 46.247 0 0 1-2.883 4.208 56.24 56.24 0 0 1-3.194 3.787 179.359 179.359 0 0 1-3.78 3.962 64.348 64.348 0 0 0-4.308 4.9 350.848 350.848 0 0 0-4.273 5.458 95.968 95.968 0 0 1-4.298 5.218 95.61 95.61 0 0 1-4.402 4.661 75.666 75.666 0 0 0-3.85 4.066 60.425 60.425 0 0 0-3.125 3.89 93.683 93.683 0 0 1-2.848 3.684c-.927 1.135-1.761 2.04-2.504 2.712-.742.674-1.274 1.161-1.596 1.463-.323.303-.495.454-.518.454"/></g><clipPath id="C"><path transform="matrix(1 0 0 -1 0 768)" d="M698.325-30.669h93.866v135.506h-93.866z"/></clipPath><g clip-path="url(#C)"><path stroke-width="24" stroke-linecap="round" stroke-linejoin="round" fill="none" stroke="#000" d="M767.19 688.163v1.522c0 .461-.091 1.087-.275 1.877-.184.79-.553 1.834-1.105 3.133-.553 1.3-1.304 3.177-2.253 5.632-.95 2.456-2.037 5.4-3.263 8.83-1.226 3.432-2.497 6.606-3.815 9.524a115.513 115.513 0 0 1-4.273 8.513 193.548 193.548 0 0 0-4.687 9.037c-1.594 3.267-3.214 6.258-4.86 8.973a69.151 69.151 0 0 1-5.204 7.477 86.792 86.792 0 0 0-5.17 7.16 225.63 225.63 0 0 0-4.1 6.532c-1.111 1.851-2 3.31-2.668 4.376-.668 1.066-1.142 1.798-1.424 2.195-.282.397-.47.617-.561.66a.63.63 0 0 1-.173.065"/></g><clipPath id="D"><path transform="matrix(1 0 0 -1 0 768)" d="M773.507-38.67h85.96V93.585h-85.96z"/></clipPath><g clip-path="url(#D)"><path stroke-width="24" stroke-linecap="round" stroke-linejoin="round" fill="none" stroke="#000" d="M834.38 699.415c.058.466.087.86.087 1.184 0 .324-.015.88-.044 1.67-.028.79-.261 2.24-.699 4.35-.437 2.111-1.096 4.766-1.977 7.964-.88 3.198-1.967 6.661-3.262 10.39-1.295 3.729-2.74 7.866-4.333 12.41-1.594 4.545-3.306 8.623-5.136 12.236a279.153 279.153 0 0 1-5.8 10.843c-2.038 3.617-4.42 7.43-7.148 11.44-2.727 4.009-4.359 6.35-4.894 7.024-.535.673-1.113 1.299-1.735 1.877"/></g><clipPath id="E"><path transform="matrix(1 0 0 -1 0 768)" d="M794.672 83.84h116.706v204.27H794.672z"/></clipPath><g clip-path="url(#E)"><path stroke-width="24" stroke-linecap="round" stroke-linejoin="round" fill="none" stroke="#000" d="M820.984 560.578c-.276.56-.53.98-.76 1.256-.23.276-.38.449-.449.518l-.103.103.414-.382c.276-.254.9-.915 1.873-1.98.973-1.067 2.236-2.411 3.79-4.034a314.191 314.191 0 0 1 5.627-5.703c2.199-2.18 4.707-4.66 7.527-7.439 2.82-2.78 5.746-6.057 8.779-9.833 3.032-3.777 5.415-6.558 7.147-8.345a80.613 80.613 0 0 1 5.48-5.147 123.285 123.285 0 0 1 5.249-4.272 258.704 258.704 0 0 0 3.677-2.849c.875-.695 1.568-1.297 2.08-1.806.512-.51.976-1.02 1.39-1.534.414-.514.843-1.036 1.286-1.567.443-.53.883-1.016 1.32-1.457.438-.44.806-.753 1.106-.938.299-.186.53-.279.69-.279.161 0 .31.093.449.279.138.185.314.615.527 1.288.212.673.469 1.564.768 2.674.299 1.109.69 2.417 1.174 3.923a419.632 419.632 0 0 0 1.562 4.764c.558 1.67 1.102 3.42 1.631 5.25a66.019 66.019 0 0 1 1.425 6.086c.42 2.227.756 4.627 1.01 7.199.253 2.572.437 5.144.552 7.717.115 2.572.173 4.924.173 7.056v6.603c0 2.27-.15 5.04-.45 8.306-.298 3.267-.681 6.373-1.147 9.316a275.79 275.79 0 0 1-1.39 8.066c-.46 2.434-.92 5.25-1.381 8.449a353.26 353.26 0 0 1-1.459 9.283c-.512 2.99-1.021 5.598-1.528 7.82-.506 2.223-1.073 4.737-1.7 7.542-.627 2.806-1.3 5.738-2.02 8.798-.72 3.06-1.459 5.598-2.218 7.613-.76 2.016-1.557 3.766-2.391 5.25-.835 1.485-1.657 2.957-2.469 4.416a78.273 78.273 0 0 0-2.322 4.518 484.485 484.485 0 0 0-2.115 4.52 141.609 141.609 0 0 0-1.63 3.644 35.192 35.192 0 0 0-.907 2.292c-.19.556-.331.951-.423 1.184a3.07 3.07 0 0 0-.138.382c0 .022.069-.002.207-.071.138-.069.463-.334.975-.796s.93-.844 1.252-1.146"/></g></svg>